EncodeSansSemiExpanded-ExtraBold.ufo
<glyph name="exclam" format="2">
  <advance width="666.7727272727273"/>
  <unicode hex="0021"/>
  <outline>
    <contour>
      <point x="216.97727272727272" y="502.54545454545456" type="line"/>
      <point x="454.54545454545456" y="502.54545454545456" type="line"/>
      <point x="541.25" y="981.5454545454545" type="line"/>
      <point x="541.25" y="1480.0" type="line"/>
      <point x="125.52272727272728" y="1480.0" type="line"/>
      <point x="125.52272727272728" y="981.5454545454545" type="line"/>
    </contour>
    <contour>
      <point x="333.3863636363636" y="-18.636363636363637" type="curve" smooth="yes"/>
      <point x="487.27272727272725" y="-18.636363636363637"/>
      <point x="582.7954545454545" y="66.25"/>
      <point x="582.7954545454545" y="193.63636363636363" type="curve" smooth="yes"/>
      <point x="582.7954545454545" y="321.02272727272725"/>
      <point x="490.72727272727275" y="406.1818181818182"/>
      <point x="333.3863636363636" y="406.1818181818182" type="curve" smooth="yes"/>
      <point x="176.04545454545453" y="406.1818181818182"/>
      <point x="83.97727272727272" y="324.47727272727275"/>
      <point x="83.97727272727272" y="193.63636363636363" type="curve" smooth="yes"/>
      <point x="83.97727272727272" y="62.79545454545455"/>
      <point x="179.5" y="-18.636363636363637"/>
    </contour>
  </outline>
</glyph>
<glyph name="dollar" format="2">
  <advance width="1266.8181818181818"/>
  <unicode hex="0024"/>
  <outline>
    <contour>
      <point x="550.1363636363636" y="-19.727272727272727" type="curve" smooth="yes"/>
      <point x="964.6363636363636" y="-19.727272727272727"/>
      <point x="1208.2954545454545" y="160.20454545454544"/>
      <point x="1208.2954545454545" y="452.3863636363636" type="curve" smooth="yes"/>
      <point x="1208.2954545454545" y="681.9090909090909"/>
      <point x="1075.2272727272727" y="822.8636363636364"/>
      <point x="746.090909090909" y="893.9090909090909" type="curve" smooth="yes"/>
      <point x="617.7727272727273" y="922.7272727272727" type="line" smooth="yes"/>
      <point x="488.52272727272725" y="952.8863636363636"/>
      <point x="455.25" y="985.0454545454545"/>
      <point x="455.25" y="1050.25" type="curve" smooth="yes"/>
      <point x="455.25" y="1129.2272727272727"/>
      <point x="523.3409090909091" y="1185.4318181818182"/>
      <point x="774.1818181818182" y="1185.4318181818182" type="curve" smooth="yes"/>
      <point x="889.0454545454545" y="1185.4318181818182"/>
      <point x="1029.0454545454545" y="1167.7045454545455"/>
      <point x="1126.7045454545455" y="1140.409090909091" type="curve"/>
      <point x="1126.7045454545455" y="1458.4318181818182" type="line"/>
      <point x="1025.9318181818182" y="1482.7954545454545"/>
      <point x="892.6136363636364" y="1499.7272727272727"/>
      <point x="750.9772727272727" y="1499.7272727272727" type="curve" smooth="yes"/>
      <point x="283.52272727272725" y="1499.7272727272727"/>
      <point x="58.52272727272727" y="1328.4318181818182"/>
      <point x="58.52272727272727" y="1032.8636363636363" type="curve" smooth="yes"/>
      <point x="58.52272727272727" y="799.8181818181818"/>
      <point x="192.5909090909091" y="660.5454545454545"/>
      <point x="491.6136363636364" y="595.7954545454545" type="curve" smooth="yes"/>
      <point x="619.9318181818182" y="566.9772727272727" type="line" smooth="yes"/>
      <point x="772.4318181818182" y="532.6590909090909"/>
      <point x="811.5681818181818" y="499.15909090909093"/>
      <point x="811.5681818181818" y="428.72727272727275" type="curve" smooth="yes"/>
      <point x="811.5681818181818" y="345.95454545454544"/>
      <point x="752.7272727272727" y="294.56818181818187"/>
      <point x="545.3636363636364" y="294.56818181818187" type="curve" smooth="yes"/>
      <point x="423.77272727272725" y="294.56818181818187"/>
      <point x="230.6818181818182" y="318.97727272727275"/>
      <point x="97.97727272727272" y="360.52272727272725" type="curve"/>
      <point x="97.97727272727272" y="42.5" type="line"/>
      <point x="229.5681818181818" y="4.022727272727273"/>
      <point x="387.97727272727275" y="-19.727272727272727"/>
    </contour>
    <contour>
      <point x="447.3863636363636" y="-240.0" type="line"/>
      <point x="818.840909090909" y="-240.0" type="line"/>
      <point x="818.840909090909" y="61.13636363636364" type="line"/>
      <point x="447.3863636363636" y="60.45454545454545" type="line"/>
    </contour>
    <contour>
      <point x="447.3863636363636" y="1428.1818181818182" type="line"/>
      <point x="818.840909090909" y="1428.1818181818182" type="line"/>
      <point x="818.840909090909" y="1720.0" type="line"/>
      <point x="447.3863636363636" y="1720.0" type="line"/>
    </contour>
  </outline>
</glyph>
<glyph name="percent" format="2">
  <advance width="2306.477272727273"/>
  <unicode hex="0025"/>
  <note>
450
</note>
  <outline>
    <contour>
      <point x="644.0" y="0.0" type="line"/>
      <point x="964.3636363636364" y="0.0" type="line"/>
      <point x="1662.4772727272725" y="1480.0" type="line"/>
      <point x="1342.1136363636365" y="1480.0" type="line"/>
    </contour>
    <contour>
      <point x="529.4318181818182" y="567.6363636363636" type="curve" smooth="yes"/>
      <point x="791.5909090909091" y="567.6363636363636"/>
      <point x="972.5909090909091" y="729.7727272727273"/>
      <point x="972.5909090909091" y="1033.25" type="curve" smooth="yes"/>
      <point x="972.5909090909091" y="1336.7272727272727"/>
      <point x="792.0681818181818" y="1499.7272727272727"/>
      <point x="529.4318181818182" y="1499.7272727272727" type="curve" smooth="yes"/>
      <point x="266.79545454545456" y="1499.7272727272727"/>
      <point x="86.27272727272728" y="1336.7272727272727"/>
      <point x="86.27272727272728" y="1033.25" type="curve" smooth="yes"/>
      <point x="86.27272727272728" y="729.7727272727273"/>
      <point x="267.27272727272725" y="567.6363636363636"/>
    </contour>
    <contour>
      <point x="529.4318181818182" y="805.1590909090909" type="curve" smooth="yes"/>
      <point x="448.22727272727275" y="805.1590909090909"/>
      <point x="388.6818181818182" y="865.5454545454545"/>
      <point x="388.6818181818182" y="1033.5227272727273" type="curve" smooth="yes"/>
      <point x="388.6818181818182" y="1201.3636363636365"/>
      <point x="448.22727272727275" y="1262.2045454545455"/>
      <point x="529.4318181818182" y="1262.2045454545455" type="curve" smooth="yes"/>
      <point x="610.4318181818182" y="1262.2045454545455"/>
      <point x="670.1818181818182" y="1201.3636363636365"/>
      <point x="670.1818181818182" y="1032.9772727272727" type="curve" smooth="yes"/>
      <point x="670.1818181818182" y="864.7272727272727"/>
      <point x="610.4318181818182" y="805.1590909090909"/>
    </contour>
    <contour>
      <point x="1777.0454545454545" y="-18.0" type="curve" smooth="yes"/>
      <point x="2039.2727272727273" y="-18.0"/>
      <point x="2220.2045454545455" y="144.13636363636363"/>
      <point x="2220.2045454545455" y="447.6136363636364" type="curve" smooth="yes"/>
      <point x="2220.2045454545455" y="751.0909090909091"/>
      <point x="2039.6136363636365" y="914.0909090909091"/>
      <point x="1777.0454545454545" y="914.0909090909091" type="curve" smooth="yes"/>
      <point x="1514.4772727272727" y="914.0909090909091"/>
      <point x="1333.8863636363635" y="751.0909090909091"/>
      <point x="1333.8863636363635" y="447.6136363636364" type="curve" smooth="yes"/>
      <point x="1333.8863636363635" y="144.13636363636363"/>
      <point x="1514.818181818182" y="-18.0"/>
    </contour>
    <contour>
      <point x="1777.0454545454545" y="219.52272727272728" type="curve" smooth="yes"/>
      <point x="1696.0454545454545" y="219.52272727272728"/>
      <point x="1636.2954545454545" y="279.9090909090909"/>
      <point x="1636.2954545454545" y="447.8863636363636" type="curve" smooth="yes"/>
      <point x="1636.2954545454545" y="615.7272727272727"/>
      <point x="1696.0454545454545" y="676.5681818181818"/>
      <point x="1777.0454545454545" y="676.5681818181818" type="curve" smooth="yes"/>
      <point x="1858.0454545454545" y="676.5681818181818"/>
      <point x="1917.7954545454545" y="615.7272727272727"/>
      <point x="1917.7954545454545" y="447.34090909090907" type="curve" smooth="yes"/>
      <point x="1917.7954545454545" y="279.0909090909091"/>
      <point x="1858.0454545454545" y="219.52272727272728"/>
    </contour>
  </outline>
</glyph>
<glyph name="ampersand" format="2">
  <advance width="1728.2272727272727"/>
  <unicode hex="0026"/>
  <outline>
    <contour>
      <point x="1561.909090909091" y="-20.0" type="line"/>
      <point x="1728.2272727272727" y="265.75" type="line"/>
      <point x="782.0" y="836.9545454545455" type="line" smooth="yes"/>
      <point x="675.9772727272727" y="904.8636363636364"/>
      <point x="638.909090909091" y="952.9772727272727"/>
      <point x="638.909090909091" y="1019.5227272727273" type="curve" smooth="yes"/>
      <point x="638.909090909091" y="1119.0681818181818"/>
      <point x="707.9772727272727" y="1185.4318181818182"/>
      <point x="955.8409090909091" y="1185.4318181818182" type="curve" smooth="yes"/>
      <point x="1043.0454545454545" y="1185.4318181818182"/>
      <point x="1140.0" y="1173.9318181818182"/>
      <point x="1212.0227272727273" y="1159.1363636363637" type="curve"/>
      <point x="1212.0227272727273" y="1477.159090909091" type="line"/>
      <point x="1128.2045454545455" y="1490.6818181818182"/>
      <point x="1036.8181818181818" y="1499.7272727272727"/>
      <point x="927.25" y="1499.7272727272727" type="curve" smooth="yes"/>
      <point x="462.34090909090907" y="1499.7272727272727"/>
      <point x="242.1818181818182" y="1322.2272727272727"/>
      <point x="242.1818181818182" y="1033.2727272727273" type="curve" smooth="yes"/>
      <point x="242.1818181818182" y="880.4772727272727"/>
      <point x="311.29545454545456" y="732.9318181818181"/>
      <point x="615.6818181818181" y="551.2045454545455" type="curve" smooth="yes"/>
    </contour>
    <contour>
      <point x="743.7272727272727" y="-18.0" type="curve" smooth="yes"/>
      <point x="1202.7272727272727" y="-18.0"/>
      <point x="1475.1818181818182" y="204.70454545454547"/>
      <point x="1475.1818181818182" y="640.4318181818182" type="curve" smooth="yes"/>
      <point x="1475.1818181818182" y="715.5"/>
      <point x="1463.2727272727273" y="804.7272727272727"/>
      <point x="1442.1363636363637" y="886.0909090909091" type="curve"/>
      <point x="1132.909090909091" y="886.0909090909091" type="line"/>
      <point x="1154.1136363636365" y="804.7272727272727"/>
      <point x="1167.7954545454545" y="713.3636363636364"/>
      <point x="1167.7954545454545" y="637.1136363636364" type="curve" smooth="yes"/>
      <point x="1167.7954545454545" y="348.1136363636364"/>
      <point x="1007.1363636363636" y="252.6818181818182"/>
      <point x="790.2045454545455" y="252.6818181818182" type="curve" smooth="yes"/>
      <point x="603.0227272727273" y="252.6818181818182"/>
      <point x="500.04545454545456" y="325.02272727272725"/>
      <point x="500.04545454545456" y="447.5909090909091" type="curve" smooth="yes"/>
      <point x="500.04545454545456" y="537.1136363636364"/>
      <point x="542.9772727272727" y="600.1136363636364"/>
      <point x="611.4545454545455" y="649.9318181818181" type="curve"/>
      <point x="406.0681818181818" y="790.7727272727273" type="line"/>
      <point x="238.22727272727272" y="739.5227272727273"/>
      <point x="104.18181818181819" y="600.5"/>
      <point x="104.18181818181819" y="405.3181818181818" type="curve" smooth="yes"/>
      <point x="104.18181818181819" y="149.22727272727272"/>
      <point x="317.77272727272725" y="-18.0"/>
    </contour>
  </outline>
</glyph>
<glyph name="quotesingle" format="2">
  <advance width="527.9090909090909"/>
  <unicode hex="0027"/>
  <outline>
    <contour>
      <point x="144.63636363636363" y="813.5" type="line"/>
      <point x="383.27272727272725" y="813.5" type="line"/>
      <point x="453.7954545454545" y="1616.0" type="line"/>
      <point x="74.11363636363636" y="1616.0" type="line"/>
    </contour>
  </outline>
</glyph>
<glyph name="parenleft" format="2">
  <advance width="776.5454545454545"/>
  <unicode hex="0028"/>
  <outline>
    <contour>
      <point x="481.4318181818182" y="-440.0" type="curve"/>
      <point x="898.2954545454545" y="-440.0" type="line"/>
      <point x="613.5909090909091" y="-133.47727272727272"/>
      <point x="503.27272727272725" y="183.88636363636363"/>
      <point x="503.27272727272725" y="588.0" type="curve" smooth="yes"/>
      <point x="503.27272727272725" y="992.1136363636364"/>
      <point x="613.5909090909091" y="1309.4772727272727"/>
      <point x="898.2954545454545" y="1616.0" type="curve"/>
      <point x="481.4318181818182" y="1616.0" type="line"/>
      <point x="210.0681818181818" y="1350.9772727272727"/>
      <point x="103.52272727272728" y="993.7954545454545"/>
      <point x="103.52272727272728" y="588.0" type="curve" smooth="yes"/>
      <point x="103.52272727272728" y="182.20454545454544"/>
      <point x="210.0681818181818" y="-174.97727272727272"/>
    </contour>
  </outline>
</glyph>
<glyph name="parenright" format="2">
  <advance width="776.5454545454545"/>
  <unicode hex="0029"/>
  <outline>
    <contour>
      <point x="-121.75" y="-440.0" type="curve"/>
      <point x="295.1136363636364" y="-440.0" type="line"/>
      <point x="566.4772727272727" y="-174.97727272727272"/>
      <point x="673.0227272727273" y="182.20454545454544"/>
      <point x="673.0227272727273" y="588.0" type="curve" smooth="yes"/>
      <point x="673.0227272727273" y="993.7954545454545"/>
      <point x="566.4772727272727" y="1350.9772727272727"/>
      <point x="295.1136363636364" y="1616.0" type="curve"/>
      <point x="-121.75" y="1616.0" type="line"/>
      <point x="162.95454545454547" y="1309.4772727272727"/>
      <point x="273.27272727272725" y="992.1136363636364"/>
      <point x="273.27272727272725" y="588.0" type="curve" smooth="yes"/>
      <point x="273.27272727272725" y="183.88636363636363"/>
      <point x="162.95454545454547" y="-133.47727272727272"/>
    </contour>
  </outline>
</glyph>
<glyph name="asterisk" format="2">
  <advance width="1062.4545454545455"/>
  <unicode hex="002A"/>
  <outline>
    <contour>
      <point x="679.0" y="1120.7954545454545" type="line"/>
      <point x="856.7045454545455" y="1140.2954545454545" type="line"/>
      <point x="1032.4545454545455" y="1196.9772727272727" type="line"/>
      <point x="955.0227272727273" y="1434.4545454545455" type="line"/>
      <point x="779.5454545454545" y="1377.340909090909" type="line"/>
      <point x="616.75" y="1282.0681818181818" type="line"/>
      <point x="656.0681818181818" y="1467.5" type="line"/>
      <point x="656.0681818181818" y="1616.0" type="line"/>
      <point x="406.3863636363636" y="1616.0" type="line"/>
      <point x="406.3863636363636" y="1467.5" type="line"/>
      <point x="445.70454545454544" y="1282.0681818181818" type="line"/>
      <point x="282.9090909090909" y="1377.340909090909" type="line"/>
      <point x="107.43181818181819" y="1434.4545454545455" type="line"/>
      <point x="30.0" y="1196.9772727272727" type="line"/>
      <point x="205.75" y="1140.2954545454545" type="line"/>
      <point x="383.45454545454544" y="1120.7954545454545" type="line"/>
      <point x="247.13636363636363" y="997.6136363636364" type="line"/>
      <point x="156.9318181818182" y="871.8636363636364" type="line"/>
      <point x="359.20454545454544" y="725.4772727272727" type="line"/>
      <point x="449.4090909090909" y="849.9318181818181" type="line"/>
      <point x="531.2272727272727" y="1036.0227272727273" type="line"/>
      <point x="613.0454545454545" y="849.9318181818181" type="line"/>
      <point x="703.25" y="725.4772727272727" type="line"/>
      <point x="905.5227272727273" y="871.8636363636364" type="line"/>
      <point x="815.3181818181818" y="997.6136363636364" type="line"/>
    </contour>
  </outline>
</glyph>
<glyph name="plus" format="2">
  <advance width="1146.3181818181818"/>
  <unicode hex="002B"/>
  <outline>
    <contour>
      <point x="419.54545454545456" y="295.0909090909091" type="line"/>
      <point x="726.7727272727273" y="295.0909090909091" type="line"/>
      <point x="726.7727272727273" y="613.1363636363636" type="line"/>
      <point x="1031.2954545454545" y="613.1363636363636" type="line"/>
      <point x="1031.2954545454545" y="906.8636363636364" type="line"/>
      <point x="726.7727272727273" y="906.8636363636364" type="line"/>
      <point x="726.7727272727273" y="1224.909090909091" type="line"/>
      <point x="419.54545454545456" y="1224.909090909091" type="line"/>
      <point x="419.54545454545456" y="906.8636363636364" type="line"/>
      <point x="115.02272727272728" y="906.8636363636364" type="line"/>
      <point x="115.02272727272728" y="613.1363636363636" type="line"/>
      <point x="419.54545454545456" y="613.1363636363636" type="line"/>
    </contour>
  </outline>
</glyph>
<glyph name="comma" format="2">
  <advance width="626.7727272727273"/>
  <unicode hex="002C"/>
  <outline>
    <contour>
      <point x="156.29545454545453" y="-351.8181818181818" type="curve"/>
      <point x="377.34090909090907" y="-351.8181818181818" type="line"/>
      <point x="488.75" y="-216.36363636363637"/>
      <point x="560.2045454545455" y="-33.27272727272727"/>
      <point x="560.2045454545455" y="140.38636363636363" type="curve" smooth="yes"/>
      <point x="560.2045454545455" y="335.97727272727275"/>
      <point x="472.8863636363636" y="434.6818181818182"/>
      <point x="307.9318181818182" y="434.6818181818182" type="curve" smooth="yes"/>
      <point x="155.77272727272728" y="434.6818181818182"/>
      <point x="63.97727272727273" y="349.09090909090907"/>
      <point x="63.97727272727273" y="208.1590909090909" type="curve" smooth="yes"/>
      <point x="63.97727272727273" y="68.25"/>
      <point x="160.36363636363637" y="-18.636363636363637"/>
      <point x="313.3863636363636" y="-18.636363636363637" type="curve" smooth="yes"/>
      <point x="361.65909090909093" y="-18.636363636363637" type="line"/>
      <point x="274.3181818181818" y="46.54545454545455" type="line"/>
      <point x="274.3181818181818" y="-83.0909090909091"/>
      <point x="231.1590909090909" y="-203.27272727272728"/>
    </contour>
  </outline>
</glyph>
<glyph name="hyphen" format="2">
  <advance width="1026.5454545454545"/>
  <unicode hex="002D"/>
  <outline>
    <contour>
      <point x="115.02272727272728" y="410.1136363636364" type="line"/>
      <point x="911.5227272727273" y="410.1136363636364" type="line"/>
      <point x="911.5227272727273" y="727.1590909090909" type="line"/>
      <point x="115.02272727272728" y="727.1590909090909" type="line"/>
    </contour>
  </outline>
</glyph>
<glyph name="period" format="2">
  <advance width="626.7727272727273"/>
  <unicode hex="002E"/>
  <outline>
    <contour>
      <point x="313.3863636363636" y="-18.636363636363637" type="curve" smooth="yes"/>
      <point x="467.27272727272725" y="-18.636363636363637"/>
      <point x="562.7954545454545" y="71.43181818181819"/>
      <point x="562.7954545454545" y="207.88636363636363" type="curve" smooth="yes"/>
      <point x="562.7954545454545" y="344.3409090909091"/>
      <point x="470.72727272727275" y="434.6818181818182"/>
      <point x="313.3863636363636" y="434.6818181818182" type="curve" smooth="yes"/>
      <point x="156.04545454545453" y="434.6818181818182"/>
      <point x="63.97727272727273" y="347.79545454545456"/>
      <point x="63.97727272727273" y="207.88636363636363" type="curve" smooth="yes"/>
      <point x="63.97727272727273" y="67.97727272727272"/>
      <point x="159.5" y="-18.636363636363637"/>
    </contour>
  </outline>
</glyph>
<glyph name="slash" format="2">
  <advance width="924.0454545454545"/>
  <unicode hex="002F"/>
  <outline>
    <contour>
      <point x="0.0" y="-240.0" type="line"/>
      <point x="391.06818181818187" y="-240.0" type="line"/>
      <point x="924.0454545454545" y="1616.0" type="line"/>
      <point x="532.9772727272727" y="1616.0" type="line"/>
    </contour>
  </outline>
</glyph>
<glyph name="zero" format="2">
  <advance width="1457.340909090909"/>
  <unicode hex="0030"/>
  <note>
600
</note>
  <outline>
    <contour>
      <point x="728.0227272727273" y="-19.727272727272727" type="curve" smooth="yes"/>
      <point x="1119.0454545454545" y="-19.727272727272727"/>
      <point x="1363.8181818181818" y="224.04545454545456"/>
      <point x="1363.8181818181818" y="740.0" type="curve" smooth="yes"/>
      <point x="1363.8181818181818" y="1255.9545454545455"/>
      <point x="1119.7272727272727" y="1499.7272727272727"/>
      <point x="728.0227272727273" y="1499.7272727272727" type="curve" smooth="yes"/>
      <point x="336.3181818181818" y="1499.7272727272727"/>
      <point x="93.52272727272728" y="1255.9545454545455"/>
      <point x="93.52272727272728" y="740.0" type="curve" smooth="yes"/>
      <point x="93.52272727272728" y="224.04545454545456"/>
      <point x="337.0" y="-19.727272727272727"/>
    </contour>
    <contour>
      <point x="729.3181818181818" y="304.0681818181818" type="curve" smooth="yes"/>
      <point x="574.090909090909" y="304.0681818181818"/>
      <point x="485.9318181818182" y="407.22727272727275"/>
      <point x="485.9318181818182" y="740.5454545454545" type="curve" smooth="yes"/>
      <point x="485.9318181818182" y="1072.7727272727273"/>
      <point x="576.6818181818182" y="1175.9318181818182"/>
      <point x="729.3181818181818" y="1175.9318181818182" type="curve" smooth="yes"/>
      <point x="880.6590909090909" y="1175.9318181818182"/>
      <point x="971.4090909090909" y="1072.7727272727273"/>
      <point x="971.4090909090909" y="739.4545454545455" type="curve" smooth="yes"/>
      <point x="971.4090909090909" y="407.22727272727275"/>
      <point x="880.6590909090909" y="304.0681818181818"/>
    </contour>
  </outline>
</glyph>
<glyph name="one" format="2">
  <advance width="950.7045454545455"/>
  <unicode hex="0031"/>
  <outline>
    <contour>
      <point x="407.5909090909091" y="0.0" type="line"/>
      <point x="809.8181818181818" y="0.0" type="line"/>
      <point x="809.8181818181818" y="1485.7272727272727" type="line"/>
      <point x="544.7272727272727" y="1485.7272727272727" type="line"/>
      <point x="37.45454545454545" y="1129.2954545454545" type="line"/>
      <point x="37.45454545454545" y="756.7272727272727" type="line"/>
      <point x="544.7272727272727" y="1112.75" type="line"/>
      <point x="407.5909090909091" y="1266.090909090909" type="line"/>
    </contour>
  </outline>
</glyph>
<glyph name="two" format="2">
  <advance width="1179.0454545454545"/>
  <unicode hex="0032"/>
  <outline>
    <contour>
      <point x="48.15909090909091" y="0.0" type="line"/>
      <point x="1125.6363636363635" y="0.0" type="line"/>
      <point x="1125.6363636363635" y="320.9318181818182" type="line"/>
      <point x="487.3181818181818" y="320.9318181818182" type="line"/>
      <point x="490.65909090909093" y="219.63636363636363" type="line"/>
      <point x="831.25" y="588.3181818181818" type="line" smooth="yes"/>
      <point x="996.1363636363636" y="767.4545454545455"/>
      <point x="1053.5227272727273" y="906.7045454545455"/>
      <point x="1053.590909090909" y="1058.5" type="curve" smooth="yes"/>
      <point x="1053.7272727272727" y="1360.0"/>
      <point x="852.909090909091" y="1499.7272727272727"/>
      <point x="428.2045454545455" y="1499.7272727272727" type="curve" smooth="yes"/>
      <point x="294.8409090909091" y="1499.7272727272727"/>
      <point x="125.25" y="1473.0454545454545"/>
      <point x="29.795454545454547" y="1442.090909090909" type="curve"/>
      <point x="29.795454545454547" y="1124.0681818181818" type="line"/>
      <point x="123.8409090909091" y="1158.590909090909"/>
      <point x="261.1818181818182" y="1185.4318181818182"/>
      <point x="391.5" y="1185.4318181818182" type="curve" smooth="yes"/>
      <point x="587.9772727272727" y="1185.4318181818182"/>
      <point x="658.4318181818181" y="1129.2954545454545"/>
      <point x="658.4318181818181" y="1015.7727272727273" type="curve" smooth="yes"/>
      <point x="658.4318181818181" y="933.0909090909091"/>
      <point x="615.2045454545455" y="848.75"/>
      <point x="489.1818181818182" y="706.0" type="curve" smooth="yes"/>
      <point x="48.15909090909091" y="209.70454545454547" type="line"/>
    </contour>
  </outline>
</glyph>
<glyph name="three" format="2">
  <advance width="1187.7272727272727"/>
  <unicode hex="0033"/>
  <outline>
    <contour>
      <point x="476.8409090909091" y="-19.727272727272727" type="curve" smooth="yes"/>
      <point x="925.0681818181818" y="-19.727272727272727"/>
      <point x="1123.840909090909" y="149.1590909090909"/>
      <point x="1123.840909090909" y="418.3636363636364" type="curve" smooth="yes"/>
      <point x="1123.840909090909" y="623.0454545454545"/>
      <point x="1000.0454545454545" y="738.0909090909091"/>
      <point x="796.1363636363636" y="770.0454545454545" type="curve"/>
      <point x="796.0681818181818" y="755.8636363636364" type="line"/>
      <point x="965.9318181818182" y="794.0454545454545"/>
      <point x="1072.909090909091" y="918.9772727272727"/>
      <point x="1072.909090909091" y="1089.4545454545455" type="curve" smooth="yes"/>
      <point x="1072.909090909091" y="1349.5454545454545"/>
      <point x="878.590909090909" y="1499.7272727272727"/>
      <point x="477.3409090909091" y="1499.7272727272727" type="curve" smooth="yes"/>
      <point x="341.1590909090909" y="1499.7272727272727"/>
      <point x="176.95454545454544" y="1476.0454545454545"/>
      <point x="73.81818181818181" y="1442.7045454545455" type="curve"/>
      <point x="73.81818181818181" y="1154.0454545454545" type="line"/>
      <point x="181.1818181818182" y="1190.5227272727273"/>
      <point x="318.72727272727275" y="1212.2045454545455"/>
      <point x="436.6136363636364" y="1212.2045454545455" type="curve" smooth="yes"/>
      <point x="615.9318181818181" y="1212.2045454545455"/>
      <point x="689.8409090909091" y="1155.590909090909"/>
      <point x="689.8409090909091" y="1056.0681818181818" type="curve" smooth="yes"/>
      <point x="689.8409090909091" y="959.3181818181819"/>
      <point x="620.4545454545455" y="901.0909090909091"/>
      <point x="417.52272727272725" y="901.0909090909091" type="curve" smooth="yes"/>
      <point x="203.9090909090909" y="901.0909090909091" type="line"/>
      <point x="203.9090909090909" y="610.5454545454545" type="line"/>
      <point x="463.6590909090909" y="610.5454545454545" type="line" smooth="yes"/>
      <point x="677.9545454545455" y="610.5454545454545"/>
      <point x="749.8409090909091" y="551.7272727272727"/>
      <point x="749.8409090909091" y="442.6818181818182" type="curve" smooth="yes"/>
      <point x="749.8409090909091" y="330.6136363636364"/>
      <point x="667.6818181818182" y="267.79545454545456"/>
      <point x="456.8863636363636" y="267.79545454545456" type="curve" smooth="yes"/>
      <point x="320.4318181818182" y="267.79545454545456"/>
      <point x="167.5909090909091" y="290.52272727272725"/>
      <point x="47.54545454545455" y="321.3636363636364" type="curve"/>
      <point x="47.54545454545455" y="32.70454545454545" type="line"/>
      <point x="173.72727272727272" y="0.40909090909090917"/>
      <point x="319.27272727272725" y="-19.727272727272727"/>
    </contour>
  </outline>
</glyph>
<glyph name="four" format="2">
  <advance width="1383.2727272727273"/>
  <unicode hex="0034"/>
  <outline>
    <contour>
      <point x="35.27272727272727" y="279.9318181818182" type="line"/>
      <point x="1351.25" y="279.9318181818182" type="line"/>
      <point x="1351.25" y="586.6136363636364" type="line"/>
      <point x="388.20454545454544" y="586.6136363636364" type="line"/>
      <point x="425.0681818181818" y="494.54545454545456" type="line"/>
      <point x="939.75" y="1480.0" type="line"/>
      <point x="555.2954545454545" y="1480.0" type="line"/>
      <point x="35.27272727272727" y="494.8181818181818" type="line"/>
    </contour>
    <contour>
      <point x="797.1818181818182" y="0.0" type="line"/>
      <point x="1157.090909090909" y="0.0" type="line"/>
      <point x="1157.090909090909" y="980.0" type="line"/>
      <point x="833.6363636363636" y="980.0" type="line"/>
      <point x="797.1818181818182" y="586.6136363636364" type="line"/>
    </contour>
  </outline>
</glyph>
<glyph name="five" format="2">
  <advance width="1200.7954545454545"/>
  <unicode hex="0035"/>
  <outline>
    <contour>
      <point x="502.6136363636364" y="-19.727272727272727" type="curve" smooth="yes"/>
      <point x="937.9545454545455" y="-19.727272727272727"/>
      <point x="1148.25" y="148.27272727272728"/>
      <point x="1149.5454545454545" y="450.8181818181818" type="curve" smooth="yes"/>
      <point x="1150.840909090909" y="736.4318181818181"/>
      <point x="964.6590909090909" y="891.4545454545455"/>
      <point x="470.29545454545456" y="916.5909090909091" type="curve" smooth="yes"/>
      <point x="249.88636363636363" y="927.6590909090909" type="line"/>
      <point x="502.68181818181824" y="794.1363636363636" type="line"/>
      <point x="541.7045454545455" y="1353.3636363636365" type="line"/>
      <point x="370.9090909090909" y="1184.1136363636365" type="line"/>
      <point x="1087.1136363636365" y="1184.1136363636365" type="line"/>
      <point x="1087.1136363636365" y="1480.0" type="line"/>
      <point x="174.0681818181818" y="1480.0" type="line"/>
      <point x="119.68181818181819" y="644.0227272727273" type="line"/>
      <point x="340.09090909090907" y="632.9545454545455" type="line" smooth="yes"/>
      <point x="696.5454545454545" y="613.2727272727273"/>
      <point x="774.25" y="556.4318181818181"/>
      <point x="774.25" y="444.70454545454544" type="curve" smooth="yes"/>
      <point x="774.25" y="335.0454545454545"/>
      <point x="691.4772727272727" y="272.97727272727275"/>
      <point x="482.72727272727275" y="272.97727272727275" type="curve" smooth="yes"/>
      <point x="345.6590909090909" y="272.97727272727275"/>
      <point x="192.8181818181818" y="296.2045454545455"/>
      <point x="73.25" y="327.4090909090909" type="curve"/>
      <point x="73.25" y="38.75" type="line"/>
      <point x="199.0909090909091" y="3.6363636363636362"/>
      <point x="344.77272727272725" y="-19.727272727272727"/>
    </contour>
  </outline>
</glyph>
<glyph name="seven" format="2">
  <advance width="1123.0454545454545"/>
  <unicode hex="0037"/>
  <outline>
    <contour>
      <point x="175.02272727272728" y="0.0" type="line"/>
      <point x="585.0454545454545" y="0.0" type="line"/>
      <point x="1065.1363636363635" y="1270.2954545454545" type="line"/>
      <point x="1065.1363636363635" y="1480.0" type="line"/>
      <point x="11.840909090909092" y="1480.0" type="line"/>
      <point x="11.840909090909092" y="1159.0681818181818" type="line"/>
      <point x="816.2727272727273" y="1159.0681818181818" type="line"/>
      <point x="685.1818181818181" y="1270.5681818181818" type="line"/>
    </contour>
  </outline>
</glyph>
<glyph name="eight" format="2">
  <advance width="1457.340909090909"/>
  <unicode hex="0038"/>
  <outline>
    <contour>
      <point x="731.1818181818182" y="-19.727272727272727" type="curve" smooth="yes"/>
      <point x="1174.0681818181818" y="-19.727272727272727"/>
      <point x="1371.8863636363635" y="176.04545454545456"/>
      <point x="1371.8863636363635" y="419.4318181818182" type="curve" smooth="yes"/>
      <point x="1371.8863636363635" y="634.1136363636364"/>
      <point x="1252.659090909091" y="776.0454545454545"/>
      <point x="850.8181818181818" y="875.2045454545455" type="curve" smooth="yes"/>
      <point x="551.1136363636364" y="948.0681818181818"/>
      <point x="498.68181818181813" y="997.8181818181818"/>
      <point x="498.68181818181813" y="1091.5227272727273" type="curve" smooth="yes"/>
      <point x="498.68181818181813" y="1170.1136363636363"/>
      <point x="567.7045454545455" y="1233.7954545454545"/>
      <point x="748.2272727272727" y="1233.7954545454545" type="curve" smooth="yes"/>
      <point x="909.1818181818182" y="1233.7954545454545"/>
      <point x="985.7727272727273" y="1178.25"/>
      <point x="985.7727272727273" y="1082.4772727272727" type="curve" smooth="yes"/>
      <point x="985.7727272727273" y="991.2045454545455"/>
      <point x="931.7045454545455" y="917.8181818181818"/>
      <point x="789.5454545454545" y="851.0" type="curve"/>
      <point x="1020.6363636363636" y="759.3409090909091" type="line"/>
      <point x="1252.3181818181818" y="838.0227272727273"/>
      <point x="1331.0" y="974.25"/>
      <point x="1331.0" y="1126.7272727272727" type="curve" smooth="yes"/>
      <point x="1331.0" y="1359.590909090909"/>
      <point x="1124.840909090909" y="1499.7272727272727"/>
      <point x="756.6363636363636" y="1499.7272727272727" type="curve" smooth="yes"/>
      <point x="324.6818181818182" y="1499.7272727272727"/>
      <point x="122.68181818181819" y="1322.8863636363637"/>
      <point x="122.68181818181819" y="1075.7045454545455" type="curve" smooth="yes"/>
      <point x="122.68181818181819" y="862.6818181818182"/>
      <point x="250.47727272727272" y="697.4090909090909"/>
      <point x="651.4772727272727" y="607.9090909090909" type="curve" smooth="yes"/>
      <point x="933.5681818181818" y="545.4090909090909"/>
      <point x="1001.0681818181818" y="493.4090909090909"/>
      <point x="1001.0681818181818" y="395.5" type="curve" smooth="yes"/>
      <point x="1001.0681818181818" y="302.7045454545455"/>
      <point x="923.2954545454545" y="246.20454545454547"/>
      <point x="732.6818181818182" y="246.20454545454547" type="curve" smooth="yes"/>
      <point x="539.7045454545455" y="246.20454545454547"/>
      <point x="454.3409090909091" y="308.8863636363636"/>
      <point x="454.3409090909091" y="416.4318181818182" type="curve" smooth="yes"/>
      <point x="454.3409090909091" y="504.8181818181818"/>
      <point x="515.1363636363636" y="597.3863636363636"/>
      <point x="675.1363636363636" y="647.1136363636364" type="curve"/>
      <point x="418.54545454545456" y="735.0227272727273" type="line"/>
      <point x="200.0909090909091" y="672.7727272727273"/>
      <point x="81.13636363636364" y="538.4090909090909"/>
      <point x="81.13636363636364" y="364.6363636363636" type="curve" smooth="yes"/>
      <point x="81.13636363636364" y="144.11363636363637"/>
      <point x="266.8181818181818" y="-19.727272727272727"/>
    </contour>
  </outline>
</glyph>
<glyph name="nine" format="2">
  <advance width="1363.0"/>
  <unicode hex="0039"/>
  <outline>
    <contour>
      <point x="624.8181818181819" y="1499.7272727272727" type="curve" smooth="yes"/>
      <point x="265.9318181818182" y="1499.7272727272727"/>
      <point x="57.61363636363636" y="1314.159090909091"/>
      <point x="57.61363636363636" y="1028.1363636363637" type="curve" smooth="yes"/>
      <point x="57.61363636363636" y="711.8863636363636"/>
      <point x="268.25" y="574.2727272727273"/>
      <point x="562.1818181818181" y="574.2727272727273" type="curve" smooth="yes"/>
      <point x="703.0" y="574.2727272727273"/>
      <point x="850.5909090909091" y="617.3409090909091"/>
      <point x="930.5909090909091" y="687.9318181818182" type="curve"/>
      <point x="930.5909090909091" y="949.5227272727273" type="line"/>
      <point x="849.9772727272727" y="882.5454545454545"/>
      <point x="745.5227272727273" y="851.0"/>
      <point x="643.4772727272727" y="851.0" type="curve" smooth="yes"/>
      <point x="503.8636363636364" y="851.0"/>
      <point x="418.22727272727275" y="908.7954545454545"/>
      <point x="418.22727272727275" y="1037.9772727272727" type="curve" smooth="yes"/>
      <point x="418.22727272727275" y="1161.2727272727273"/>
      <point x="498.75" y="1222.1363636363635"/>
      <point x="623.8863636363636" y="1222.1363636363635" type="curve" smooth="yes"/>
      <point x="778.0681818181819" y="1222.1363636363635"/>
      <point x="872.2954545454545" y="1137.8863636363635"/>
      <point x="872.2954545454545" y="851.0454545454545" type="curve" smooth="yes"/>
      <point x="872.2954545454545" y="680.1363636363636" type="line" smooth="yes"/>
      <point x="872.2954545454545" y="417.6136363636364"/>
      <point x="742.6363636363636" y="274.7045454545455"/>
      <point x="455.9318181818182" y="274.7045454545455" type="curve" smooth="yes"/>
      <point x="349.04545454545456" y="274.7045454545455"/>
      <point x="236.20454545454544" y="291.52272727272725"/>
      <point x="139.5909090909091" y="325.9545454545455" type="curve"/>
      <point x="139.5909090909091" y="30.386363636363637" type="line"/>
      <point x="240.75" y="-6.863636363636363"/>
      <point x="352.4090909090909" y="-19.727272727272727"/>
      <point x="480.6136363636364" y="-19.727272727272727" type="curve" smooth="yes"/>
      <point x="985.7272727272727" y="-19.727272727272727"/>
      <point x="1260.1136363636363" y="261.6363636363636"/>
      <point x="1260.1136363636363" y="792.1818181818181" type="curve" smooth="yes"/>
      <point x="1260.1136363636363" y="1276.5"/>
      <point x="1004.6136363636364" y="1499.7272727272727"/>
    </contour>
  </outline>
</glyph>
<glyph name="colon" format="2">
  <advance width="626.7727272727273"/>
  <unicode hex="003A"/>
  <outline>
    <contour>
      <point x="313.3863636363636" y="-18.636363636363637" type="curve" smooth="yes"/>
      <point x="467.27272727272725" y="-18.636363636363637"/>
      <point x="562.7954545454545" y="71.43181818181819"/>
      <point x="562.7954545454545" y="207.88636363636363" type="curve" smooth="yes"/>
      <point x="562.7954545454545" y="344.3409090909091"/>
      <point x="470.72727272727275" y="434.6818181818182"/>
      <point x="313.3863636363636" y="434.6818181818182" type="curve" smooth="yes"/>
      <point x="156.04545454545453" y="434.6818181818182"/>
      <point x="63.97727272727273" y="347.79545454545456"/>
      <point x="63.97727272727273" y="207.88636363636363" type="curve" smooth="yes"/>
      <point x="63.97727272727273" y="67.97727272727272"/>
      <point x="159.5" y="-18.636363636363637"/>
    </contour>
    <contour>
      <point x="313.3863636363636" y="662.5909090909091" type="curve" smooth="yes"/>
      <point x="467.27272727272725" y="662.5909090909091"/>
      <point x="562.7954545454545" y="752.6590909090909"/>
      <point x="562.7954545454545" y="889.1136363636364" type="curve" smooth="yes"/>
      <point x="562.7954545454545" y="1025.5681818181818"/>
      <point x="470.72727272727275" y="1115.909090909091"/>
      <point x="313.3863636363636" y="1115.909090909091" type="curve" smooth="yes"/>
      <point x="156.04545454545453" y="1115.909090909091"/>
      <point x="63.97727272727273" y="1029.0227272727273"/>
      <point x="63.97727272727273" y="889.1136363636364" type="curve" smooth="yes"/>
      <point x="63.97727272727273" y="749.2045454545455"/>
      <point x="159.5" y="662.5909090909091"/>
    </contour>
  </outline>
</glyph>
<glyph name="less" format="2">
  <advance width="1146.3181818181818"/>
  <unicode hex="003C"/>
  <outline>
    <contour>
      <point x="1031.2954545454545" y="247.95454545454544" type="line"/>
      <point x="1031.2954545454545" y="542.7727272727273" type="line"/>
      <point x="324.54545454545456" y="786.25" type="line"/>
      <point x="324.54545454545456" y="740.2272727272727" type="line"/>
      <point x="1031.2954545454545" y="977.2272727272727" type="line"/>
      <point x="1031.2954545454545" y="1272.0454545454545" type="line"/>
      <point x="115.02272727272728" y="944.0454545454545" type="line"/>
      <point x="115.02272727272728" y="575.9545454545455" type="line"/>
    </contour>
  </outline>
</glyph>
<glyph name="equal" format="2">
  <advance width="1146.3181818181818"/>
  <unicode hex="003D"/>
  <outline>
    <contour>
      <point x="115.02272727272728" y="849.5454545454545" type="line"/>
      <point x="1031.2954545454545" y="849.5454545454545" type="line"/>
      <point x="1031.2954545454545" y="1143.2727272727273" type="line"/>
      <point x="115.02272727272728" y="1143.2727272727273" type="line"/>
    </contour>
    <contour>
      <point x="115.02272727272728" y="376.72727272727275" type="line"/>
      <point x="1031.2954545454545" y="376.72727272727275" type="line"/>
      <point x="1031.2954545454545" y="670.4545454545455" type="line"/>
      <point x="115.02272727272728" y="670.4545454545455" type="line"/>
    </contour>
  </outline>
</glyph>
<glyph name="greater" format="2">
  <advance width="1146.3181818181818"/>
  <unicode hex="003E"/>
  <outline>
    <contour>
      <point x="115.02272727272728" y="247.95454545454544" type="line"/>
      <point x="1031.2954545454545" y="575.9545454545455" type="line"/>
      <point x="1031.2954545454545" y="944.0454545454545" type="line"/>
      <point x="115.02272727272728" y="1272.0454545454545" type="line"/>
      <point x="115.02272727272728" y="977.2272727272727" type="line"/>
      <point x="821.7727272727273" y="740.2272727272727" type="line"/>
      <point x="821.7727272727273" y="786.25" type="line"/>
      <point x="115.02272727272728" y="542.7727272727273" type="line"/>
    </contour>
  </outline>
</glyph>
<glyph name="question" format="2">
  <advance width="1089.0681818181818"/>
  <unicode hex="003F"/>
  <outline>
    <contour>
      <point x="374.9090909090909" y="500.3636363636364" type="line"/>
      <point x="612.4772727272727" y="500.3636363636364" type="line"/>
      <point x="638.4545454545455" y="668.4090909090909" type="line"/>
      <point x="885.4545454545455" y="734.2727272727273"/>
      <point x="1034.7272727272727" y="864.5227272727273"/>
      <point x="1034.7272727272727" y="1082.9772727272727" type="curve" smooth="yes"/>
      <point x="1034.7272727272727" y="1349.5454545454545"/>
      <point x="840.409090909091" y="1499.7272727272727"/>
      <point x="439.1590909090909" y="1499.7272727272727" type="curve" smooth="yes"/>
      <point x="302.97727272727275" y="1499.7272727272727"/>
      <point x="138.77272727272728" y="1476.0454545454545"/>
      <point x="35.63636363636363" y="1442.7045454545455" type="curve"/>
      <point x="35.63636363636363" y="1141.090909090909" type="line"/>
      <point x="143.0" y="1177.5681818181818"/>
      <point x="277.95454545454544" y="1199.25"/>
      <point x="395.77272727272725" y="1199.25" type="curve" smooth="yes"/>
      <point x="577.75" y="1199.25"/>
      <point x="651.6590909090909" y="1146.5227272727273"/>
      <point x="651.6590909090909" y="1053.4772727272727" type="curve" smooth="yes"/>
      <point x="651.6590909090909" y="964.7727272727273"/>
      <point x="578.9090909090909" y="895.2954545454545"/>
      <point x="307.20454545454544" y="855.25" type="curve"/>
    </contour>
    <contour>
      <point x="494.3409090909091" y="-18.636363636363637" type="curve" smooth="yes"/>
      <point x="648.5" y="-18.636363636363637"/>
      <point x="743.75" y="66.52272727272728"/>
      <point x="743.75" y="193.63636363636363" type="curve" smooth="yes"/>
      <point x="743.75" y="321.02272727272725"/>
      <point x="651.6818181818182" y="406.1818181818182"/>
      <point x="494.3409090909091" y="406.1818181818182" type="curve" smooth="yes"/>
      <point x="337.0" y="406.1818181818182"/>
      <point x="244.9318181818182" y="324.47727272727275"/>
      <point x="244.9318181818182" y="193.63636363636363" type="curve" smooth="yes"/>
      <point x="244.9318181818182" y="63.06818181818182"/>
      <point x="340.45454545454544" y="-18.636363636363637"/>
    </contour>
  </outline>
</glyph>
<glyph name="at" format="2">
  <advance width="2269.477272727273"/>
  <unicode hex="0040"/>
  <outline>
    <contour>
      <point x="1183.1136363636365" y="-460.0" type="curve" smooth="yes"/>
      <point x="1356.25" y="-460.0"/>
      <point x="1524.909090909091" y="-441.59090909090907"/>
      <point x="1688.7727272727275" y="-405.72727272727275" type="curve"/>
      <point x="1688.7727272727275" y="-162.40909090909093" type="line"/>
      <point x="1520.25" y="-198.88636363636363"/>
      <point x="1355.7727272727273" y="-216.95454545454544"/>
      <point x="1183.1136363636365" y="-216.95454545454544" type="curve" smooth="yes"/>
      <point x="612.0681818181818" y="-216.95454545454544"/>
      <point x="367.1136363636364" y="-12.75"/>
      <point x="367.1136363636364" y="520.5454545454545" type="curve" smooth="yes"/>
      <point x="367.1136363636364" y="1051.659090909091"/>
      <point x="611.6590909090909" y="1254.9545454545455"/>
      <point x="1142.8636363636365" y="1254.9545454545455" type="curve" smooth="yes"/>
      <point x="1675.159090909091" y="1254.9545454545455"/>
      <point x="1919.318181818182" y="1059.3863636363637"/>
      <point x="1923.6363636363635" y="576.4545454545455" type="curve" smooth="yes"/>
      <point x="1926.659090909091" y="284.6590909090909"/>
      <point x="1860.4772727272727" y="219.0"/>
      <point x="1772.5227272727273" y="219.0" type="curve" smooth="yes"/>
      <point x="1713.1818181818182" y="219.0"/>
      <point x="1676.9318181818182" y="249.9318181818182"/>
      <point x="1676.9318181818182" y="329.27272727272725" type="curve" smooth="yes"/>
      <point x="1676.9318181818182" y="610.5" type="line" smooth="yes"/>
      <point x="1676.9318181818182" y="973.1363636363636"/>
      <point x="1507.2954545454545" y="1097.7272727272727"/>
      <point x="1115.3636363636365" y="1097.7272727272727" type="curve" smooth="yes"/>
      <point x="989.5909090909091" y="1097.7272727272727"/>
      <point x="848.6363636363636" y="1077.2045454545455"/>
      <point x="731.2045454545455" y="1039.75" type="curve"/>
      <point x="730.340909090909" y="756.2727272727273" type="line"/>
      <point x="829.25" y="790.5909090909091"/>
      <point x="951.9772727272727" y="810.2045454545455"/>
      <point x="1044.6818181818182" y="810.2045454545455" type="curve" smooth="yes"/>
      <point x="1228.3636363636365" y="810.2045454545455"/>
      <point x="1292.840909090909" y="762.5681818181818"/>
      <point x="1292.840909090909" y="627.2045454545455" type="curve" smooth="yes"/>
      <point x="1292.840909090909" y="288.95454545454544" type="line"/>
      <point x="1253.6363636363637" y="257.4545454545455"/>
      <point x="1178.6136363636363" y="242.5909090909091"/>
      <point x="1136.340909090909" y="242.5909090909091" type="curve" smooth="yes"/>
      <point x="1062.090909090909" y="242.5909090909091"/>
      <point x="1003.3409090909091" y="271.7045454545455"/>
      <point x="1003.3409090909091" y="342.8863636363636" type="curve" smooth="yes"/>
      <point x="1003.3409090909091" y="416.6363636363636"/>
      <point x="1050.409090909091" y="447.75"/>
      <point x="1154.0454545454545" y="455.8409090909091" type="curve" smooth="yes"/>
      <point x="1394.840909090909" y="472.8409090909091" type="line"/>
      <point x="1355.7954545454545" y="671.8409090909091" type="line"/>
      <point x="1117.840909090909" y="654.8409090909091" type="line" smooth="yes"/>
      <point x="766.0681818181819" y="632.1136363636364"/>
      <point x="615.8409090909091" y="514.5909090909091"/>
      <point x="615.8409090909091" y="304.6363636363636" type="curve" smooth="yes"/>
      <point x="615.8409090909091" y="110.81818181818181"/>
      <point x="752.5" y="-21.18181818181818"/>
      <point x="1007.0227272727273" y="-21.18181818181818" type="curve" smooth="yes"/>
      <point x="1135.2727272727273" y="-21.18181818181818"/>
      <point x="1256.1818181818182" y="17.81818181818182"/>
      <point x="1303.1363636363637" y="131.45454545454547" type="curve"/>
      <point x="1323.8636363636365" y="131.45454545454547" type="line"/>
      <point x="1393.2954545454545" y="28.113636363636363"/>
      <point x="1511.6136363636365" y="-21.18181818181818"/>
      <point x="1677.409090909091" y="-21.18181818181818" type="curve" smooth="yes"/>
      <point x="1981.7272727272727" y="-21.18181818181818"/>
      <point x="2185.75" y="141.22727272727272"/>
      <point x="2185.9545454545455" y="584.1818181818181" type="curve" smooth="yes"/>
      <point x="2186.159090909091" y="1192.0227272727273"/>
      <point x="1816.1136363636365" y="1498.0"/>
      <point x="1142.8636363636365" y="1498.0" type="curve" smooth="yes"/>
      <point x="471.04545454545456" y="1498.0"/>
      <point x="83.52272727272728" y="1192.0227272727273"/>
      <point x="83.52272727272728" y="520.0" type="curve" smooth="yes"/>
      <point x="83.52272727272728" y="-152.70454545454544"/>
      <point x="471.3863636363636" y="-459.79545454545456"/>
    </contour>
  </outline>
</glyph>
<glyph name="B" format="2">
  <advance width="1428.409090909091"/>
  <unicode hex="0042"/>
  <anchor x="736.4772727272727" y="0.0" name="bottom"/>
  <anchor x="736.4772727272727" y="1480.0" name="top"/>
  <outline>
    <contour>
      <point x="587.6818181818182" y="-18.636363636363637" type="curve" smooth="yes"/>
      <point x="1177.5681818181818" y="-18.636363636363637"/>
      <point x="1375.818181818182" y="146.9090909090909"/>
      <point x="1375.818181818182" y="422.97727272727275" type="curve" smooth="yes"/>
      <point x="1375.818181818182" y="629.8863636363636"/>
      <point x="1251.840909090909" y="741.4090909090909"/>
      <point x="1077.7954545454545" y="768.3409090909091" type="curve"/>
      <point x="1077.1818181818182" y="755.8636363636364" type="line"/>
      <point x="1233.25" y="788.7954545454545"/>
      <point x="1336.2045454545455" y="914.5454545454545"/>
      <point x="1336.2045454545455" y="1077.7727272727273" type="curve" smooth="yes"/>
      <point x="1336.2045454545455" y="1353.5454545454545"/>
      <point x="1137.3636363636365" y="1499.1818181818182"/>
      <point x="658.8181818181818" y="1499.1818181818182" type="curve" smooth="yes"/>
      <point x="486.7954545454545" y="1499.1818181818182"/>
      <point x="279.8409090909091" y="1473.7954545454545"/>
      <point x="130.88636363636363" y="1439.2954545454545" type="curve"/>
      <point x="130.88636363636363" y="12.568181818181818" type="line"/>
      <point x="265.5681818181818" y="-5.795454545454545"/>
      <point x="458.3636363636364" y="-18.636363636363637"/>
    </contour>
    <contour>
      <point x="697.6363636363636" y="262.40909090909093" type="curve" smooth="yes"/>
      <point x="640.0" y="262.40909090909093"/>
      <point x="588.2727272727273" y="263.52272727272725"/>
      <point x="523.1818181818182" y="270.1818181818182" type="curve"/>
      <point x="523.1818181818182" y="1200.409090909091" type="line"/>
      <point x="578.5681818181818" y="1210.8636363636365"/>
      <point x="641.1136363636364" y="1218.1363636363635"/>
      <point x="708.1136363636364" y="1218.1363636363635" type="curve" smooth="yes"/>
      <point x="896.2272727272727" y="1218.1363636363635"/>
      <point x="961.1136363636364" y="1168.090909090909"/>
      <point x="961.1136363636364" y="1058.7727272727273" type="curve" smooth="yes"/>
      <point x="961.1136363636364" y="952.9545454545455"/>
      <point x="898.4318181818181" y="899.3636363636364"/>
      <point x="723.7954545454545" y="899.3636363636364" type="curve" smooth="yes"/>
      <point x="480.4090909090909" y="899.3636363636364" type="line"/>
      <point x="480.4090909090909" y="611.8409090909091" type="line"/>
      <point x="758.1136363636364" y="611.8409090909091" type="line" smooth="yes"/>
      <point x="943.0454545454545" y="611.8409090909091"/>
      <point x="1009.5909090909091" y="558.1363636363636"/>
      <point x="1009.5909090909091" y="437.5" type="curve" smooth="yes"/>
      <point x="1009.5909090909091" y="321.6363636363636"/>
      <point x="940.5681818181818" y="262.40909090909093"/>
    </contour>
  </outline>
</glyph>
<glyph name="F" format="2">
  <advance width="1343.409090909091"/>
  <unicode hex="0046"/>
  <outline>
    <contour>
      <point x="130.88636363636363" y="0.0" type="line"/>
      <point x="533.1136363636364" y="0.0" type="line"/>
      <point x="533.1136363636364" y="1164.840909090909" type="line"/>
      <point x="1285.6136363636365" y="1164.840909090909" type="line"/>
      <point x="1285.6136363636365" y="1480.0" type="line"/>
      <point x="130.88636363636363" y="1480.0" type="line"/>
    </contour>
    <contour>
      <point x="367.5" y="556.1363636363636" type="line"/>
      <point x="1178.6136363636365" y="556.1363636363636" type="line"/>
      <point x="1178.6136363636365" y="871.2954545454545" type="line"/>
      <point x="367.5" y="871.2954545454545" type="line"/>
    </contour>
  </outline>
</glyph>
<glyph name="I" format="2">
  <advance width="664.0"/>
  <unicode hex="0049"/>
  <anchor x="330.7045454545455" y="0.0" name="bottom"/>
  <anchor x="533.1136363636364" y="0.0" name="ogonek"/>
  <anchor x="332.0" y="1520.0" name="top"/>
  <outline>
    <contour>
      <point x="130.88636363636363" y="0.0" type="line"/>
      <point x="533.1136363636364" y="0.0" type="line"/>
      <point x="533.1136363636364" y="1480.0" type="line"/>
      <point x="130.88636363636363" y="1480.0" type="line"/>
    </contour>
  </outline>
</glyph>
<glyph name="J" format="2">
  <advance width="664.0"/>
  <unicode hex="004A"/>
  <anchor x="541.0227272727273" y="0.0" name="bottom"/>
  <anchor x="333.29545454545456" y="1520.0" name="top"/>
  <outline>
    <contour>
      <point x="232.6590909090909" y="-353.8181818181818" type="line"/>
      <point x="455.54545454545456" y="-138.95454545454547"/>
      <point x="531.4090909090909" y="62.590909090909086"/>
      <point x="533.1136363636364" y="309.79545454545456" type="curve"/>
      <point x="533.1136363636364" y="1480.0" type="line"/>
      <point x="133.47727272727272" y="1480.0" type="line"/>
      <point x="133.47727272727272" y="300.6818181818182" type="line" smooth="yes"/>
      <point x="133.47727272727272" y="90.72727272727273"/>
      <point x="95.22727272727272" y="-42.09090909090908"/>
      <point x="-18.363636363636363" y="-185.75" type="curve"/>
    </contour>
  </outline>
</glyph>
<glyph name="K" format="2">
  <advance width="1439.75"/>
  <unicode hex="004B"/>
  <anchor x="756.1136363636364" y="0.0" name="bottom"/>
  <anchor x="749.6363636363636" y="1480.0" name="top"/>
  <outline>
    <contour>
      <point x="1051.7272727272727" y="0.0" type="line"/>
      <point x="1488.0" y="0.0" type="line"/>
      <point x="938.0" y="807.6818181818181" type="line"/>
      <point x="929.3636363636363" y="709.4090909090909" type="line"/>
      <point x="1442.1136363636365" y="1480.0" type="line"/>
      <point x="1020.3636363636364" y="1480.0" type="line"/>
      <point x="536.6136363636364" y="753.6818181818181" type="line"/>
    </contour>
    <contour>
      <point x="130.88636363636363" y="0.0" type="line"/>
      <point x="533.1136363636364" y="0.0" type="line"/>
      <point x="533.1136363636364" y="1480.0" type="line"/>
      <point x="130.88636363636363" y="1480.0" type="line"/>
    </contour>
    <contour>
      <point x="478.25" y="582.4772727272727" type="line"/>
      <point x="695.6136363636364" y="582.4772727272727" type="line"/>
      <point x="695.6136363636364" y="929.0909090909091" type="line"/>
      <point x="478.25" y="929.0909090909091" type="line"/>
    </contour>
  </outline>
</glyph>
<glyph name="M" format="2">
  <advance width="2027.0"/>
  <unicode hex="004D"/>
  <anchor x="1039.840909090909" y="0.0" name="bottom"/>
  <anchor x="1039.840909090909" y="1480.0" name="top"/>
  <outline>
    <contour>
      <point x="134.88636363636363" y="0.0" type="line"/>
      <point x="510.0681818181818" y="0.0" type="line"/>
      <point x="510.0681818181818" y="1143.1818181818182" type="line"/>
      <point x="414.5" y="1143.1818181818182" type="line"/>
      <point x="848.5454545454545" y="217.27272727272728" type="line"/>
      <point x="1178.4545454545455" y="217.27272727272728" type="line"/>
      <point x="1593.659090909091" y="1143.1818181818182" type="line"/>
      <point x="1516.9318181818182" y="1143.1818181818182" type="line"/>
      <point x="1516.9318181818182" y="0.0" type="line"/>
      <point x="1892.1136363636365" y="0.0" type="line"/>
      <point x="1892.1136363636365" y="1480.0" type="line"/>
      <point x="1403.0681818181818" y="1480.0" type="line"/>
      <point x="996.9090909090909" y="562.7727272727273" type="line"/>
      <point x="1042.7272727272727" y="562.7727272727273" type="line"/>
      <point x="623.9318181818182" y="1480.0" type="line"/>
      <point x="134.88636363636363" y="1480.0" type="line"/>
    </contour>
  </outline>
</glyph>
<glyph name="N" format="2">
  <advance width="1673.25"/>
  <unicode hex="004E"/>
  <anchor x="836.7272727272727" y="0.0" name="bottom"/>
  <anchor x="836.7272727272727" y="1520.0" name="top"/>
  <outline>
    <contour>
      <point x="130.88636363636363" y="0.0" type="line"/>
      <point x="509.0909090909091" y="0.0" type="line"/>
      <point x="509.0909090909091" y="999.4090909090909" type="line"/>
      <point x="444.47727272727275" y="999.4090909090909" type="line"/>
      <point x="1139.6818181818182" y="0.0" type="line"/>
      <point x="1542.3636363636365" y="0.0" type="line"/>
      <point x="1542.3636363636365" y="1480.0" type="line"/>
      <point x="1164.159090909091" y="1480.0" type="line"/>
      <point x="1164.159090909091" y="480.5909090909091" type="line"/>
      <point x="1228.7727272727273" y="480.5909090909091" type="line"/>
      <point x="533.5681818181818" y="1480.0" type="line"/>
      <point x="130.88636363636363" y="1480.0" type="line"/>
    </contour>
  </outline>
</glyph>
<glyph name="O" format="2">
  <advance width="1727.3636363636365"/>
  <unicode hex="004F"/>
  <anchor x="863.6818181818182" y="0.0" name="bottom"/>
  <anchor x="863.6818181818182" y="740.0" name="center"/>
  <anchor x="1030.659090909091" y="0.0" name="ogonek"/>
  <anchor x="863.6818181818182" y="1520.0" name="top"/>
  <anchor x="54.34090909090909" y="1480.0" name="topleft"/>
  <anchor x="1075.3636363636365" y="1480.0" name="topright"/>
  <outline>
    <contour>
      <point x="863.6818181818182" y="-19.727272727272727" type="curve" smooth="yes"/>
      <point x="1340.159090909091" y="-19.727272727272727"/>
      <point x="1643.840909090909" y="249.0"/>
      <point x="1643.840909090909" y="740.0" type="curve" smooth="yes"/>
      <point x="1643.840909090909" y="1231.0"/>
      <point x="1342.068181818182" y="1499.7272727272727"/>
      <point x="863.6818181818182" y="1499.7272727272727" type="curve" smooth="yes"/>
      <point x="385.9090909090909" y="1499.7272727272727"/>
      <point x="83.52272727272728" y="1233.590909090909"/>
      <point x="83.52272727272728" y="740.0" type="curve" smooth="yes"/>
      <point x="83.52272727272728" y="246.4090909090909"/>
      <point x="386.5909090909091" y="-19.727272727272727"/>
    </contour>
    <contour>
      <point x="863.6818181818182" y="297.79545454545456" type="curve" smooth="yes"/>
      <point x="627.8636363636364" y="297.79545454545456"/>
      <point x="494.0681818181818" y="432.0681818181818"/>
      <point x="494.0681818181818" y="747.4545454545455" type="curve" smooth="yes"/>
      <point x="494.0681818181818" y="1047.9318181818182"/>
      <point x="631.75" y="1182.2045454545455"/>
      <point x="863.6818181818182" y="1182.2045454545455" type="curve" smooth="yes"/>
      <point x="1095.6136363636365" y="1182.2045454545455"/>
      <point x="1233.2954545454545" y="1044.0454545454545"/>
      <point x="1233.2954545454545" y="732.5454545454545" type="curve" smooth="yes"/>
      <point x="1233.2954545454545" y="435.95454545454544"/>
      <point x="1099.5" y="297.79545454545456"/>
    </contour>
  </outline>
</glyph>
<glyph name="P" format="2">
  <advance width="1423.0227272727273"/>
  <unicode hex="0050"/>
  <outline>
    <contour>
      <point x="130.88636363636363" y="0.0" type="line"/>
      <point x="533.1136363636364" y="0.0" type="line"/>
      <point x="533.1136363636364" y="410.45454545454544" type="line"/>
      <point x="577.2727272727273" y="409.22727272727275"/>
      <point x="620.2045454545455" y="407.02272727272725"/>
      <point x="667.5454545454545" y="407.02272727272725" type="curve" smooth="yes"/>
      <point x="1116.0227272727273" y="407.02272727272725"/>
      <point x="1348.590909090909" y="592.4545454545455"/>
      <point x="1348.590909090909" y="953.2272727272727" type="curve" smooth="yes"/>
      <point x="1348.590909090909" y="1331.9772727272727"/>
      <point x="1109.6818181818182" y="1499.1818181818182"/>
      <point x="630.0227272727273" y="1499.1818181818182" type="curve" smooth="yes"/>
      <point x="445.3409090909091" y="1499.1818181818182"/>
      <point x="283.72727272727275" y="1480.2727272727273"/>
      <point x="130.88636363636363" y="1451.0227272727273" type="curve"/>
    </contour>
    <contour>
      <point x="671.2045454545455" y="694.9772727272727" type="curve" smooth="yes"/>
      <point x="618.7272727272727" y="694.9772727272727"/>
      <point x="580.2272727272727" y="697.3863636363636"/>
      <point x="533.1136363636364" y="703.6363636363636" type="curve"/>
      <point x="533.1136363636364" y="1200.909090909091" type="line"/>
      <point x="575.5454545454545" y="1208.2727272727273"/>
      <point x="615.2045454545455" y="1211.2272727272727"/>
      <point x="668.0227272727273" y="1211.2272727272727" type="curve" smooth="yes"/>
      <point x="868.4318181818182" y="1211.2272727272727"/>
      <point x="960.0681818181818" y="1134.1818181818182"/>
      <point x="960.0681818181818" y="952.0227272727273" type="curve" smooth="yes"/>
      <point x="960.0681818181818" y="765.4318181818181"/>
      <point x="869.9318181818182" y="694.9772727272727"/>
    </contour>
  </outline>
</glyph>
<glyph name="Q" format="2">
  <advance width="1727.3636363636365"/>
  <unicode hex="0051"/>
  <outline>
    <contour>
      <point x="1566.909090909091" y="-356.1818181818182" type="curve"/>
      <point x="1629.4545454545455" y="-51.81818181818182" type="line"/>
      <point x="1361.2954545454545" y="-19.772727272727266"/>
      <point x="1107.6136363636365" y="31.181818181818187"/>
      <point x="860.6818181818182" y="120.52272727272728" type="curve"/>
      <point x="727.7727272727273" y="24.38636363636364" type="line"/>
      <point x="1347.6818181818182" y="-53.97727272727273"/>
      <point x="1643.840909090909" y="252.77272727272728"/>
      <point x="1643.840909090909" y="740.0" type="curve" smooth="yes"/>
      <point x="1643.840909090909" y="1232.2272727272727"/>
      <point x="1341.4545454545455" y="1499.7272727272727"/>
      <point x="863.6818181818182" y="1499.7272727272727" type="curve" smooth="yes"/>
      <point x="385.9090909090909" y="1499.7272727272727"/>
      <point x="83.52272727272728" y="1233.590909090909"/>
      <point x="83.52272727272728" y="727.0454545454545" type="curve" smooth="yes"/>
      <point x="83.52272727272728" y="203.4318181818182"/>
      <point x="400.3863636363636" y="-184.0909090909091"/>
    </contour>
    <contour>
      <point x="863.6818181818182" y="297.79545454545456" type="curve" smooth="yes"/>
      <point x="625.2727272727273" y="297.79545454545456"/>
      <point x="494.0681818181818" y="429.47727272727275"/>
      <point x="494.0681818181818" y="747.4545454545455" type="curve" smooth="yes"/>
      <point x="494.0681818181818" y="1047.9318181818182"/>
      <point x="631.75" y="1182.2045454545455"/>
      <point x="863.6818181818182" y="1182.2045454545455" type="curve" smooth="yes"/>
      <point x="1095.6136363636365" y="1182.2045454545455"/>
      <point x="1233.2954545454545" y="1044.0454545454545"/>
      <point x="1233.2954545454545" y="732.5454545454545" type="curve" smooth="yes"/>
      <point x="1233.2954545454545" y="435.95454545454544"/>
      <point x="1099.5" y="297.79545454545456"/>
    </contour>
  </outline>
</glyph>
<glyph name="T" format="2">
  <advance width="1409.0227272727273"/>
  <unicode hex="0054"/>
  <anchor x="704.7272727272727" y="0.0" name="bottom"/>
  <anchor x="704.7272727272727" y="713.6363636363636" name="center"/>
  <anchor x="704.7272727272727" y="1520.0" name="top"/>
  <outline>
    <contour>
      <point x="503.1818181818182" y="0.0" type="line"/>
      <point x="905.8409090909091" y="0.0" type="line"/>
      <point x="905.8409090909091" y="1157.9318181818182" type="line"/>
      <point x="1391.590909090909" y="1157.9318181818182" type="line"/>
      <point x="1391.590909090909" y="1480.0" type="line"/>
      <point x="17.43181818181818" y="1480.0" type="line"/>
      <point x="17.43181818181818" y="1157.9318181818182" type="line"/>
      <point x="503.1818181818182" y="1157.9318181818182" type="line"/>
    </contour>
  </outline>
</glyph>
<glyph name="U" format="2">
  <advance width="1625.25"/>
  <unicode hex="0055"/>
  <anchor x="816.4318181818182" y="0.0" name="bottom"/>
  <anchor x="1057.5227272727273" y="0.40909090909090917" name="ogonek"/>
  <anchor x="816.4318181818182" y="1520.0" name="top"/>
  <anchor x="1120.2727272727273" y="1480.0" name="topright"/>
  <outline>
    <contour>
      <point x="816.4318181818182" y="-19.727272727272727" type="curve" smooth="yes"/>
      <point x="1294.931818181818" y="-19.727272727272727"/>
      <point x="1500.6363636363635" y="214.1818181818182"/>
      <point x="1500.6363636363635" y="654.5909090909091" type="curve" smooth="yes"/>
      <point x="1500.6363636363635" y="1480.0" type="line"/>
      <point x="1105.590909090909" y="1480.0" type="line"/>
      <point x="1105.590909090909" y="619.1136363636364" type="line" smooth="yes"/>
      <point x="1105.590909090909" y="398.0909090909091"/>
      <point x="1008.9545454545455" y="303.6363636363636"/>
      <point x="816.4318181818182" y="303.6363636363636" type="curve" smooth="yes"/>
      <point x="623.9090909090909" y="303.6363636363636"/>
      <point x="526.840909090909" y="398.0909090909091"/>
      <point x="526.840909090909" y="619.1136363636364" type="curve" smooth="yes"/>
      <point x="526.840909090909" y="1480.0" type="line"/>
      <point x="124.61363636363637" y="1480.0" type="line"/>
      <point x="124.61363636363637" y="654.5909090909091" type="line" smooth="yes"/>
      <point x="124.61363636363637" y="214.1818181818182"/>
      <point x="330.5909090909091" y="-19.727272727272727"/>
    </contour>
  </outline>
</glyph>
<glyph name="V" format="2">
  <advance width="1583.409090909091"/>
  <unicode hex="0056"/>
  <outline>
    <contour>
      <point x="497.70454545454544" y="0.0" type="line"/>
      <point x="1085.7045454545455" y="0.0" type="line"/>
      <point x="1580.6136363636365" y="1480.0" type="line"/>
      <point x="1186.9772727272727" y="1480.0" type="line"/>
      <point x="756.4090909090909" y="164.79545454545456" type="line"/>
      <point x="847.5454545454545" y="164.79545454545456" type="line"/>
      <point x="425.04545454545456" y="1480.0" type="line"/>
      <point x="2.795454545454543" y="1480.0" type="line"/>
    </contour>
  </outline>
</glyph>
<glyph name="W" format="2">
  <advance width="2510.3863636363635"/>
  <unicode hex="0057"/>
  <anchor x="1255.3636363636365" y="0.0" name="bottom"/>
  <anchor x="1255.3636363636365" y="1520.0" name="top"/>
  <outline>
    <contour>
      <point x="441.4318181818182" y="0.0" type="line"/>
      <point x="952.5681818181819" y="0.0" type="line"/>
      <point x="1316.409090909091" y="1255.090909090909" type="line"/>
      <point x="1208.090909090909" y="1255.090909090909" type="line"/>
      <point x="1557.8181818181818" y="0.0" type="line"/>
      <point x="2068.9545454545455" y="0.0" type="line"/>
      <point x="2483.477272727273" y="1480.0" type="line"/>
      <point x="2102.2045454545455" y="1480.0" type="line"/>
      <point x="1754.1363636363635" y="188.11363636363637" type="line"/>
      <point x="1838.7954545454545" y="188.11363636363637" type="line"/>
      <point x="1486.6136363636365" y="1480.0" type="line"/>
      <point x="1045.4318181818182" y="1480.0" type="line"/>
      <point x="677.4772727272727" y="188.11363636363637" type="line"/>
      <point x="772.9318181818182" y="188.11363636363637" type="line"/>
      <point x="432.70454545454544" y="1480.0" type="line"/>
      <point x="26.704545454545457" y="1480.0" type="line"/>
    </contour>
  </outline>
</glyph>
<glyph name="X" format="2">
  <advance width="1486.2954545454545"/>
  <unicode hex="0058"/>
  <outline>
    <contour>
      <point x="1090.409090909091" y="0.0" type="line"/>
      <point x="1535.5227272727273" y="0.0" type="line"/>
      <point x="976.590909090909" y="776.5" type="line"/>
      <point x="744.2272727272727" y="1049.7045454545455" type="line"/>
      <point x="437.1363636363637" y="1480.0" type="line"/>
      <point x="-9.204545454545453" y="1480.0" type="line"/>
      <point x="505.1818181818182" y="770.6818181818181" type="line"/>
      <point x="737.5454545454545" y="498.7045454545455" type="line"/>
    </contour>
    <contour>
      <point x="-50.29545454545455" y="0.0" type="line"/>
      <point x="385.47727272727275" y="0.0" type="line"/>
      <point x="737.5454545454545" y="498.7045454545455" type="line"/>
      <point x="976.590909090909" y="776.5" type="line"/>
      <point x="1482.7727272727273" y="1480.0" type="line"/>
      <point x="1050.2272727272727" y="1480.0" type="line"/>
      <point x="744.2272727272727" y="1049.7045454545455" type="line"/>
      <point x="505.1818181818182" y="770.6818181818181" type="line"/>
    </contour>
  </outline>
</glyph>
<glyph name="Z" format="2">
  <advance width="1360.8636363636363"/>
  <unicode hex="005A"/>
  <anchor x="679.8181818181818" y="0.0" name="bottom"/>
  <anchor x="681.5454545454545" y="1520.0" name="top"/>
  <outline>
    <contour>
      <point x="70.38636363636364" y="0.0" type="line"/>
      <point x="1290.4772727272727" y="0.0" type="line"/>
      <point x="1290.4772727272727" y="321.79545454545456" type="line"/>
      <point x="533.3636363636364" y="321.79545454545456" type="line"/>
      <point x="535.1363636363636" y="247.20454545454547" type="line"/>
      <point x="1280.0681818181818" y="1262.5227272727273" type="line"/>
      <point x="1280.0681818181818" y="1480.0" type="line"/>
      <point x="80.79545454545455" y="1480.0" type="line"/>
      <point x="80.79545454545455" y="1158.2045454545455" type="line"/>
      <point x="817.0909090909091" y="1158.2045454545455" type="line"/>
      <point x="815.3181818181818" y="1232.7954545454545" type="line"/>
      <point x="70.38636363636364" y="217.47727272727275" type="line"/>
    </contour>
  </outline>
</glyph>
<glyph name="bracketleft" format="2">
  <advance width="776.5454545454545"/>
  <unicode hex="005B"/>
  <outline>
    <contour>
      <point x="150.88636363636363" y="-440.0" type="line"/>
      <point x="789.7727272727273" y="-440.0" type="line"/>
      <point x="789.7727272727273" y="-133.3181818181818" type="line"/>
      <point x="544.0454545454545" y="-133.3181818181818" type="line"/>
      <point x="544.0454545454545" y="1309.3181818181818" type="line"/>
      <point x="802.7272727272727" y="1309.3181818181818" type="line"/>
      <point x="802.7272727272727" y="1616.0" type="line"/>
      <point x="150.88636363636363" y="1616.0" type="line"/>
    </contour>
  </outline>
</glyph>
<glyph name="backslash" format="2">
  <advance width="924.8636363636364"/>
  <unicode hex="005C"/>
  <outline>
    <contour>
      <point x="533.3863636363636" y="-240.0" type="line"/>
      <point x="924.8636363636364" y="-240.0" type="line"/>
      <point x="391.47727272727275" y="1616.0" type="line"/>
      <point x="0.0" y="1616.0" type="line"/>
    </contour>
  </outline>
</glyph>
<glyph name="bracketright" format="2">
  <advance width="776.5454545454545"/>
  <unicode hex="005D"/>
  <outline>
    <contour>
      <point x="-13.227272727272727" y="-440.0" type="line"/>
      <point x="625.659090909091" y="-440.0" type="line"/>
      <point x="625.659090909091" y="1616.0" type="line"/>
      <point x="-26.18181818181818" y="1616.0" type="line"/>
      <point x="-26.18181818181818" y="1309.3181818181818" type="line"/>
      <point x="232.5" y="1309.3181818181818" type="line"/>
      <point x="232.5" y="-133.3181818181818" type="line"/>
      <point x="-13.227272727272727" y="-133.3181818181818" type="line"/>
    </contour>
  </outline>
</glyph>
<glyph name="underscore" format="2">
  <advance width="1329.2272727272727"/>
  <unicode hex="005F"/>
  <outline>
    <contour>
      <point x="88.86363636363636" y="-307.97727272727275" type="line"/>
      <point x="1240.3636363636365" y="-307.97727272727275" type="line"/>
      <point x="1240.3636363636365" y="-1.2954545454545454" type="line"/>
      <point x="88.86363636363636" y="-1.2954545454545454" type="line"/>
    </contour>
  </outline>
</glyph>
<glyph name="grave" format="2">
  <advance width="1186.3636363636365"/>
  <unicode hex="0060"/>
  <anchor x="593.1818181818182" y="1200.0" name="_top"/>
  <anchor x="593.1818181818182" y="1642.3636363636363" name="top"/>
  <outline>
    <contour>
      <point x="409.77272727272725" y="1226.0" type="line"/>
      <point x="776.590909090909" y="1226.0" type="line"/>
      <point x="532.1136363636364" y="1616.0" type="line"/>
      <point x="108.25" y="1616.0" type="line"/>
    </contour>
  </outline>
</glyph>
<glyph name="b" format="2">
  <advance width="1360.2272727272727"/>
  <unicode hex="0062"/>
  <anchor x="683.2272727272727" y="0.0" name="bottom"/>
  <anchor x="313.72727272727275" y="1616.0" name="top"/>
  <outline>
    <contour>
      <point x="607.7045454545455" y="-21.022727272727273" type="curve" smooth="yes"/>
      <point x="1065.659090909091" y="-21.454545454545453"/>
      <point x="1292.75" y="189.52272727272728"/>
      <point x="1292.75" y="574.25" type="curve" smooth="yes"/>
      <point x="1292.75" y="943.7727272727273"/>
      <point x="1080.75" y="1115.0"/>
      <point x="832.0681818181818" y="1115.0" type="curve" smooth="yes"/>
      <point x="702.6136363636364" y="1115.0"/>
      <point x="600.3636363636364" y="1072.75"/>
      <point x="527.75" y="995.6363636363636" type="curve"/>
      <point x="510.09090909090907" y="995.6363636363636" type="line"/>
      <point x="510.09090909090907" y="1616.0" type="line"/>
      <point x="116.93181818181819" y="1616.0" type="line"/>
      <point x="116.93181818181819" y="46.00000000000001" type="line"/>
      <point x="266.02272727272725" y="-1.2045454545454546"/>
      <point x="444.9318181818182" y="-21.022727272727273"/>
    </contour>
    <contour>
      <point x="642.6363636363636" y="271.25" type="curve" smooth="yes"/>
      <point x="592.2045454545455" y="271.25"/>
      <point x="545.590909090909" y="277.54545454545456"/>
      <point x="510.09090909090907" y="286.25" type="curve"/>
      <point x="510.09090909090907" y="750.7727272727273" type="line"/>
      <point x="559.25" y="784.8863636363636"/>
      <point x="623.1363636363636" y="800.2727272727273"/>
      <point x="684.2727272727273" y="800.2727272727273" type="curve" smooth="yes"/>
      <point x="816.8409090909091" y="800.2727272727273"/>
      <point x="901.2045454545455" y="737.2954545454545"/>
      <point x="901.2045454545455" y="545.0909090909091" type="curve" smooth="yes"/>
      <point x="901.2045454545455" y="353.0"/>
      <point x="816.25" y="271.25"/>
    </contour>
  </outline>
</glyph>
<glyph name="f" format="2">
  <advance width="892.659090909091"/>
  <unicode hex="0066"/>
  <outline>
    <contour>
      <point x="214.8181818181818" y="0.0" type="line"/>
      <point x="606.6818181818182" y="0.0" type="line"/>
      <point x="606.6818181818182" y="1146.7954545454545" type="line" smooth="yes"/>
      <point x="606.6818181818182" y="1270.2045454545455"/>
      <point x="673.3863636363636" y="1330.7727272727273"/>
      <point x="831.1590909090909" y="1330.7727272727273" type="curve" smooth="yes"/>
      <point x="868.1363636363636" y="1330.7727272727273"/>
      <point x="901.7727272727273" y="1328.2954545454545"/>
      <point x="941.5454545454545" y="1323.5454545454545" type="curve"/>
      <point x="941.5454545454545" y="1623.8636363636363" type="line"/>
      <point x="882.8181818181818" y="1631.8636363636363"/>
      <point x="833.8636363636364" y="1636.0"/>
      <point x="766.5" y="1636.0" type="curve" smooth="yes"/>
      <point x="414.9090909090909" y="1636.0"/>
      <point x="214.8181818181818" y="1443.0227272727273"/>
      <point x="214.8181818181818" y="1131.3636363636363" type="curve" smooth="yes"/>
    </contour>
    <contour>
      <point x="36.63636363636364" y="790.590909090909" type="line"/>
      <point x="890.5454545454545" y="790.590909090909" type="line"/>
      <point x="890.5454545454545" y="1097.2727272727273" type="line"/>
      <point x="36.63636363636364" y="1097.2727272727273" type="line"/>
    </contour>
  </outline>
</glyph>
<glyph name="j" format="2">
  <advance width="627.4545454545455"/>
  <unicode hex="006A"/>
  <anchor x="307.25" y="1201.2272727272727" name="_top"/>
  <anchor x="307.25" y="1201.2272727272727" name="top"/>
  <outline>
    <contour>
      <point x="213.52272727272728" y="-473.8181818181818" type="line"/>
      <point x="433.3863636363636" y="-258.95454545454544"/>
      <point x="510.52272727272725" y="-57.95454545454545"/>
      <point x="510.52272727272725" y="192.6590909090909" type="curve" smooth="yes"/>
      <point x="510.52272727272725" y="1097.2727272727273" type="line"/>
      <point x="116.93181818181819" y="1097.2727272727273" type="line"/>
      <point x="116.93181818181819" y="178.0909090909091" type="line" smooth="yes"/>
      <point x="116.93181818181819" y="-31.86363636363636"/>
      <point x="78.68181818181819" y="-164.6818181818182"/>
      <point x="-34.90909090909091" y="-308.3409090909091" type="curve"/>
    </contour>
    <contour>
      <point x="307.25" y="1229.090909090909" type="curve" smooth="yes"/>
      <point x="470.20454545454544" y="1229.090909090909"/>
      <point x="543.7045454545455" y="1297.1363636363637"/>
      <point x="543.7045454545455" y="1419.7727272727273" type="curve" smooth="yes"/>
      <point x="543.7045454545455" y="1542.409090909091"/>
      <point x="470.20454545454544" y="1610.7272727272727"/>
      <point x="307.25" y="1610.7272727272727" type="curve" smooth="yes"/>
      <point x="144.29545454545453" y="1610.7272727272727"/>
      <point x="70.79545454545455" y="1542.409090909091"/>
      <point x="70.79545454545455" y="1419.7727272727273" type="curve" smooth="yes"/>
      <point x="70.79545454545455" y="1297.1363636363637"/>
      <point x="144.29545454545453" y="1229.090909090909"/>
    </contour>
  </outline>
</glyph>
<glyph name="l" format="2">
  <advance width="627.0227272727273"/>
  <unicode hex="006C"/>
  <anchor x="312.4318181818182" y="0.0" name="bottom"/>
  <anchor x="609.8636363636364" y="1616.0" name="caronalt"/>
  <anchor x="792.2954545454545" y="794.0" name="periodcentered"/>
  <anchor x="313.72727272727275" y="714.0" name="slash"/>
  <anchor x="313.72727272727275" y="1616.0" name="top"/>
  <outline>
    <contour>
      <point x="116.93181818181819" y="0.0" type="line"/>
      <point x="510.09090909090907" y="0.0" type="line"/>
      <point x="510.09090909090907" y="1616.0" type="line"/>
      <point x="116.93181818181819" y="1616.0" type="line"/>
    </contour>
  </outline>
</glyph>
<glyph name="m" format="2">
  <advance width="1963.5227272727273"/>
  <unicode hex="006D"/>
  <anchor x="992.6136363636364" y="0.0" name="bottom"/>
  <anchor x="992.6136363636364" y="1200.0" name="top"/>
  <outline>
    <contour>
      <point x="116.93181818181819" y="0.0" type="line"/>
      <point x="510.09090909090907" y="0.0" type="line"/>
      <point x="510.09090909090907" y="708.5909090909091" type="line"/>
      <point x="547.6136363636364" y="756.1136363636364"/>
      <point x="608.5909090909091" y="783.4318181818182"/>
      <point x="674.8863636363636" y="783.4318181818182" type="curve" smooth="yes"/>
      <point x="754.2045454545455" y="783.4318181818182"/>
      <point x="799.2727272727273" y="744.6590909090909"/>
      <point x="799.2727272727273" y="622.6818181818182" type="curve" smooth="yes"/>
      <point x="799.2727272727273" y="0.0" type="line"/>
      <point x="1184.2272727272727" y="0.0" type="line"/>
      <point x="1184.2272727272727" y="653.5454545454545" type="line" smooth="yes"/>
      <point x="1184.2272727272727" y="981.75"/>
      <point x="1022.3409090909091" y="1115.0"/>
      <point x="802.7272727272727" y="1115.0" type="curve" smooth="yes"/>
      <point x="669.5227272727273" y="1115.0"/>
      <point x="559.8863636363636" y="1071.4772727272727"/>
      <point x="481.54545454545456" y="992.9090909090909" type="curve"/>
      <point x="464.04545454545456" y="992.9090909090909" type="line"/>
      <point x="439.04545454545456" y="1097.2727272727273" type="line"/>
      <point x="116.93181818181819" y="1097.2727272727273" type="line"/>
    </contour>
    <contour>
      <point x="1462.9545454545455" y="0.0" type="line"/>
      <point x="1854.818181818182" y="0.0" type="line"/>
      <point x="1854.818181818182" y="644.4772727272727" type="line" smooth="yes"/>
      <point x="1854.818181818182" y="980.8863636363636"/>
      <point x="1686.7045454545455" y="1115.0"/>
      <point x="1450.0681818181818" y="1115.0" type="curve" smooth="yes"/>
      <point x="1320.7272727272727" y="1115.0"/>
      <point x="1188.409090909091" y="1069.9545454545455"/>
      <point x="1080.5454545454545" y="956.0681818181818" type="curve"/>
      <point x="1160.8181818181818" y="704.0909090909091" type="line"/>
      <point x="1199.409090909091" y="756.1136363636364"/>
      <point x="1257.7045454545455" y="783.4318181818182"/>
      <point x="1331.7727272727273" y="783.4318181818182" type="curve" smooth="yes"/>
      <point x="1410.0" y="783.4318181818182"/>
      <point x="1462.9545454545455" y="744.6590909090909"/>
      <point x="1462.9545454545455" y="622.6818181818182" type="curve" smooth="yes"/>
    </contour>
  </outline>
</glyph>
<glyph name="p" format="2">
  <advance width="1360.2272727272727"/>
  <unicode hex="0070"/>
  <outline>
    <contour>
      <point x="116.93181818181819" y="-440.0" type="line"/>
      <point x="510.09090909090907" y="-440.0" type="line"/>
      <point x="510.09090909090907" y="-13.045454545454545" type="line"/>
      <point x="552.7727272727273" y="-17.068181818181817"/>
      <point x="603.8863636363636" y="-21.022727272727273"/>
      <point x="655.2954545454545" y="-21.022727272727273" type="curve" smooth="yes"/>
      <point x="1061.840909090909" y="-21.022727272727273"/>
      <point x="1292.75" y="193.8409090909091"/>
      <point x="1292.75" y="570.7954545454545" type="curve" smooth="yes"/>
      <point x="1292.75" y="955.8636363636364"/>
      <point x="1066.7272727272727" y="1115.0"/>
      <point x="800.8863636363636" y="1115.0" type="curve" smooth="yes"/>
      <point x="663.3181818181818" y="1115.0"/>
      <point x="556.9772727272727" y="1063.25"/>
      <point x="485.0" y="984.4545454545455" type="curve"/>
      <point x="467.70454545454544" y="984.4545454545455" type="line"/>
      <point x="445.52272727272725" y="1097.2727272727273" type="line"/>
      <point x="116.93181818181819" y="1097.2727272727273" type="line"/>
    </contour>
    <contour>
      <point x="640.659090909091" y="272.54545454545456" type="curve" smooth="yes"/>
      <point x="593.5" y="272.54545454545456"/>
      <point x="545.590909090909" y="278.2954545454545"/>
      <point x="510.09090909090907" y="284.9318181818182" type="curve"/>
      <point x="510.09090909090907" y="741.6363636363636" type="line"/>
      <point x="557.090909090909" y="783.1590909090909"/>
      <point x="624.2272727272727" y="800.7045454545455"/>
      <point x="687.2727272727273" y="800.7045454545455" type="curve" smooth="yes"/>
      <point x="815.5454545454545" y="800.7045454545455"/>
      <point x="901.2045454545455" y="737.7272727272727"/>
      <point x="901.2045454545455" y="542.9318181818181" type="curve" smooth="yes"/>
      <point x="901.2045454545455" y="354.2954545454545"/>
      <point x="816.25" y="272.54545454545456"/>
    </contour>
  </outline>
</glyph>
<glyph name="q" format="2">
  <advance width="1360.2272727272727"/>
  <unicode hex="0071"/>
  <outline>
    <contour>
      <point x="850.1363636363636" y="-440.0" type="line"/>
      <point x="1243.2954545454545" y="-440.0" type="line"/>
      <point x="1243.2954545454545" y="1047.9772727272727" type="line"/>
      <point x="1106.0" y="1091.2272727272727"/>
      <point x="915.2954545454545" y="1115.0"/>
      <point x="752.5227272727273" y="1115.0" type="curve" smooth="yes"/>
      <point x="294.5681818181818" y="1115.0"/>
      <point x="67.47727272727272" y="904.4545454545455"/>
      <point x="67.47727272727272" y="519.7272727272727" type="curve" smooth="yes"/>
      <point x="67.47727272727272" y="150.20454545454544"/>
      <point x="279.47727272727275" y="-21.022727272727273"/>
      <point x="528.1590909090909" y="-21.022727272727273" type="curve" smooth="yes"/>
      <point x="657.6136363636364" y="-21.022727272727273"/>
      <point x="759.8636363636364" y="21.227272727272727"/>
      <point x="832.4772727272727" y="98.3409090909091" type="curve"/>
      <point x="850.1363636363636" y="98.3409090909091" type="line"/>
    </contour>
    <contour>
      <point x="675.9545454545455" y="293.7045454545455" type="curve" smooth="yes"/>
      <point x="543.3863636363636" y="293.7045454545455"/>
      <point x="459.02272727272725" y="356.6818181818182"/>
      <point x="459.02272727272725" y="548.8863636363636" type="curve" smooth="yes"/>
      <point x="459.02272727272725" y="740.9772727272727"/>
      <point x="550.0227272727273" y="822.7272727272727"/>
      <point x="717.1590909090909" y="822.7272727272727" type="curve" smooth="yes"/>
      <point x="768.8863636363636" y="822.7272727272727"/>
      <point x="814.6363636363636" y="816.6363636363636"/>
      <point x="850.1363636363636" y="808.6363636363636" type="curve"/>
      <point x="850.1363636363636" y="343.2045454545455" type="line"/>
      <point x="800.9772727272727" y="309.0909090909091"/>
      <point x="736.6818181818182" y="293.7045454545455"/>
    </contour>
  </outline>
</glyph>
<glyph name="v" format="2">
  <advance width="1294.5227272727273"/>
  <unicode hex="0076"/>
  <anchor x="647.5" y="0.0" name="bottom"/>
  <anchor x="647.5" y="1200.0" name="top"/>
  <outline>
    <contour>
      <point x="405.6136363636364" y="0.0" type="line"/>
      <point x="887.6136363636364" y="0.0" type="line"/>
      <point x="1301.4545454545455" y="1097.2727272727273" type="line"/>
      <point x="916.8863636363636" y="1097.2727272727273" type="line"/>
      <point x="649.0681818181818" y="313.3636363636364" type="line"/>
      <point x="672.8409090909091" y="313.3636363636364" type="line"/>
      <point x="405.02272727272725" y="1097.2727272727273" type="line"/>
      <point x="-6.93181818181818" y="1097.2727272727273" type="line"/>
    </contour>
  </outline>
</glyph>
<glyph name="x" format="2">
  <advance width="1244.340909090909"/>
  <unicode hex="0078"/>
  <anchor x="622.4090909090909" y="0.0" name="bottom"/>
  <anchor x="622.8409090909091" y="1200.0" name="top"/>
  <outline>
    <contour>
      <point x="822.3636363636364" y="0.0" type="line"/>
      <point x="1254.659090909091" y="0.0" type="line"/>
      <point x="848.8636363636364" y="557.6590909090909" type="line"/>
      <point x="627.1590909090909" y="818.2954545454545" type="line"/>
      <point x="429.65909090909093" y="1097.2727272727273" type="line"/>
      <point x="-2.636363636363633" y="1097.2727272727273" type="line"/>
      <point x="392.6590909090909" y="552.6363636363636" type="line"/>
      <point x="619.1136363636364" y="292.9318181818182" type="line"/>
    </contour>
    <contour>
      <point x="-10.27272727272727" y="0.0" type="line"/>
      <point x="410.29545454545456" y="0.0" type="line"/>
      <point x="619.1136363636364" y="292.9318181818182" type="line"/>
      <point x="848.8636363636364" y="557.6590909090909" type="line"/>
      <point x="1241.1363636363637" y="1097.2727272727273" type="line"/>
      <point x="820.9772727272727" y="1097.2727272727273" type="line"/>
      <point x="627.1590909090909" y="818.2954545454545" type="line"/>
      <point x="392.6590909090909" y="552.6363636363636" type="line"/>
    </contour>
  </outline>
</glyph>
<glyph name="z" format="2">
  <advance width="1140.6818181818182"/>
  <unicode hex="007A"/>
  <anchor x="580.7954545454545" y="0.0" name="bottom"/>
  <anchor x="580.7954545454545" y="1200.0" name="top"/>
  <outline>
    <contour>
      <point x="77.45454545454545" y="0.0" type="line"/>
      <point x="1082.7727272727273" y="0.0" type="line"/>
      <point x="1082.7727272727273" y="306.6818181818182" type="line"/>
      <point x="524.0" y="306.6818181818182" type="line"/>
      <point x="524.0" y="241.1590909090909" type="line"/>
      <point x="1072.3636363636365" y="845.6818181818182" type="line"/>
      <point x="1072.3636363636365" y="1097.2727272727273" type="line"/>
      <point x="87.86363636363636" y="1097.2727272727273" type="line"/>
      <point x="87.86363636363636" y="790.590909090909" type="line"/>
      <point x="625.8181818181818" y="790.590909090909" type="line"/>
      <point x="625.8181818181818" y="856.1136363636364" type="line"/>
      <point x="77.45454545454545" y="251.59090909090907" type="line"/>
    </contour>
  </outline>
</glyph>
<glyph name="braceleft" format="2">
  <advance width="816.5454545454545"/>
  <unicode hex="007B"/>
  <outline>
    <contour>
      <point x="648.8863636363636" y="-460.0" type="curve" smooth="yes"/>
      <point x="724.409090909091" y="-460.0"/>
      <point x="787.25" y="-454.27272727272725"/>
      <point x="842.7272727272727" y="-446.54545454545456" type="curve"/>
      <point x="842.7272727272727" y="-147.86363636363637" type="line"/>
      <point x="720.0227272727273" y="-147.86363636363637" type="line" smooth="yes"/>
      <point x="630.4545454545455" y="-147.86363636363637"/>
      <point x="584.0454545454545" y="-114.70454545454547"/>
      <point x="584.0454545454545" y="-24.931818181818187" type="curve" smooth="yes"/>
      <point x="584.0454545454545" y="356.3636363636364" type="line" smooth="yes"/>
      <point x="584.0454545454545" y="545.5454545454545"/>
      <point x="479.3181818181818" y="648.6363636363636"/>
      <point x="216.0909090909091" y="652.1818181818181" type="curve"/>
      <point x="216.0909090909091" y="609.0909090909091" type="line"/>
      <point x="479.3181818181818" y="612.6363636363636"/>
      <point x="584.0454545454545" y="715.7272727272727"/>
      <point x="584.0454545454545" y="904.9090909090909" type="curve" smooth="yes"/>
      <point x="584.0454545454545" y="1200.9318181818182" type="line" smooth="yes"/>
      <point x="584.0454545454545" y="1290.7045454545455"/>
      <point x="630.4545454545455" y="1323.8636363636365"/>
      <point x="720.0227272727273" y="1323.8636363636365" type="curve" smooth="yes"/>
      <point x="842.7272727272727" y="1323.8636363636365" type="line"/>
      <point x="842.7272727272727" y="1622.5454545454545" type="line"/>
      <point x="787.25" y="1630.2727272727273"/>
      <point x="724.409090909091" y="1636.0"/>
      <point x="648.8863636363636" y="1636.0" type="curve" smooth="yes"/>
      <point x="345.4090909090909" y="1636.0"/>
      <point x="190.88636363636363" y="1490.25"/>
      <point x="190.88636363636363" y="1222.5" type="curve" smooth="yes"/>
      <point x="190.88636363636363" y="908.0454545454545" type="line" smooth="yes"/>
      <point x="190.88636363636363" y="831.0681818181818"/>
      <point x="142.70454545454544" y="783.9772727272727"/>
      <point x="67.0909090909091" y="783.9772727272727" type="curve" smooth="yes"/>
      <point x="2.9772727272727266" y="783.9772727272727" type="line"/>
      <point x="2.9772727272727266" y="477.2954545454545" type="line"/>
      <point x="67.0909090909091" y="477.2954545454545" type="line" smooth="yes"/>
      <point x="142.70454545454544" y="477.2954545454545"/>
      <point x="190.88636363636363" y="430.20454545454544"/>
      <point x="190.88636363636363" y="353.22727272727275" type="curve" smooth="yes"/>
      <point x="190.88636363636363" y="-46.5" type="line" smooth="yes"/>
      <point x="190.88636363636363" y="-314.25"/>
      <point x="345.4090909090909" y="-460.0"/>
    </contour>
  </outline>
</glyph>
<glyph name="bar" format="2">
  <advance width="616.5"/>
  <unicode hex="007C"/>
  <outline>
    <contour>
      <point x="130.88636363636363" y="-440.0" type="line"/>
      <point x="485.6136363636364" y="-440.0" type="line"/>
      <point x="485.6136363636364" y="1616.0" type="line"/>
      <point x="130.88636363636363" y="1616.0" type="line"/>
    </contour>
  </outline>
</glyph>
<glyph name="braceright" format="2">
  <advance width="816.5454545454545"/>
  <unicode hex="007D"/>
  <outline>
    <contour>
      <point x="167.6590909090909" y="-460.0" type="curve" smooth="yes"/>
      <point x="471.1363636363636" y="-460.0"/>
      <point x="625.659090909091" y="-314.25"/>
      <point x="625.659090909091" y="-46.5" type="curve" smooth="yes"/>
      <point x="625.659090909091" y="353.22727272727275" type="line" smooth="yes"/>
      <point x="625.659090909091" y="430.20454545454544"/>
      <point x="673.8409090909091" y="477.2954545454545"/>
      <point x="749.4545454545455" y="477.2954545454545" type="curve" smooth="yes"/>
      <point x="813.5681818181818" y="477.2954545454545" type="line"/>
      <point x="813.5681818181818" y="783.9772727272727" type="line"/>
      <point x="749.4545454545455" y="783.9772727272727" type="line" smooth="yes"/>
      <point x="673.8409090909091" y="783.9772727272727"/>
      <point x="625.659090909091" y="831.0681818181818"/>
      <point x="625.659090909091" y="908.0454545454545" type="curve" smooth="yes"/>
      <point x="625.659090909091" y="1222.5" type="line" smooth="yes"/>
      <point x="625.659090909091" y="1490.25"/>
      <point x="471.1363636363636" y="1636.0"/>
      <point x="167.6590909090909" y="1636.0" type="curve" smooth="yes"/>
      <point x="92.13636363636364" y="1636.0"/>
      <point x="29.295454545454547" y="1630.2727272727273"/>
      <point x="-26.18181818181818" y="1622.5454545454545" type="curve"/>
      <point x="-26.18181818181818" y="1323.8636363636365" type="line"/>
      <point x="96.52272727272728" y="1323.8636363636365" type="line" smooth="yes"/>
      <point x="186.0909090909091" y="1323.8636363636365"/>
      <point x="232.5" y="1290.7045454545455"/>
      <point x="232.5" y="1200.9318181818182" type="curve" smooth="yes"/>
      <point x="232.5" y="904.9090909090909" type="line" smooth="yes"/>
      <point x="232.5" y="715.7272727272727"/>
      <point x="338.52272727272725" y="612.6363636363636"/>
      <point x="600.4545454545455" y="609.0909090909091" type="curve"/>
      <point x="600.4545454545455" y="652.1818181818181" type="line"/>
      <point x="338.52272727272725" y="648.6363636363636"/>
      <point x="232.5" y="545.5454545454545"/>
      <point x="232.5" y="356.3636363636364" type="curve" smooth="yes"/>
      <point x="232.5" y="-24.931818181818187" type="line" smooth="yes"/>
      <point x="232.5" y="-114.70454545454547"/>
      <point x="186.0909090909091" y="-147.86363636363637"/>
      <point x="96.52272727272728" y="-147.86363636363637" type="curve" smooth="yes"/>
      <point x="-26.18181818181818" y="-147.86363636363637" type="line"/>
      <point x="-26.18181818181818" y="-446.54545454545456" type="line"/>
      <point x="29.295454545454547" y="-454.27272727272725"/>
      <point x="92.13636363636364" y="-460.0"/>
    </contour>
  </outline>
</glyph>
<glyph name="asciitilde" format="2">
  <advance width="1146.3181818181818"/>
  <unicode hex="007E"/>
  <outline>
    <contour>
      <point x="778.8409090909091" y="556.0454545454545" type="curve" smooth="yes"/>
      <point x="887.5" y="556.0454545454545"/>
      <point x="964.4090909090909" y="586.3181818181818"/>
      <point x="1031.2954545454545" y="656.4090909090909" type="curve"/>
      <point x="1031.2954545454545" y="954.3181818181818" type="line"/>
      <point x="951.3863636363636" y="877.1363636363636"/>
      <point x="878.3181818181819" y="844.5909090909091"/>
      <point x="782.0227272727273" y="844.5909090909091" type="curve" smooth="yes"/>
      <point x="651.25" y="844.5909090909091"/>
      <point x="530.5681818181819" y="962.3181818181818"/>
      <point x="367.47727272727275" y="962.3181818181818" type="curve" smooth="yes"/>
      <point x="258.8181818181818" y="962.3181818181818"/>
      <point x="181.9090909090909" y="932.0454545454545"/>
      <point x="115.02272727272728" y="861.9545454545455" type="curve"/>
      <point x="115.02272727272728" y="564.0454545454545" type="line"/>
      <point x="194.9318181818182" y="641.2272727272727"/>
      <point x="268.0" y="673.7727272727273"/>
      <point x="364.29545454545456" y="673.7727272727273" type="curve" smooth="yes"/>
      <point x="495.0681818181818" y="673.7727272727273"/>
      <point x="615.75" y="556.0454545454545"/>
    </contour>
  </outline>
</glyph>
<glyph name="exclamdown" format="2">
  <advance width="666.7727272727273"/>
  <unicode hex="00A1"/>
  <outline>
    <contour>
      <point x="216.97727272727272" y="566.2272727272727" type="line"/>
      <point x="125.52272727272728" y="101.47727272727273" type="line"/>
      <point x="125.52272727272728" y="-380.0" type="line"/>
      <point x="541.25" y="-380.0" type="line"/>
      <point x="541.25" y="101.47727272727273" type="line"/>
      <point x="454.54545454545456" y="566.2272727272727" type="line"/>
    </contour>
    <contour>
      <point x="333.3863636363636" y="1115.909090909091" type="curve" smooth="yes"/>
      <point x="179.5" y="1115.909090909091"/>
      <point x="83.97727272727272" y="1029.2954545454545"/>
      <point x="83.97727272727272" y="889.3863636363636" type="curve" smooth="yes"/>
      <point x="83.97727272727272" y="749.4772727272727"/>
      <point x="176.04545454545453" y="662.5909090909091"/>
      <point x="333.3863636363636" y="662.5909090909091" type="curve" smooth="yes"/>
      <point x="490.72727272727275" y="662.5909090909091"/>
      <point x="582.7954545454545" y="752.9318181818182"/>
      <point x="582.7954545454545" y="889.3863636363636" type="curve" smooth="yes"/>
      <point x="582.7954545454545" y="1025.840909090909"/>
      <point x="487.27272727272725" y="1115.909090909091"/>
    </contour>
  </outline>
</glyph>
<glyph name="cent" format="2">
  <advance width="1083.75"/>
  <unicode hex="00A2"/>
  <outline>
    <contour>
      <point x="713.340909090909" y="-21.454545454545453" type="curve" smooth="yes"/>
      <point x="829.1818181818182" y="-21.454545454545453"/>
      <point x="937.2272727272727" y="-4.954545454545455"/>
      <point x="1018.7954545454545" y="20.40909090909091" type="curve"/>
      <point x="1018.7954545454545" y="322.45454545454544" type="line"/>
      <point x="912.0681818181818" y="297.9090909090909"/>
      <point x="842.909090909091" y="287.22727272727275"/>
      <point x="764.3181818181818" y="287.22727272727275" type="curve" smooth="yes"/>
      <point x="569.6136363636364" y="287.22727272727275"/>
      <point x="469.8181818181818" y="368.02272727272725"/>
      <point x="469.8181818181818" y="547.4545454545455" type="curve" smooth="yes"/>
      <point x="469.8181818181818" y="722.9090909090909"/>
      <point x="563.4772727272727" y="806.3181818181818"/>
      <point x="787.3636363636364" y="806.3181818181818" type="curve" smooth="yes"/>
      <point x="866.9318181818182" y="806.3181818181818"/>
      <point x="936.0454545454545" y="798.6363636363636"/>
      <point x="1018.7954545454545" y="785.2045454545455" type="curve"/>
      <point x="1018.7954545454545" y="1087.25" type="line"/>
      <point x="935.0227272727273" y="1105.7954545454545"/>
      <point x="844.6136363636364" y="1115.0"/>
      <point x="740.2045454545455" y="1115.0" type="curve" smooth="yes"/>
      <point x="306.3863636363636" y="1115.0"/>
      <point x="67.47727272727272" y="919.2045454545455"/>
      <point x="67.47727272727272" y="545.6136363636364" type="curve" smooth="yes"/>
      <point x="67.47727272727272" y="174.8409090909091"/>
      <point x="294.1590909090909" y="-21.454545454545453"/>
    </contour>
    <contour>
      <point x="501.70454545454544" y="-240.0" type="line"/>
      <point x="838.6136363636364" y="-240.0" type="line"/>
      <point x="838.6136363636364" y="51.81818181818182" type="line"/>
      <point x="501.70454545454544" y="51.81818181818182" type="line"/>
    </contour>
    <contour>
      <point x="501.70454545454544" y="1045.4545454545455" type="line"/>
      <point x="838.6136363636364" y="1045.4545454545455" type="line"/>
      <point x="838.6136363636364" y="1337.2727272727273" type="line"/>
      <point x="501.70454545454544" y="1337.2727272727273" type="line"/>
    </contour>
  </outline>
</glyph>
<glyph name="sterling" format="2">
  <advance width="1464.8863636363637"/>
  <unicode hex="00A3"/>
  <outline>
    <contour>
      <point x="277.77272727272725" y="111.45454545454545" type="line"/>
      <point x="664.4545454545455" y="111.45454545454545" type="line"/>
      <point x="664.4545454545455" y="992.2727272727273" type="line" smooth="yes"/>
      <point x="664.4545454545455" y="1132.2954545454545"/>
      <point x="741.3636363636364" y="1185.4318181818182"/>
      <point x="994.7954545454545" y="1185.4318181818182" type="curve" smooth="yes"/>
      <point x="1109.659090909091" y="1185.4318181818182"/>
      <point x="1249.659090909091" y="1167.7045454545455"/>
      <point x="1347.3181818181818" y="1140.409090909091" type="curve"/>
      <point x="1347.3181818181818" y="1458.4318181818182" type="line"/>
      <point x="1246.5454545454545" y="1482.7954545454545"/>
      <point x="1113.2272727272727" y="1499.7272727272727"/>
      <point x="971.5227272727273" y="1499.7272727272727" type="curve" smooth="yes"/>
      <point x="504.1363636363636" y="1499.7272727272727"/>
      <point x="277.77272727272725" y="1317.25"/>
      <point x="277.77272727272725" y="973.2727272727273" type="curve" smooth="yes"/>
    </contour>
    <contour>
      <point x="80.0" y="0.0" type="line"/>
      <point x="1399.25" y="0.0" type="line"/>
      <point x="1399.25" y="307.54545454545456" type="line"/>
      <point x="80.0" y="307.54545454545456" type="line"/>
    </contour>
    <contour>
      <point x="80.0" y="609.6136363636364" type="line"/>
      <point x="1132.090909090909" y="609.6136363636364" type="line"/>
      <point x="1132.090909090909" y="890.3863636363636" type="line"/>
      <point x="80.0" y="890.3863636363636" type="line"/>
    </contour>
  </outline>
</glyph>
<glyph name="yen" format="2">
  <advance width="1413.25"/>
  <unicode hex="00A5"/>
  <outline>
    <contour>
      <point x="508.3181818181818" y="0.0" type="line"/>
      <point x="910.5454545454545" y="0.0" type="line"/>
      <point x="910.5454545454545" y="765.2272727272727" type="line"/>
      <point x="831.0909090909091" y="490.0681818181818" type="line"/>
      <point x="1453.1363636363635" y="1480.0" type="line"/>
      <point x="1057.6363636363637" y="1480.0" type="line"/>
      <point x="661.3409090909091" y="850.5681818181818" type="line"/>
      <point x="773.4772727272727" y="850.5681818181818" type="line"/>
      <point x="371.20454545454544" y="1480.0" type="line"/>
      <point x="-54.136363636363626" y="1480.0" type="line"/>
      <point x="587.7727272727273" y="490.0681818181818" type="line"/>
      <point x="508.3181818181818" y="770.4090909090909" type="line"/>
    </contour>
    <contour>
      <point x="186.95454545454544" y="241.8409090909091" type="line"/>
      <point x="1231.909090909091" y="241.8409090909091" type="line"/>
      <point x="1231.909090909091" y="463.02272727272725" type="line"/>
      <point x="186.95454545454544" y="463.02272727272725" type="line"/>
    </contour>
    <contour>
      <point x="186.95454545454544" y="584.9772727272727" type="line"/>
      <point x="1231.909090909091" y="584.9772727272727" type="line"/>
      <point x="1231.909090909091" y="806.1590909090909" type="line"/>
      <point x="186.95454545454544" y="806.1590909090909" type="line"/>
    </contour>
  </outline>
</glyph>
<glyph name="brokenbar" format="2">
  <advance width="616.5"/>
  <unicode hex="00A6"/>
  <outline>
    <contour>
      <point x="130.88636363636363" y="836.0" type="line"/>
      <point x="485.6136363636364" y="836.0" type="line"/>
      <point x="485.6136363636364" y="1616.0" type="line"/>
      <point x="130.88636363636363" y="1616.0" type="line"/>
    </contour>
    <contour>
      <point x="130.88636363636363" y="-440.0" type="line"/>
      <point x="485.6136363636364" y="-440.0" type="line"/>
      <point x="485.6136363636364" y="340.0" type="line"/>
      <point x="130.88636363636363" y="340.0" type="line"/>
    </contour>
  </outline>
</glyph>
<glyph name="section" format="2">
  <advance width="1235.8181818181818"/>
  <unicode hex="00A7"/>
  <outline>
    <contour>
      <point x="522.3409090909091" y="-21.454545454545453" type="curve" smooth="yes"/>
      <point x="901.1136363636364" y="-21.454545454545453"/>
      <point x="1084.659090909091" y="117.0"/>
      <point x="1084.659090909091" y="338.4318181818182" type="curve" smooth="yes"/>
      <point x="1084.659090909091" y="504.27272727272725"/>
      <point x="970.8181818181818" y="589.1136363636364"/>
      <point x="782.6136363636364" y="623.7727272727273" type="curve" smooth="yes"/>
      <point x="520.6818181818182" y="670.0454545454545" type="line" smooth="yes"/>
      <point x="438.5681818181818" y="685.2727272727273"/>
      <point x="413.70454545454544" y="719.6590909090909"/>
      <point x="413.70454545454544" y="765.5681818181818" type="curve" smooth="yes"/>
      <point x="413.70454545454544" y="799.5454545454545"/>
      <point x="429.1363636363636" y="834.1818181818181"/>
      <point x="472.3409090909091" y="880.4318181818182" type="curve"/>
      <point x="275.3181818181818" y="1010.5909090909091" type="line"/>
      <point x="161.13636363636363" y="949.75"/>
      <point x="91.86363636363637" y="862.8409090909091"/>
      <point x="91.86363636363637" y="741.4772727272727" type="curve" smooth="yes"/>
      <point x="91.86363636363637" y="557.3409090909091"/>
      <point x="211.97727272727272" y="462.27272727272725"/>
      <point x="390.95454545454544" y="429.9090909090909" type="curve" smooth="yes"/>
      <point x="651.5909090909091" y="384.5" type="line" smooth="yes"/>
      <point x="709.2272727272727" y="374.45454545454544"/>
      <point x="731.6136363636364" y="354.47727272727275"/>
      <point x="731.6136363636364" y="315.45454545454544" type="curve" smooth="yes"/>
      <point x="731.6136363636364" y="270.04545454545456"/>
      <point x="690.8181818181818" y="236.27272727272728"/>
      <point x="516.9090909090909" y="236.27272727272728" type="curve" smooth="yes"/>
      <point x="393.7954545454545" y="236.27272727272728"/>
      <point x="267.6363636363636" y="249.79545454545453"/>
      <point x="147.88636363636363" y="280.3409090909091" type="curve"/>
      <point x="147.88636363636363" y="22.34090909090909" type="line"/>
      <point x="263.04545454545456" y="-6.795454545454545"/>
      <point x="406.5" y="-21.454545454545453"/>
    </contour>
    <contour>
      <point x="943.8863636363636" y="459.3863636363636" type="line"/>
      <point x="1066.5454545454545" y="521.8863636363636"/>
      <point x="1143.9545454545455" y="611.7727272727273"/>
      <point x="1143.9545454545455" y="740.5909090909091" type="curve" smooth="yes"/>
      <point x="1143.9545454545455" y="926.7272727272727"/>
      <point x="1030.1136363636365" y="1017.0227272727273"/>
      <point x="846.659090909091" y="1048.2272727272727" type="curve" smooth="yes"/>
      <point x="573.0681818181818" y="1091.909090909091" type="line" smooth="yes"/>
      <point x="515.5681818181818" y="1101.9545454545455"/>
      <point x="491.25" y="1122.25"/>
      <point x="491.25" y="1157.3636363636363" type="curve" smooth="yes"/>
      <point x="491.25" y="1197.4772727272727"/>
      <point x="535.7727272727273" y="1240.0"/>
      <point x="768.5681818181818" y="1240.0" type="curve" smooth="yes"/>
      <point x="861.25" y="1240.0"/>
      <point x="951.6136363636364" y="1231.0"/>
      <point x="1043.0681818181818" y="1210.909090909091" type="curve"/>
      <point x="1043.0681818181818" y="1468.909090909091" type="line"/>
      <point x="956.0454545454545" y="1486.7272727272727"/>
      <point x="842.2272727272727" y="1497.7272727272727"/>
      <point x="737.9090909090909" y="1497.7272727272727" type="curve" smooth="yes"/>
      <point x="307.27272727272725" y="1497.7272727272727"/>
      <point x="138.20454545454544" y="1353.4545454545455"/>
      <point x="138.20454545454544" y="1135.0" type="curve" smooth="yes"/>
      <point x="138.20454545454544" y="979.7954545454545"/>
      <point x="256.5909090909091" y="888.0227272727273"/>
      <point x="455.0" y="852.6363636363636" type="curve" smooth="yes"/>
      <point x="715.6363636363636" y="806.3636363636364" type="line" smooth="yes"/>
      <point x="797.8863636363636" y="791.1363636363636"/>
      <point x="822.1136363636364" y="757.0681818181819"/>
      <point x="822.1136363636364" y="709.4090909090909" type="curve" smooth="yes"/>
      <point x="822.1136363636364" y="666.0454545454545"/>
      <point x="798.9090909090909" y="636.0681818181818"/>
      <point x="736.25" y="587.7045454545455" type="curve"/>
    </contour>
  </outline>
</glyph>
<glyph name="dieresis" format="2">
  <advance width="1186.3636363636365"/>
  <unicode hex="00A8"/>
  <anchor x="593.1818181818182" y="1200.0" name="_top"/>
  <anchor x="593.1818181818182" y="1607.8181818181818" name="top"/>
  <outline>
    <contour>
      <point x="860.6818181818182" y="1232.6136363636365" type="curve" smooth="yes"/>
      <point x="997.2954545454545" y="1232.6136363636365"/>
      <point x="1064.75" y="1302.3863636363635"/>
      <point x="1064.75" y="1418.5454545454545" type="curve" smooth="yes"/>
      <point x="1064.75" y="1534.7045454545455"/>
      <point x="997.2954545454545" y="1604.75"/>
      <point x="860.6818181818182" y="1604.75" type="curve" smooth="yes"/>
      <point x="724.0681818181819" y="1604.75"/>
      <point x="656.6136363636364" y="1534.7045454545455"/>
      <point x="656.6136363636364" y="1418.5454545454545" type="curve" smooth="yes"/>
      <point x="656.6136363636364" y="1302.3863636363635"/>
      <point x="724.0681818181819" y="1232.6136363636365"/>
    </contour>
    <contour>
      <point x="325.6818181818182" y="1232.6136363636365" type="curve" smooth="yes"/>
      <point x="462.2954545454545" y="1232.6136363636365"/>
      <point x="529.75" y="1302.3863636363635"/>
      <point x="529.75" y="1418.5454545454545" type="curve" smooth="yes"/>
      <point x="529.75" y="1534.7045454545455"/>
      <point x="462.2954545454545" y="1604.75"/>
      <point x="325.6818181818182" y="1604.75" type="curve" smooth="yes"/>
      <point x="189.0681818181818" y="1604.75"/>
      <point x="121.61363636363637" y="1534.7045454545455"/>
      <point x="121.61363636363637" y="1418.5454545454545" type="curve" smooth="yes"/>
      <point x="121.61363636363637" y="1302.3863636363635"/>
      <point x="189.0681818181818" y="1232.6136363636365"/>
    </contour>
  </outline>
</glyph>
<glyph name="copyright" format="2">
  <advance width="1665.409090909091"/>
  <unicode hex="00A9"/>
  <outline>
    <contour>
      <point x="832.7045454545455" y="-22.0" type="curve" smooth="yes"/>
      <point x="1283.8863636363637" y="-22.0"/>
      <point x="1581.8863636363637" y="282.0"/>
      <point x="1581.8863636363637" y="740.0" type="curve" smooth="yes"/>
      <point x="1581.8863636363637" y="1198.0"/>
      <point x="1283.8863636363637" y="1502.0"/>
      <point x="832.7045454545455" y="1502.0" type="curve" smooth="yes"/>
      <point x="381.52272727272725" y="1502.0"/>
      <point x="83.52272727272728" y="1198.0"/>
      <point x="83.52272727272728" y="740.0" type="curve" smooth="yes"/>
      <point x="83.52272727272728" y="282.0"/>
      <point x="381.52272727272725" y="-22.0"/>
    </contour>
    <contour>
      <point x="897.7954545454545" y="324.0" type="curve" smooth="yes"/>
      <point x="979.25" y="324.0"/>
      <point x="1051.25" y="336.0"/>
      <point x="1103.7045454545455" y="355.6363636363636" type="curve"/>
      <point x="1103.7045454545455" y="580.5454545454545" type="line"/>
      <point x="1025.159090909091" y="560.6363636363636"/>
      <point x="979.0681818181819" y="554.0909090909091"/>
      <point x="922.7954545454545" y="554.0909090909091" type="curve" smooth="yes"/>
      <point x="799.3409090909091" y="554.0909090909091"/>
      <point x="729.1590909090909" y="615.7272727272727"/>
      <point x="729.1590909090909" y="732.8181818181819" type="curve" smooth="yes"/>
      <point x="729.1590909090909" y="850.8181818181818"/>
      <point x="794.1590909090909" y="913.9090909090909"/>
      <point x="936.1590909090909" y="913.9090909090909" type="curve" smooth="yes"/>
      <point x="994.0681818181819" y="913.9090909090909"/>
      <point x="1043.4318181818182" y="907.3636363636364"/>
      <point x="1103.7045454545455" y="896.2727272727273" type="curve"/>
      <point x="1103.7045454545455" y="1121.1818181818182" type="line"/>
      <point x="1046.6136363636363" y="1136.0"/>
      <point x="984.8863636363636" y="1144.0"/>
      <point x="911.7045454545455" y="1144.0" type="curve" smooth="yes"/>
      <point x="633.8863636363636" y="1144.0"/>
      <point x="460.25" y="992.5454545454545"/>
      <point x="460.25" y="732.2727272727273" type="curve" smooth="yes"/>
      <point x="460.25" y="472.3636363636364"/>
      <point x="631.5227272727273" y="324.0"/>
    </contour>
    <contour>
      <point x="832.7045454545455" y="170.36363636363637" type="curve" smooth="yes"/>
      <point x="485.4318181818182" y="170.36363636363637"/>
      <point x="284.52272727272725" y="389.3636363636364"/>
      <point x="284.52272727272725" y="740.0" type="curve" smooth="yes"/>
      <point x="284.52272727272725" y="1090.6363636363637"/>
      <point x="485.4318181818182" y="1309.6363636363637"/>
      <point x="832.7045454545455" y="1309.6363636363637" type="curve" smooth="yes"/>
      <point x="1179.9772727272727" y="1309.6363636363637"/>
      <point x="1380.8863636363637" y="1090.6363636363637"/>
      <point x="1380.8863636363637" y="740.0" type="curve" smooth="yes"/>
      <point x="1380.8863636363637" y="389.3636363636364"/>
      <point x="1179.9772727272727" y="170.36363636363637"/>
    </contour>
  </outline>
</glyph>
<glyph name="ordfeminine" format="2">
  <advance width="1030.8181818181818"/>
  <unicode hex="00AA"/>
  <outline>
    <contour>
      <point x="362.6136363636364" y="592.5454545454545" type="curve" smooth="yes"/>
      <point x="462.1136363636364" y="592.5454545454545"/>
      <point x="555.1818181818182" y="622.7045454545455"/>
      <point x="611.0909090909091" y="691.1136363636364" type="curve"/>
      <point x="627.0227272727273" y="691.1136363636364" type="line"/>
      <point x="652.8863636363636" y="610.0" type="line"/>
      <point x="956.3181818181818" y="610.0" type="line"/>
      <point x="956.3181818181818" y="1081.1818181818182" type="line" smooth="yes"/>
      <point x="956.3181818181818" y="1393.5"/>
      <point x="807.9545454545455" y="1500.6363636363637"/>
      <point x="455.54545454545456" y="1500.6363636363637" type="curve" smooth="yes"/>
      <point x="352.9318181818182" y="1500.6363636363637"/>
      <point x="227.36363636363637" y="1488.3636363636363"/>
      <point x="119.27272727272727" y="1460.7272727272727" type="curve"/>
      <point x="119.27272727272727" y="1208.8863636363635" type="line"/>
      <point x="203.3409090909091" y="1231.3863636363635"/>
      <point x="304.4090909090909" y="1244.3181818181818"/>
      <point x="387.4090909090909" y="1244.3181818181818" type="curve" smooth="yes"/>
      <point x="556.4545454545455" y="1244.3181818181818"/>
      <point x="593.0681818181819" y="1209.2727272727273"/>
      <point x="593.0681818181819" y="1134.8636363636363" type="curve" smooth="yes"/>
      <point x="593.0681818181819" y="844.2727272727273" type="line"/>
      <point x="562.4545454545455" y="827.75"/>
      <point x="524.8409090909091" y="820.7954545454545"/>
      <point x="494.6363636363636" y="820.7954545454545" type="curve" smooth="yes"/>
      <point x="424.8636363636364" y="820.7954545454545"/>
      <point x="392.5681818181818" y="848.9545454545455"/>
      <point x="392.5681818181818" y="895.5454545454545" type="curve" smooth="yes"/>
      <point x="392.5681818181818" y="941.0227272727273"/>
      <point x="422.04545454545456" y="967.5681818181818"/>
      <point x="501.5" y="972.0227272727273" type="curve" smooth="yes"/>
      <point x="691.6136363636364" y="980.8409090909091" type="line"/>
      <point x="650.5227272727273" y="1144.2727272727273" type="line"/>
      <point x="443.0" y="1133.7272727272727" type="line" smooth="yes"/>
      <point x="154.6590909090909" y="1121.3181818181818"/>
      <point x="34.38636363636363" y="1030.090909090909"/>
      <point x="34.38636363636363" y="855.1363636363636" type="curve" smooth="yes"/>
      <point x="34.38636363636363" y="703.7954545454545"/>
      <point x="139.02272727272728" y="592.5454545454545"/>
    </contour>
  </outline>
</glyph>
<glyph name="guillemetleft" format="2">
  <advance width="1396.4318181818182"/>
  <unicode hex="00AB"/>
  <outline>
    <contour>
      <point x="353.5909090909091" y="131.36363636363637" type="line"/>
      <point x="757.0454545454545" y="131.36363636363637" type="line"/>
      <point x="481.7272727272727" y="568.6363636363636" type="line"/>
      <point x="757.0454545454545" y="1005.9090909090909" type="line"/>
      <point x="353.5909090909091" y="1005.9090909090909" type="line"/>
      <point x="78.27272727272728" y="568.6363636363636" type="line"/>
    </contour>
    <contour>
      <point x="954.7045454545455" y="131.36363636363637" type="line"/>
      <point x="1358.159090909091" y="131.36363636363637" type="line"/>
      <point x="1082.840909090909" y="568.6363636363636" type="line"/>
      <point x="1358.159090909091" y="1005.9090909090909" type="line"/>
      <point x="954.7045454545455" y="1005.9090909090909" type="line"/>
      <point x="679.3863636363636" y="568.6363636363636" type="line"/>
    </contour>
  </outline>
</glyph>
<glyph name="logicalnot" format="2">
  <advance width="1378.409090909091"/>
  <unicode hex="00AC"/>
  <outline>
    <contour>
      <point x="962.4772727272727" y="203.22727272727272" type="line"/>
      <point x="1269.7045454545455" y="203.22727272727272" type="line"/>
      <point x="1269.7045454545455" y="906.8636363636364" type="line"/>
      <point x="115.02272727272728" y="906.8636363636364" type="line"/>
      <point x="115.02272727272728" y="613.1363636363636" type="line"/>
      <point x="962.4772727272727" y="613.1363636363636" type="line"/>
    </contour>
  </outline>
</glyph>
<glyph name="registered" format="2">
  <advance width="1433.8636363636363"/>
  <unicode hex="00AE"/>
  <outline>
    <contour>
      <point x="716.9318181818181" y="268.0" type="curve" smooth="yes"/>
      <point x="1078.9318181818182" y="268.0"/>
      <point x="1326.9318181818182" y="518.0"/>
      <point x="1326.9318181818182" y="882.0" type="curve" smooth="yes"/>
      <point x="1326.9318181818182" y="1246.0"/>
      <point x="1078.9318181818182" y="1498.0"/>
      <point x="716.9318181818181" y="1498.0" type="curve" smooth="yes"/>
      <point x="354.9318181818182" y="1498.0"/>
      <point x="106.93181818181819" y="1246.0"/>
      <point x="106.93181818181819" y="882.0" type="curve" smooth="yes"/>
      <point x="106.93181818181819" y="518.0"/>
      <point x="354.9318181818182" y="268.0"/>
    </contour>
    <contour>
      <point x="832.75" y="600.0" type="line"/>
      <point x="1000.2954545454545" y="600.0" type="line"/>
      <point x="845.0227272727273" y="825.4545454545455" type="line"/>
      <point x="695.2045454545455" y="799.4545454545455" type="line"/>
    </contour>
    <contour>
      <point x="716.9318181818181" y="411.72727272727275" type="curve" smooth="yes"/>
      <point x="440.75" y="411.72727272727275"/>
      <point x="261.29545454545456" y="596.6363636363636"/>
      <point x="261.29545454545456" y="882.0" type="curve" smooth="yes"/>
      <point x="261.29545454545456" y="1169.090909090909"/>
      <point x="440.75" y="1354.2727272727273"/>
      <point x="716.9318181818181" y="1354.2727272727273" type="curve" smooth="yes"/>
      <point x="993.1136363636364" y="1354.2727272727273"/>
      <point x="1172.5681818181818" y="1169.090909090909"/>
      <point x="1172.5681818181818" y="882.0" type="curve" smooth="yes"/>
      <point x="1172.5681818181818" y="596.6363636363636"/>
      <point x="993.1136363636364" y="411.72727272727275"/>
    </contour>
    <contour>
      <point x="496.84090909090907" y="600.0" type="line"/>
      <point x="649.2045454545455" y="600.0" type="line"/>
      <point x="654.3863636363636" y="791.4545454545455" type="line"/>
      <point x="708.1136363636364" y="791.4545454545455" type="line" smooth="yes"/>
      <point x="885.6590909090909" y="791.4545454545455"/>
      <point x="969.3863636363636" y="855.7272727272727"/>
      <point x="969.3863636363636" y="990.7272727272727" type="curve" smooth="yes"/>
      <point x="969.3863636363636" y="1125.7272727272727"/>
      <point x="883.6590909090909" y="1192.0"/>
      <point x="708.1136363636364" y="1192.0" type="curve" smooth="yes"/>
      <point x="496.84090909090907" y="1192.0" type="line"/>
    </contour>
    <contour>
      <point x="654.3863636363636" y="913.9090909090909" type="line"/>
      <point x="654.3863636363636" y="1069.5454545454545" type="line"/>
      <point x="732.2045454545455" y="1069.5454545454545" type="line" smooth="yes"/>
      <point x="788.9318181818182" y="1069.5454545454545"/>
      <point x="820.4772727272727" y="1043.3636363636363"/>
      <point x="820.4772727272727" y="990.7272727272727" type="curve" smooth="yes"/>
      <point x="820.4772727272727" y="938.0909090909091"/>
      <point x="790.9318181818182" y="913.9090909090909"/>
      <point x="732.2045454545455" y="913.9090909090909" type="curve" smooth="yes"/>
    </contour>
  </outline>
</glyph>
<glyph name="macron" format="2">
  <advance width="1186.3636363636365"/>
  <unicode hex="00AF"/>
  <anchor x="593.1818181818182" y="1200.0" name="_top"/>
  <anchor x="593.1818181818182" y="1607.8181818181818" name="top"/>
  <outline>
    <contour>
      <point x="206.02272727272728" y="1308.0681818181818" type="line"/>
      <point x="980.340909090909" y="1308.0681818181818" type="line"/>
      <point x="980.340909090909" y="1531.2272727272727" type="line"/>
      <point x="206.02272727272728" y="1531.2272727272727" type="line"/>
    </contour>
  </outline>
</glyph>
<glyph name="degree" format="2">
  <advance width="998.4090909090909"/>
  <unicode hex="00B0"/>
  <outline>
    <contour>
      <point x="499.20454545454544" y="727.0" type="curve" smooth="yes"/>
      <point x="725.5681818181819" y="727.0"/>
      <point x="891.4772727272727" y="889.7272727272727"/>
      <point x="891.4772727272727" y="1114.090909090909" type="curve" smooth="yes"/>
      <point x="891.4772727272727" y="1338.4545454545455"/>
      <point x="725.5681818181819" y="1499.4545454545455"/>
      <point x="499.20454545454544" y="1499.4545454545455" type="curve" smooth="yes"/>
      <point x="272.84090909090907" y="1499.4545454545455"/>
      <point x="106.93181818181819" y="1338.4545454545455"/>
      <point x="106.93181818181819" y="1114.090909090909" type="curve" smooth="yes"/>
      <point x="106.93181818181819" y="889.7272727272727"/>
      <point x="272.84090909090907" y="727.0"/>
    </contour>
    <contour>
      <point x="499.20454545454544" y="945.1590909090909" type="curve" smooth="yes"/>
      <point x="408.0681818181818" y="945.1590909090909"/>
      <point x="339.25" y="1009.7045454545455"/>
      <point x="339.25" y="1114.090909090909" type="curve" smooth="yes"/>
      <point x="339.25" y="1219.7727272727273"/>
      <point x="409.79545454545456" y="1281.2954545454545"/>
      <point x="499.20454545454544" y="1281.2954545454545" type="curve" smooth="yes"/>
      <point x="588.6136363636364" y="1281.2954545454545"/>
      <point x="659.1590909090909" y="1219.7727272727273"/>
      <point x="659.1590909090909" y="1114.090909090909" type="curve" smooth="yes"/>
      <point x="659.1590909090909" y="1009.7045454545455"/>
      <point x="590.3409090909091" y="945.1590909090909"/>
    </contour>
  </outline>
</glyph>
<glyph name="plusminus" format="2">
  <advance width="1146.3181818181818"/>
  <unicode hex="00B1"/>
  <outline>
    <contour>
      <point x="419.54545454545456" y="392.0" type="line"/>
      <point x="726.7727272727273" y="392.0" type="line"/>
      <point x="726.7727272727273" y="671.1818181818181" type="line"/>
      <point x="1031.2954545454545" y="671.1818181818181" type="line"/>
      <point x="1031.2954545454545" y="964.9090909090909" type="line"/>
      <point x="726.7727272727273" y="964.9090909090909" type="line"/>
      <point x="726.7727272727273" y="1244.090909090909" type="line"/>
      <point x="419.54545454545456" y="1244.090909090909" type="line"/>
      <point x="419.54545454545456" y="964.9090909090909" type="line"/>
      <point x="115.02272727272728" y="964.9090909090909" type="line"/>
      <point x="115.02272727272728" y="671.1818181818181" type="line"/>
      <point x="419.54545454545456" y="671.1818181818181" type="line"/>
    </contour>
    <contour>
      <point x="115.02272727272728" y="0.4318181818181819" type="line"/>
      <point x="1031.2954545454545" y="0.4318181818181819" type="line"/>
      <point x="1031.2954545454545" y="294.15909090909093" type="line"/>
      <point x="115.02272727272728" y="294.15909090909093" type="line"/>
    </contour>
  </outline>
</glyph>
<glyph name="acute" format="2">
  <advance width="1186.3636363636365"/>
  <unicode hex="00B4"/>
  <anchor x="593.1818181818182" y="1200.0" name="_top"/>
  <anchor x="593.1818181818182" y="1642.3636363636363" name="top"/>
  <outline>
    <contour>
      <point x="409.77272727272725" y="1226.0" type="line"/>
      <point x="776.590909090909" y="1226.0" type="line"/>
      <point x="1078.1136363636363" y="1616.0" type="line"/>
      <point x="654.25" y="1616.0" type="line"/>
    </contour>
  </outline>
</glyph>
<glyph name="micro" format="2">
  <advance width="1333.409090909091"/>
  <unicode hex="00B5"/>
  <outline>
    <contour>
      <point x="612.6818181818182" y="-18.431818181818183" type="curve" smooth="yes"/>
      <point x="704.3181818181819" y="-18.431818181818183"/>
      <point x="788.7272727272727" y="24.886363636363637"/>
      <point x="854.4545454545455" y="103.54545454545455" type="curve"/>
      <point x="869.3636363636364" y="103.54545454545455" type="line"/>
      <point x="894.3636363636364" y="0.0" type="line"/>
      <point x="1216.4772727272727" y="0.0" type="line"/>
      <point x="1216.4772727272727" y="1097.2727272727273" type="line"/>
      <point x="823.3181818181819" y="1097.2727272727273" type="line"/>
      <point x="823.3181818181819" y="387.2954545454545" type="line"/>
      <point x="778.5454545454545" y="340.4545454545455"/>
      <point x="706.7045454545455" y="313.1363636363636"/>
      <point x="640.1590909090909" y="313.1363636363636" type="curve" smooth="yes"/>
      <point x="554.659090909091" y="313.1363636363636"/>
      <point x="501.8636363636364" y="352.3409090909091"/>
      <point x="501.8636363636364" y="475.0454545454545" type="curve" smooth="yes"/>
      <point x="501.8636363636364" y="669.3181818181818" type="line"/>
      <point x="298.40909090909093" y="669.3181818181818" type="line"/>
      <point x="298.40909090909093" y="450.3636363636364" type="line" smooth="yes"/>
      <point x="298.40909090909093" y="115.68181818181819"/>
      <point x="426.5681818181818" y="-18.431818181818183"/>
    </contour>
    <contour>
      <point x="108.70454545454545" y="-440.0" type="line"/>
      <point x="501.8636363636364" y="-440.0" type="line"/>
      <point x="501.8636363636364" y="1095.9772727272727" type="line"/>
      <point x="108.70454545454545" y="1095.9772727272727" type="line"/>
    </contour>
  </outline>
</glyph>
<glyph name="paragraph" format="2">
  <advance width="1423.0227272727273"/>
  <unicode hex="00B6"/>
  <outline>
    <contour>
      <point x="607.2727272727273" y="0.0" type="line"/>
      <point x="880.3863636363636" y="0.0" type="line"/>
      <point x="880.3863636363636" y="1480.0" type="line"/>
      <point x="784.5227272727273" y="1492.75"/>
      <point x="677.9772727272727" y="1499.1818181818182"/>
      <point x="572.9772727272727" y="1499.1818181818182" type="curve" smooth="yes"/>
      <point x="231.61363636363637" y="1499.1818181818182"/>
      <point x="74.43181818181819" y="1331.9772727272727"/>
      <point x="74.43181818181819" y="953.2272727272727" type="curve" smooth="yes"/>
      <point x="74.43181818181819" y="592.4545454545455"/>
      <point x="226.97727272727272" y="407.02272727272725"/>
      <point x="524.1590909090909" y="407.02272727272725" type="curve" smooth="yes"/>
      <point x="554.0909090909091" y="407.02272727272725"/>
      <point x="580.0909090909091" y="408.79545454545456"/>
      <point x="607.2727272727273" y="409.95454545454544" type="curve"/>
    </contour>
    <contour>
      <point x="1019.0227272727273" y="0.0" type="line"/>
      <point x="1292.1363636363635" y="0.0" type="line"/>
      <point x="1292.1363636363635" y="1480.0" type="line"/>
      <point x="1019.0227272727273" y="1480.0" type="line"/>
    </contour>
  </outline>
</glyph>
<glyph name="ordmasculine" format="2">
  <advance width="1115.6363636363635"/>
  <unicode hex="00BA"/>
  <outline>
    <contour>
      <point x="557.3863636363636" y="592.5454545454545" type="curve" smooth="yes"/>
      <point x="888.25" y="592.5454545454545"/>
      <point x="1076.409090909091" y="767.8409090909091"/>
      <point x="1076.409090909091" y="1048.159090909091" type="curve" smooth="yes"/>
      <point x="1076.409090909091" y="1328.4772727272727"/>
      <point x="888.25" y="1500.6363636363637"/>
      <point x="557.3863636363636" y="1500.6363636363637" type="curve" smooth="yes"/>
      <point x="226.52272727272728" y="1500.6363636363637"/>
      <point x="39.227272727272734" y="1330.6363636363637"/>
      <point x="39.227272727272734" y="1048.159090909091" type="curve" smooth="yes"/>
      <point x="39.227272727272734" y="765.6818181818181"/>
      <point x="226.52272727272728" y="592.5454545454545"/>
    </contour>
    <contour>
      <point x="557.3863636363636" y="859.4318181818182" type="curve" smooth="yes"/>
      <point x="462.75" y="859.4318181818182"/>
      <point x="401.72727272727275" y="912.9772727272727"/>
      <point x="401.72727272727275" y="1048.159090909091" type="curve" smooth="yes"/>
      <point x="401.72727272727275" y="1183.7727272727273"/>
      <point x="462.75" y="1233.75"/>
      <point x="557.3863636363636" y="1233.75" type="curve" smooth="yes"/>
      <point x="654.6136363636364" y="1233.75"/>
      <point x="713.9090909090909" y="1183.7727272727273"/>
      <point x="713.9090909090909" y="1048.159090909091" type="curve" smooth="yes"/>
      <point x="713.9090909090909" y="912.9772727272727"/>
      <point x="654.6136363636364" y="859.4318181818182"/>
    </contour>
  </outline>
</glyph>
<glyph name="guillemetright" format="2">
  <advance width="1396.4318181818182"/>
  <unicode hex="00BB"/>
  <outline>
    <contour>
      <point x="38.27272727272727" y="131.36363636363637" type="line"/>
      <point x="441.7272727272727" y="131.36363636363637" type="line"/>
      <point x="717.0454545454545" y="568.6363636363636" type="line"/>
      <point x="441.7272727272727" y="1005.9090909090909" type="line"/>
      <point x="38.27272727272727" y="1005.9090909090909" type="line"/>
      <point x="313.5909090909091" y="568.6363636363636" type="line"/>
    </contour>
    <contour>
      <point x="639.3863636363636" y="131.36363636363637" type="line"/>
      <point x="1042.840909090909" y="131.36363636363637" type="line"/>
      <point x="1318.159090909091" y="568.6363636363636" type="line"/>
      <point x="1042.840909090909" y="1005.9090909090909" type="line"/>
      <point x="639.3863636363636" y="1005.9090909090909" type="line"/>
      <point x="914.7045454545455" y="568.6363636363636" type="line"/>
    </contour>
  </outline>
</glyph>
<glyph name="onequarter" format="2">
  <advance width="2279.318181818182"/>
  <unicode hex="00BC"/>
  <outline>
    <contour>
      <point x="349.52272727272725" y="648.9545454545455" type="line"/>
      <point x="661.8181818181818" y="648.9545454545455" type="line"/>
      <point x="661.8181818181818" y="1620.0" type="line"/>
      <point x="455.22727272727275" y="1620.0" type="line"/>
      <point x="131.04545454545453" y="1418.3863636363637" type="line"/>
      <point x="131.04545454545453" y="1155.8181818181818" type="line"/>
      <point x="455.22727272727275" y="1357.4318181818182" type="line"/>
      <point x="349.52272727272725" y="1459.3181818181818" type="line"/>
    </contour>
    <contour>
      <point x="128.36363636363637" y="616.0" type="line"/>
      <point x="870.4090909090909" y="616.0" type="line"/>
      <point x="870.4090909090909" y="857.2045454545455" type="line"/>
      <point x="128.36363636363637" y="857.2045454545455" type="line"/>
    </contour>
    <contour>
      <point x="552.9772727272727" y="-136.0" type="line"/>
      <point x="877.6363636363636" y="-136.0" type="line"/>
      <point x="1726.340909090909" y="1616.0" type="line"/>
      <point x="1401.6818181818182" y="1616.0" type="line"/>
    </contour>
    <contour>
      <point x="1383.2272727272727" y="43.02272727272728" type="line"/>
      <point x="2258.1363636363635" y="43.02272727272728" type="line"/>
      <point x="2258.1363636363635" y="273.1590909090909" type="line"/>
      <point x="1647.9545454545455" y="273.1590909090909" type="line"/>
      <point x="1668.8636363636365" y="204.5909090909091" type="line"/>
      <point x="1968.3181818181818" y="864.0" type="line"/>
      <point x="1684.409090909091" y="864.0" type="line"/>
      <point x="1383.2272727272727" y="204.79545454545456" type="line"/>
    </contour>
    <contour>
      <point x="1863.068181818182" y="-136.0" type="line"/>
      <point x="2134.931818181818" y="-136.0" type="line"/>
      <point x="2134.931818181818" y="526.0" type="line"/>
      <point x="1911.7727272727275" y="526.0" type="line"/>
      <point x="1863.068181818182" y="273.1590909090909" type="line"/>
    </contour>
  </outline>
</glyph>
<glyph name="onehalf" format="2">
  <advance width="2279.318181818182"/>
  <unicode hex="00BD"/>
  <outline>
    <contour>
      <point x="349.52272727272725" y="648.9545454545455" type="line"/>
      <point x="661.8181818181818" y="648.9545454545455" type="line"/>
      <point x="661.8181818181818" y="1620.0" type="line"/>
      <point x="455.22727272727275" y="1620.0" type="line"/>
      <point x="131.04545454545453" y="1418.3863636363637" type="line"/>
      <point x="131.04545454545453" y="1155.8181818181818" type="line"/>
      <point x="455.22727272727275" y="1357.4318181818182" type="line"/>
      <point x="349.52272727272725" y="1459.3181818181818" type="line"/>
    </contour>
    <contour>
      <point x="128.36363636363637" y="616.0" type="line"/>
      <point x="870.4090909090909" y="616.0" type="line"/>
      <point x="870.4090909090909" y="857.2045454545455" type="line"/>
      <point x="128.36363636363637" y="857.2045454545455" type="line"/>
    </contour>
    <contour>
      <point x="552.9772727272727" y="-136.0" type="line"/>
      <point x="877.6363636363636" y="-136.0" type="line"/>
      <point x="1726.340909090909" y="1616.0" type="line"/>
      <point x="1401.6818181818182" y="1616.0" type="line"/>
    </contour>
    <contour>
      <point x="1435.7954545454545" y="-136.0" type="line"/>
      <point x="2207.25" y="-136.0" type="line"/>
      <point x="2207.25" y="105.20454545454547" type="line"/>
      <point x="1788.431818181818" y="105.20454545454547" type="line"/>
      <point x="1781.3181818181818" y="28.86363636363636" type="line"/>
      <point x="2005.4545454545455" y="262.5681818181818" type="line" smooth="yes"/>
      <point x="2115.227272727273" y="377.97727272727275"/>
      <point x="2161.568181818182" y="471.1363636363636"/>
      <point x="2161.6363636363635" y="574.7045454545455" type="curve" smooth="yes"/>
      <point x="2161.7045454545455" y="781.6136363636364"/>
      <point x="2017.340909090909" y="877.7272727272727"/>
      <point x="1718.159090909091" y="877.7272727272727" type="curve" smooth="yes"/>
      <point x="1612.8636363636365" y="877.7272727272727"/>
      <point x="1500.8863636363635" y="863.7954545454545"/>
      <point x="1423.3636363636365" y="839.1590909090909" type="curve"/>
      <point x="1423.3636363636365" y="600.7045454545455" type="line"/>
      <point x="1486.6363636363635" y="623.0227272727273"/>
      <point x="1584.6363636363635" y="643.0"/>
      <point x="1674.2045454545455" y="643.0" type="curve" smooth="yes"/>
      <point x="1810.5" y="643.0"/>
      <point x="1854.6818181818182" y="608.6363636363636"/>
      <point x="1854.6818181818182" y="541.2045454545455" type="curve" smooth="yes"/>
      <point x="1854.6818181818182" y="490.95454545454544"/>
      <point x="1822.5681818181818" y="437.77272727272725"/>
      <point x="1740.5454545454545" y="348.79545454545456" type="curve" smooth="yes"/>
      <point x="1435.7954545454545" y="21.25" type="line"/>
    </contour>
  </outline>
</glyph>
<glyph name="threequarters" format="2">
  <advance width="2279.318181818182"/>
  <unicode hex="00BE"/>
  <outline>
    <contour>
      <point x="370.75" y="602.2727272727273" type="curve" smooth="yes"/>
      <point x="691.7727272727273" y="602.2727272727273"/>
      <point x="832.0454545454545" y="717.2045454545455"/>
      <point x="832.0454545454545" y="900.3181818181819" type="curve" smooth="yes"/>
      <point x="832.0454545454545" y="1037.3181818181818"/>
      <point x="750.3863636363636" y="1113.909090909091"/>
      <point x="619.0227272727273" y="1135.5681818181818" type="curve"/>
      <point x="619.0227272727273" y="1127.4318181818182" type="line"/>
      <point x="728.1818181818181" y="1152.25"/>
      <point x="796.6136363636364" y="1235.9318181818182"/>
      <point x="796.6136363636364" y="1347.909090909091" type="curve" smooth="yes"/>
      <point x="796.6136363636364" y="1527.3636363636363"/>
      <point x="659.0227272727273" y="1629.7272727272727"/>
      <point x="366.8636363636364" y="1629.7272727272727" type="curve" smooth="yes"/>
      <point x="269.6363636363636" y="1629.7272727272727"/>
      <point x="150.54545454545456" y="1613.409090909091"/>
      <point x="80.47727272727273" y="1591.5681818181818" type="curve"/>
      <point x="80.47727272727273" y="1374.2727272727273" type="line"/>
      <point x="152.8409090909091" y="1399.8181818181818"/>
      <point x="255.0" y="1415.5"/>
      <point x="333.1363636363636" y="1415.5" type="curve" smooth="yes"/>
      <point x="454.5" y="1415.5"/>
      <point x="500.29545454545456" y="1381.0454545454545"/>
      <point x="500.29545454545456" y="1322.8181818181818" type="curve" smooth="yes"/>
      <point x="500.29545454545456" y="1269.2727272727273"/>
      <point x="462.22727272727275" y="1234.7727272727273"/>
      <point x="347.52272727272725" y="1234.7727272727273" type="curve" smooth="yes"/>
      <point x="164.27272727272728" y="1234.7727272727273" type="line"/>
      <point x="164.27272727272728" y="1017.8863636363636" type="line"/>
      <point x="371.6363636363636" y="1017.8863636363636" type="line" smooth="yes"/>
      <point x="499.0681818181818" y="1017.8863636363636"/>
      <point x="542.2045454545455" y="983.6363636363636"/>
      <point x="542.2045454545455" y="919.7954545454545" type="curve" smooth="yes"/>
      <point x="542.2045454545455" y="854.25"/>
      <point x="491.3636363636364" y="817.7954545454545"/>
      <point x="354.04545454545456" y="817.7954545454545" type="curve" smooth="yes"/>
      <point x="266.5" y="817.7954545454545"/>
      <point x="158.29545454545456" y="830.8636363636364"/>
      <point x="65.38636363636364" y="854.4545454545455" type="curve"/>
      <point x="65.38636363636364" y="637.1590909090909" type="line"/>
      <point x="159.9318181818182" y="614.0454545454545"/>
      <point x="263.22727272727275" y="602.2727272727273"/>
    </contour>
    <contour>
      <point x="552.9772727272727" y="-136.0" type="line"/>
      <point x="877.6363636363636" y="-136.0" type="line"/>
      <point x="1726.340909090909" y="1616.0" type="line"/>
      <point x="1401.6818181818182" y="1616.0" type="line"/>
    </contour>
    <contour>
      <point x="1383.2272727272727" y="43.02272727272728" type="line"/>
      <point x="2258.1363636363635" y="43.02272727272728" type="line"/>
      <point x="2258.1363636363635" y="273.1590909090909" type="line"/>
      <point x="1647.9545454545455" y="273.1590909090909" type="line"/>
      <point x="1668.8636363636365" y="204.5909090909091" type="line"/>
      <point x="1968.3181818181818" y="864.0" type="line"/>
      <point x="1684.409090909091" y="864.0" type="line"/>
      <point x="1383.2272727272727" y="204.79545454545456" type="line"/>
    </contour>
    <contour>
      <point x="1863.068181818182" y="-136.0" type="line"/>
      <point x="2134.931818181818" y="-136.0" type="line"/>
      <point x="2134.931818181818" y="526.0" type="line"/>
      <point x="1911.7727272727275" y="526.0" type="line"/>
      <point x="1863.068181818182" y="273.1590909090909" type="line"/>
    </contour>
  </outline>
</glyph>
<glyph name="questiondown" format="2">
  <advance width="1089.0681818181818"/>
  <unicode hex="00BF"/>
  <outline>
    <contour>
      <point x="714.1590909090909" y="596.9090909090909" type="line"/>
      <point x="476.5909090909091" y="596.9090909090909" type="line"/>
      <point x="450.6136363636364" y="428.8636363636364" type="line"/>
      <point x="203.61363636363637" y="363.0"/>
      <point x="54.34090909090909" y="232.75"/>
      <point x="54.34090909090909" y="15.386363636363626" type="curve" smooth="yes"/>
      <point x="54.34090909090909" y="-249.8181818181818"/>
      <point x="248.6590909090909" y="-400.0"/>
      <point x="649.9090909090909" y="-400.0" type="curve" smooth="yes"/>
      <point x="786.0909090909091" y="-400.0"/>
      <point x="950.2954545454545" y="-376.3181818181818"/>
      <point x="1053.4318181818182" y="-342.97727272727275" type="curve"/>
      <point x="1053.4318181818182" y="-41.363636363636346" type="line"/>
      <point x="946.0681818181818" y="-77.8409090909091"/>
      <point x="811.1136363636364" y="-99.52272727272725"/>
      <point x="693.2954545454545" y="-99.52272727272725" type="curve" smooth="yes"/>
      <point x="511.3181818181818" y="-99.52272727272725"/>
      <point x="437.4090909090909" y="-46.79545454545453"/>
      <point x="437.4090909090909" y="44.886363636363626" type="curve" smooth="yes"/>
      <point x="437.4090909090909" y="132.5"/>
      <point x="510.15909090909093" y="201.97727272727272"/>
      <point x="781.8636363636364" y="242.02272727272725" type="curve"/>
    </contour>
    <contour>
      <point x="594.7272727272727" y="1115.909090909091" type="curve" smooth="yes"/>
      <point x="440.5681818181818" y="1115.909090909091"/>
      <point x="345.3181818181818" y="1030.75"/>
      <point x="345.3181818181818" y="903.6363636363636" type="curve" smooth="yes"/>
      <point x="345.3181818181818" y="776.25"/>
      <point x="437.3863636363636" y="691.090909090909"/>
      <point x="594.7272727272727" y="691.090909090909" type="curve" smooth="yes"/>
      <point x="752.0681818181818" y="691.090909090909"/>
      <point x="844.1363636363636" y="772.7954545454545"/>
      <point x="844.1363636363636" y="903.6363636363636" type="curve" smooth="yes"/>
      <point x="844.1363636363636" y="1034.2045454545455"/>
      <point x="748.6136363636364" y="1115.909090909091"/>
    </contour>
  </outline>
</glyph>
<glyph name="Agrave" format="2">
  <advance width="1606.6818181818182"/>
  <unicode hex="00C0"/>
  <anchor x="802.1818181818182" y="1520.0" name="_top"/>
  <anchor x="803.4772727272727" y="0.0" name="bottom"/>
  <anchor x="1592.25" y="0.0" name="ogonek"/>
  <anchor x="802.1818181818182" y="1520.0" name="top"/>
  <outline>
    <contour>
      <point x="14.431818181818182" y="0.0" type="line"/>
      <point x="404.45454545454544" y="0.0" type="line"/>
      <point x="819.5227272727273" y="1310.0227272727273" type="line"/>
      <point x="782.5681818181818" y="1310.0227272727273" type="line"/>
      <point x="1198.5" y="0.0" type="line"/>
      <point x="1592.25" y="0.0" type="line"/>
      <point x="1095.5" y="1480.0" type="line"/>
      <point x="511.1818181818182" y="1480.0" type="line"/>
    </contour>
    <contour>
      <point x="418.29545454545456" y="362.6136363636364" type="line"/>
      <point x="1185.3636363636365" y="362.6136363636364" type="line"/>
      <point x="1097.1363636363635" y="669.5681818181818" type="line"/>
      <point x="507.8181818181818" y="669.5681818181818" type="line"/>
    </contour>
    <contour>
      <point x="624.3863636363636" y="1590.090909090909" type="line"/>
      <point x="979.9772727272727" y="1590.090909090909" type="line"/>
      <point x="785.7954545454545" y="1900.090909090909" type="line"/>
      <point x="372.09090909090907" y="1900.090909090909" type="line"/>
    </contour>
  </outline>
</glyph>
<glyph name="Acircumflex" format="2">
  <advance width="1606.6818181818182"/>
  <unicode hex="00C2"/>
  <anchor x="802.1818181818182" y="1520.0" name="_top"/>
  <anchor x="803.4772727272727" y="0.0" name="bottom"/>
  <anchor x="1592.25" y="0.0" name="ogonek"/>
  <anchor x="802.1818181818182" y="1520.0" name="top"/>
  <outline>
    <contour>
      <point x="14.431818181818182" y="0.0" type="line"/>
      <point x="404.45454545454544" y="0.0" type="line"/>
      <point x="819.5227272727273" y="1310.0227272727273" type="line"/>
      <point x="782.5681818181818" y="1310.0227272727273" type="line"/>
      <point x="1198.5" y="0.0" type="line"/>
      <point x="1592.25" y="0.0" type="line"/>
      <point x="1095.5" y="1480.0" type="line"/>
      <point x="511.1818181818182" y="1480.0" type="line"/>
    </contour>
    <contour>
      <point x="418.29545454545456" y="362.6136363636364" type="line"/>
      <point x="1185.3636363636365" y="362.6136363636364" type="line"/>
      <point x="1097.1363636363635" y="669.5681818181818" type="line"/>
      <point x="507.8181818181818" y="669.5681818181818" type="line"/>
    </contour>
    <contour>
      <point x="345.4318181818182" y="1590.090909090909" type="line"/>
      <point x="648.2727272727273" y="1590.090909090909" type="line"/>
      <point x="833.6590909090909" y="1794.7272727272727" type="line"/>
      <point x="770.7045454545455" y="1794.7272727272727" type="line"/>
      <point x="956.090909090909" y="1590.090909090909" type="line"/>
      <point x="1258.9318181818182" y="1590.090909090909" type="line"/>
      <point x="966.7045454545455" y="1900.090909090909" type="line"/>
      <point x="637.6590909090909" y="1900.090909090909" type="line"/>
    </contour>
  </outline>
</glyph>
<glyph name="Atilde" format="2">
  <advance width="1606.6818181818182"/>
  <unicode hex="00C3"/>
  <anchor x="802.1818181818182" y="1520.0" name="_top"/>
  <anchor x="803.4772727272727" y="0.0" name="bottom"/>
  <anchor x="1592.25" y="0.0" name="ogonek"/>
  <anchor x="802.1818181818182" y="1520.0" name="top"/>
  <outline>
    <contour>
      <point x="14.431818181818182" y="0.0" type="line"/>
      <point x="404.45454545454544" y="0.0" type="line"/>
      <point x="819.5227272727273" y="1310.0227272727273" type="line"/>
      <point x="782.5681818181818" y="1310.0227272727273" type="line"/>
      <point x="1198.5" y="0.0" type="line"/>
      <point x="1592.25" y="0.0" type="line"/>
      <point x="1095.5" y="1480.0" type="line"/>
      <point x="511.1818181818182" y="1480.0" type="line"/>
    </contour>
    <contour>
      <point x="418.29545454545456" y="362.6136363636364" type="line"/>
      <point x="1185.3636363636365" y="362.6136363636364" type="line"/>
      <point x="1097.1363636363635" y="669.5681818181818" type="line"/>
      <point x="507.8181818181818" y="669.5681818181818" type="line"/>
    </contour>
    <contour>
      <point x="987.8636363636364" y="1601.2045454545455" type="curve" smooth="yes"/>
      <point x="1087.840909090909" y="1601.2045454545455"/>
      <point x="1154.7272727272727" y="1623.0681818181818"/>
      <point x="1214.25" y="1673.7954545454545" type="curve"/>
      <point x="1214.25" y="1883.7954545454545" type="line"/>
      <point x="1145.431818181818" y="1837.9545454545455"/>
      <point x="1085.2045454545455" y="1816.3181818181818"/>
      <point x="996.5" y="1816.3181818181818" type="curve" smooth="yes"/>
      <point x="865.3863636363636" y="1816.3181818181818"/>
      <point x="766.0227272727273" y="1892.1818181818182"/>
      <point x="616.5" y="1892.1818181818182" type="curve" smooth="yes"/>
      <point x="516.5227272727273" y="1892.1818181818182"/>
      <point x="449.6363636363636" y="1868.590909090909"/>
      <point x="390.1136363636364" y="1817.8636363636363" type="curve"/>
      <point x="390.1136363636364" y="1607.8636363636363" type="line"/>
      <point x="458.9318181818182" y="1653.7045454545455"/>
      <point x="519.1590909090909" y="1675.340909090909"/>
      <point x="607.8636363636364" y="1675.340909090909" type="curve" smooth="yes"/>
      <point x="738.9772727272727" y="1675.340909090909"/>
      <point x="838.3409090909091" y="1601.2045454545455"/>
    </contour>
  </outline>
</glyph>
<glyph name="Adieresis" format="2">
  <advance width="1606.6818181818182"/>
  <unicode hex="00C4"/>
  <anchor x="802.1818181818182" y="1520.0" name="_top"/>
  <anchor x="803.4772727272727" y="0.0" name="bottom"/>
  <anchor x="1592.25" y="0.0" name="ogonek"/>
  <anchor x="802.1818181818182" y="1520.0" name="top"/>
  <outline>
    <contour>
      <point x="14.431818181818182" y="0.0" type="line"/>
      <point x="404.45454545454544" y="0.0" type="line"/>
      <point x="819.5227272727273" y="1310.0227272727273" type="line"/>
      <point x="782.5681818181818" y="1310.0227272727273" type="line"/>
      <point x="1198.5" y="0.0" type="line"/>
      <point x="1592.25" y="0.0" type="line"/>
      <point x="1095.5" y="1480.0" type="line"/>
      <point x="511.1818181818182" y="1480.0" type="line"/>
    </contour>
    <contour>
      <point x="418.29545454545456" y="362.6136363636364" type="line"/>
      <point x="1185.3636363636365" y="362.6136363636364" type="line"/>
      <point x="1097.1363636363635" y="669.5681818181818" type="line"/>
      <point x="507.8181818181818" y="669.5681818181818" type="line"/>
    </contour>
    <contour>
      <point x="1080.6136363636365" y="1586.3636363636363" type="curve" smooth="yes"/>
      <point x="1217.659090909091" y="1586.3636363636363"/>
      <point x="1281.659090909091" y="1647.5"/>
      <point x="1281.659090909091" y="1750.2727272727273" type="curve" smooth="yes"/>
      <point x="1281.659090909091" y="1853.0454545454545"/>
      <point x="1217.659090909091" y="1914.4545454545455"/>
      <point x="1080.6136363636365" y="1914.4545454545455" type="curve" smooth="yes"/>
      <point x="943.5681818181818" y="1914.4545454545455"/>
      <point x="879.5681818181818" y="1853.0454545454545"/>
      <point x="879.5681818181818" y="1750.2727272727273" type="curve" smooth="yes"/>
      <point x="879.5681818181818" y="1647.5"/>
      <point x="943.5681818181818" y="1586.3636363636363"/>
    </contour>
    <contour>
      <point x="523.75" y="1586.3636363636363" type="curve" smooth="yes"/>
      <point x="660.7954545454545" y="1586.3636363636363"/>
      <point x="724.7954545454545" y="1647.5"/>
      <point x="724.7954545454545" y="1750.2727272727273" type="curve" smooth="yes"/>
      <point x="724.7954545454545" y="1853.0454545454545"/>
      <point x="660.7954545454545" y="1914.4545454545455"/>
      <point x="523.75" y="1914.4545454545455" type="curve" smooth="yes"/>
      <point x="386.70454545454544" y="1914.4545454545455"/>
      <point x="322.70454545454544" y="1853.0454545454545"/>
      <point x="322.70454545454544" y="1750.2727272727273" type="curve" smooth="yes"/>
      <point x="322.70454545454544" y="1647.5"/>
      <point x="386.70454545454544" y="1586.3636363636363"/>
    </contour>
  </outline>
</glyph>
<glyph name="AE" format="2">
  <advance width="2194.159090909091"/>
  <unicode hex="00C6"/>
  <anchor x="1143.0" y="0.0" name="bottom"/>
  <anchor x="1128.6136363636365" y="1520.0" name="top"/>
  <outline>
    <contour>
      <point x="14.431818181818182" y="0.0" type="line"/>
      <point x="405.75" y="0.0" type="line"/>
      <point x="780.1590909090909" y="1172.1818181818182" type="line"/>
      <point x="1108.4545454545455" y="1172.1818181818182" type="line"/>
      <point x="1108.8636363636365" y="1480.0" type="line"/>
      <point x="512.6136363636364" y="1480.0" type="line"/>
    </contour>
    <contour>
      <point x="419.3863636363636" y="362.1818181818182" type="line"/>
      <point x="1112.0227272727273" y="362.1818181818182" type="line"/>
      <point x="1112.0227272727273" y="670.0" type="line"/>
      <point x="508.9090909090909" y="670.0" type="line"/>
    </contour>
    <contour>
      <point x="1047.0227272727273" y="0.0" type="line"/>
      <point x="2113.727272727273" y="0.0" type="line"/>
      <point x="2113.727272727273" y="307.81818181818187" type="line"/>
      <point x="1421.1363636363635" y="307.81818181818187" type="line"/>
      <point x="1341.590909090909" y="1172.1818181818182" type="line"/>
      <point x="2103.727272727273" y="1172.1818181818182" type="line"/>
      <point x="2103.727272727273" y="1480.0" type="line"/>
      <point x="925.9318181818182" y="1480.0" type="line"/>
    </contour>
    <contour>
      <point x="1168.6136363636365" y="601.9090909090909" type="line"/>
      <point x="1999.3181818181818" y="601.9090909090909" type="line"/>
      <point x="1999.3181818181818" y="909.7272727272727" type="line"/>
      <point x="1168.6136363636365" y="909.7272727272727" type="line"/>
    </contour>
  </outline>
</glyph>
<glyph name="Ccedilla" format="2">
  <advance width="1363.5454545454545"/>
  <unicode hex="00C7"/>
  <anchor x="818.7045454545455" y="0.0" name="_bottom"/>
  <anchor x="818.7045454545455" y="0.0" name="bottom"/>
  <anchor x="816.3181818181818" y="1520.0" name="top"/>
  <outline>
    <contour>
      <point x="950.9545454545455" y="-19.727272727272727" type="curve" smooth="yes"/>
      <point x="1074.8636363636365" y="-19.727272727272727"/>
      <point x="1201.7272727272727" y="-2.6818181818181817"/>
      <point x="1303.4318181818182" y="25.0" type="curve"/>
      <point x="1303.4318181818182" y="348.6363636363636" type="line"/>
      <point x="1201.909090909091" y="323.09090909090907"/>
      <point x="1094.3863636363635" y="306.65909090909093"/>
      <point x="983.0454545454545" y="306.65909090909093" type="curve" smooth="yes"/>
      <point x="655.1818181818182" y="306.65909090909093"/>
      <point x="504.43181818181813" y="438.90909090909093"/>
      <point x="504.43181818181813" y="740.2727272727273" type="curve" smooth="yes"/>
      <point x="504.43181818181813" y="1036.1363636363635"/>
      <point x="655.409090909091" y="1173.340909090909"/>
      <point x="997.7045454545455" y="1173.340909090909" type="curve" smooth="yes"/>
      <point x="1107.340909090909" y="1173.340909090909"/>
      <point x="1207.8636363636365" y="1161.9545454545455"/>
      <point x="1303.4318181818182" y="1142.0" type="curve"/>
      <point x="1303.4318181818182" y="1465.6363636363637" type="line"/>
      <point x="1196.0454545454545" y="1488.7727272727273"/>
      <point x="1084.2954545454545" y="1499.7272727272727"/>
      <point x="964.5" y="1499.7272727272727" type="curve" smooth="yes"/>
      <point x="392.1818181818182" y="1499.7272727272727"/>
      <point x="83.52272727272728" y="1223.8636363636363"/>
      <point x="83.52272727272728" y="736.2727272727273" type="curve" smooth="yes"/>
      <point x="83.52272727272728" y="223.0909090909091"/>
      <point x="387.3409090909091" y="-19.727272727272727"/>
    </contour>
    <contour>
      <point x="779.3181818181818" y="-451.8181818181818" type="curve" smooth="yes"/>
      <point x="979.6363636363636" y="-451.8181818181818"/>
      <point x="1076.2727272727273" y="-378.04545454545456"/>
      <point x="1076.2727272727273" y="-259.8863636363636" type="curve" smooth="yes"/>
      <point x="1076.2727272727273" y="-143.45454545454544"/>
      <point x="989.1363636363637" y="-73.56818181818181"/>
      <point x="801.9545454545455" y="-73.56818181818181" type="curve"/>
      <point x="884.7045454545455" y="-124.72727272727272" type="line"/>
      <point x="884.7045454545455" y="20.0" type="line"/>
      <point x="706.0681818181818" y="20.0" type="line"/>
      <point x="706.0681818181818" y="-179.97727272727272" type="line"/>
      <point x="760.4772727272727" y="-179.97727272727272" type="line" smooth="yes"/>
      <point x="837.3636363636364" y="-179.97727272727272"/>
      <point x="879.0681818181818" y="-198.9090909090909"/>
      <point x="879.0681818181818" y="-247.36363636363637" type="curve" smooth="yes"/>
      <point x="879.0681818181818" y="-293.65909090909093"/>
      <point x="838.2272727272727" y="-311.29545454545456"/>
      <point x="760.3181818181819" y="-311.29545454545456" type="curve" smooth="yes"/>
      <point x="700.6136363636364" y="-311.29545454545456"/>
      <point x="627.1363636363636" y="-301.52272727272725"/>
      <point x="564.0909090909091" y="-280.3181818181818" type="curve"/>
      <point x="564.0909090909091" y="-420.09090909090907" type="line"/>
      <point x="627.1363636363636" y="-440.04545454545456"/>
      <point x="696.3863636363636" y="-451.8181818181818"/>
    </contour>
  </outline>
</glyph>
<glyph name="Egrave" format="2">
  <advance width="1377.409090909091"/>
  <unicode hex="00C8"/>
  <anchor x="730.8636363636364" y="1520.0" name="_top"/>
  <anchor x="731.2727272727273" y="0.0" name="bottom"/>
  <anchor x="1204.0227272727273" y="0.0" name="ogonek"/>
  <anchor x="730.8636363636364" y="1520.0" name="top"/>
  <anchor x="39.61363636363637" y="1480.0" name="topleft"/>
  <outline>
    <contour>
      <point x="130.88636363636363" y="0.0" type="line"/>
      <point x="1296.9772727272727" y="0.0" type="line"/>
      <point x="1296.9772727272727" y="307.81818181818187" type="line"/>
      <point x="527.9318181818182" y="307.81818181818187" type="line"/>
      <point x="527.9318181818182" y="1172.1818181818182" type="line"/>
      <point x="1286.9772727272727" y="1172.1818181818182" type="line"/>
      <point x="1286.9772727272727" y="1480.0" type="line"/>
      <point x="130.88636363636363" y="1480.0" type="line"/>
    </contour>
    <contour>
      <point x="344.72727272727275" y="601.9090909090909" type="line"/>
      <point x="1182.5681818181818" y="601.9090909090909" type="line"/>
      <point x="1182.5681818181818" y="909.7272727272727" type="line"/>
      <point x="344.72727272727275" y="909.7272727272727" type="line"/>
    </contour>
    <contour>
      <point x="553.0681818181819" y="1590.090909090909" type="line"/>
      <point x="908.6590909090909" y="1590.090909090909" type="line"/>
      <point x="714.4772727272727" y="1900.090909090909" type="line"/>
      <point x="300.77272727272725" y="1900.090909090909" type="line"/>
    </contour>
  </outline>
</glyph>
<glyph name="Ecircumflex" format="2">
  <advance width="1377.409090909091"/>
  <unicode hex="00CA"/>
  <anchor x="730.8636363636364" y="1520.0" name="_top"/>
  <anchor x="731.2727272727273" y="0.0" name="bottom"/>
  <anchor x="1204.0227272727273" y="0.0" name="ogonek"/>
  <anchor x="730.8636363636364" y="1520.0" name="top"/>
  <anchor x="39.61363636363637" y="1480.0" name="topleft"/>
  <outline>
    <contour>
      <point x="130.88636363636363" y="0.0" type="line"/>
      <point x="1296.9772727272727" y="0.0" type="line"/>
      <point x="1296.9772727272727" y="307.81818181818187" type="line"/>
      <point x="527.9318181818182" y="307.81818181818187" type="line"/>
      <point x="527.9318181818182" y="1172.1818181818182" type="line"/>
      <point x="1286.9772727272727" y="1172.1818181818182" type="line"/>
      <point x="1286.9772727272727" y="1480.0" type="line"/>
      <point x="130.88636363636363" y="1480.0" type="line"/>
    </contour>
    <contour>
      <point x="344.72727272727275" y="601.9090909090909" type="line"/>
      <point x="1182.5681818181818" y="601.9090909090909" type="line"/>
      <point x="1182.5681818181818" y="909.7272727272727" type="line"/>
      <point x="344.72727272727275" y="909.7272727272727" type="line"/>
    </contour>
    <contour>
      <point x="274.1136363636364" y="1590.090909090909" type="line"/>
      <point x="576.9545454545455" y="1590.090909090909" type="line"/>
      <point x="762.340909090909" y="1794.7272727272727" type="line"/>
      <point x="699.3863636363636" y="1794.7272727272727" type="line"/>
      <point x="884.7727272727273" y="1590.090909090909" type="line"/>
      <point x="1187.6136363636365" y="1590.090909090909" type="line"/>
      <point x="895.3863636363636" y="1900.090909090909" type="line"/>
      <point x="566.3409090909091" y="1900.090909090909" type="line"/>
    </contour>
  </outline>
</glyph>
<glyph name="Edieresis" format="2">
  <advance width="1377.409090909091"/>
  <unicode hex="00CB"/>
  <anchor x="730.8636363636364" y="1520.0" name="_top"/>
  <anchor x="731.2727272727273" y="0.0" name="bottom"/>
  <anchor x="1204.0227272727273" y="0.0" name="ogonek"/>
  <anchor x="730.8636363636364" y="1520.0" name="top"/>
  <anchor x="39.61363636363637" y="1480.0" name="topleft"/>
  <outline>
    <contour>
      <point x="130.88636363636363" y="0.0" type="line"/>
      <point x="1296.9772727272727" y="0.0" type="line"/>
      <point x="1296.9772727272727" y="307.81818181818187" type="line"/>
      <point x="527.9318181818182" y="307.81818181818187" type="line"/>
      <point x="527.9318181818182" y="1172.1818181818182" type="line"/>
      <point x="1286.9772727272727" y="1172.1818181818182" type="line"/>
      <point x="1286.9772727272727" y="1480.0" type="line"/>
      <point x="130.88636363636363" y="1480.0" type="line"/>
    </contour>
    <contour>
      <point x="344.72727272727275" y="601.9090909090909" type="line"/>
      <point x="1182.5681818181818" y="601.9090909090909" type="line"/>
      <point x="1182.5681818181818" y="909.7272727272727" type="line"/>
      <point x="344.72727272727275" y="909.7272727272727" type="line"/>
    </contour>
    <contour>
      <point x="1009.2954545454545" y="1586.3636363636363" type="curve" smooth="yes"/>
      <point x="1146.340909090909" y="1586.3636363636363"/>
      <point x="1210.340909090909" y="1647.5"/>
      <point x="1210.340909090909" y="1750.2727272727273" type="curve" smooth="yes"/>
      <point x="1210.340909090909" y="1853.0454545454545"/>
      <point x="1146.340909090909" y="1914.4545454545455"/>
      <point x="1009.2954545454545" y="1914.4545454545455" type="curve" smooth="yes"/>
      <point x="872.25" y="1914.4545454545455"/>
      <point x="808.25" y="1853.0454545454545"/>
      <point x="808.25" y="1750.2727272727273" type="curve" smooth="yes"/>
      <point x="808.25" y="1647.5"/>
      <point x="872.25" y="1586.3636363636363"/>
    </contour>
    <contour>
      <point x="452.4318181818182" y="1586.3636363636363" type="curve" smooth="yes"/>
      <point x="589.4772727272727" y="1586.3636363636363"/>
      <point x="653.4772727272727" y="1647.5"/>
      <point x="653.4772727272727" y="1750.2727272727273" type="curve" smooth="yes"/>
      <point x="653.4772727272727" y="1853.0454545454545"/>
      <point x="589.4772727272727" y="1914.4545454545455"/>
      <point x="452.4318181818182" y="1914.4545454545455" type="curve" smooth="yes"/>
      <point x="315.3863636363636" y="1914.4545454545455"/>
      <point x="251.38636363636363" y="1853.0454545454545"/>
      <point x="251.38636363636363" y="1750.2727272727273" type="curve" smooth="yes"/>
      <point x="251.38636363636363" y="1647.5"/>
      <point x="315.3863636363636" y="1586.3636363636363"/>
    </contour>
  </outline>
</glyph>
<glyph name="Igrave" format="2">
  <advance width="664.0"/>
  <unicode hex="00CC"/>
  <anchor x="332.0" y="1520.0" name="_top"/>
  <anchor x="330.7045454545455" y="0.0" name="bottom"/>
  <anchor x="533.1136363636364" y="0.0" name="ogonek"/>
  <anchor x="332.0" y="1520.0" name="top"/>
  <outline>
    <contour>
      <point x="130.88636363636363" y="0.0" type="line"/>
      <point x="533.1136363636364" y="0.0" type="line"/>
      <point x="533.1136363636364" y="1480.0" type="line"/>
      <point x="130.88636363636363" y="1480.0" type="line"/>
    </contour>
    <contour>
      <point x="154.20454545454544" y="1590.090909090909" type="line"/>
      <point x="509.7954545454545" y="1590.090909090909" type="line"/>
      <point x="315.6136363636364" y="1900.090909090909" type="line"/>
      <point x="-98.0909090909091" y="1900.090909090909" type="line"/>
    </contour>
  </outline>
</glyph>
<glyph name="Iacute" format="2">
  <advance width="664.0"/>
  <unicode hex="00CD"/>
  <anchor x="332.0" y="1520.0" name="_top"/>
  <anchor x="330.7045454545455" y="0.0" name="bottom"/>
  <anchor x="533.1136363636364" y="0.0" name="ogonek"/>
  <anchor x="332.0" y="1520.0" name="top"/>
  <outline>
    <contour>
      <point x="130.88636363636363" y="0.0" type="line"/>
      <point x="533.1136363636364" y="0.0" type="line"/>
      <point x="533.1136363636364" y="1480.0" type="line"/>
      <point x="130.88636363636363" y="1480.0" type="line"/>
    </contour>
    <contour>
      <point x="151.61363636363637" y="1590.090909090909" type="line"/>
      <point x="507.20454545454544" y="1590.090909090909" type="line"/>
      <point x="759.5" y="1900.090909090909" type="line"/>
      <point x="345.79545454545456" y="1900.090909090909" type="line"/>
    </contour>
  </outline>
</glyph>
<glyph name="Icircumflex" format="2">
  <advance width="664.0"/>
  <unicode hex="00CE"/>
  <anchor x="332.0" y="1520.0" name="_top"/>
  <anchor x="330.7045454545455" y="0.0" name="bottom"/>
  <anchor x="533.1136363636364" y="0.0" name="ogonek"/>
  <anchor x="332.0" y="1520.0" name="top"/>
  <outline>
    <contour>
      <point x="130.88636363636363" y="0.0" type="line"/>
      <point x="533.1136363636364" y="0.0" type="line"/>
      <point x="533.1136363636364" y="1480.0" type="line"/>
      <point x="130.88636363636363" y="1480.0" type="line"/>
    </contour>
    <contour>
      <point x="-124.75" y="1590.090909090909" type="line"/>
      <point x="178.0909090909091" y="1590.090909090909" type="line"/>
      <point x="363.47727272727275" y="1794.7272727272727" type="line"/>
      <point x="300.52272727272725" y="1794.7272727272727" type="line"/>
      <point x="485.90909090909093" y="1590.090909090909" type="line"/>
      <point x="788.75" y="1590.090909090909" type="line"/>
      <point x="496.52272727272725" y="1900.090909090909" type="line"/>
      <point x="167.47727272727272" y="1900.090909090909" type="line"/>
    </contour>
  </outline>
</glyph>
<glyph name="Idieresis" format="2">
  <advance width="664.0"/>
  <unicode hex="00CF"/>
  <anchor x="332.0" y="1520.0" name="_top"/>
  <anchor x="330.7045454545455" y="0.0" name="bottom"/>
  <anchor x="533.1136363636364" y="0.0" name="ogonek"/>
  <anchor x="332.0" y="1520.0" name="top"/>
  <outline>
    <contour>
      <point x="130.88636363636363" y="0.0" type="line"/>
      <point x="533.1136363636364" y="0.0" type="line"/>
      <point x="533.1136363636364" y="1480.0" type="line"/>
      <point x="130.88636363636363" y="1480.0" type="line"/>
    </contour>
    <contour>
      <point x="610.4318181818182" y="1586.3636363636363" type="curve" smooth="yes"/>
      <point x="747.4772727272727" y="1586.3636363636363"/>
      <point x="811.4772727272727" y="1647.5"/>
      <point x="811.4772727272727" y="1750.2727272727273" type="curve" smooth="yes"/>
      <point x="811.4772727272727" y="1853.0454545454545"/>
      <point x="747.4772727272727" y="1914.4545454545455"/>
      <point x="610.4318181818182" y="1914.4545454545455" type="curve" smooth="yes"/>
      <point x="473.3863636363636" y="1914.4545454545455"/>
      <point x="409.3863636363636" y="1853.0454545454545"/>
      <point x="409.3863636363636" y="1750.2727272727273" type="curve" smooth="yes"/>
      <point x="409.3863636363636" y="1647.5"/>
      <point x="473.3863636363636" y="1586.3636363636363"/>
    </contour>
    <contour>
      <point x="53.56818181818182" y="1586.3636363636363" type="curve" smooth="yes"/>
      <point x="190.61363636363637" y="1586.3636363636363"/>
      <point x="254.61363636363637" y="1647.5"/>
      <point x="254.61363636363637" y="1750.2727272727273" type="curve" smooth="yes"/>
      <point x="254.61363636363637" y="1853.0454545454545"/>
      <point x="190.61363636363637" y="1914.4545454545455"/>
      <point x="53.56818181818182" y="1914.4545454545455" type="curve" smooth="yes"/>
      <point x="-83.47727272727273" y="1914.4545454545455"/>
      <point x="-147.47727272727275" y="1853.0454545454545"/>
      <point x="-147.47727272727275" y="1750.2727272727273" type="curve" smooth="yes"/>
      <point x="-147.47727272727275" y="1647.5"/>
      <point x="-83.47727272727273" y="1586.3636363636363"/>
    </contour>
  </outline>
</glyph>
<glyph name="Ntilde" format="2">
  <advance width="1673.25"/>
  <unicode hex="00D1"/>
  <anchor x="836.7272727272727" y="1520.0" name="_top"/>
  <anchor x="836.7272727272727" y="0.0" name="bottom"/>
  <anchor x="836.7272727272727" y="1520.0" name="top"/>
  <outline>
    <contour>
      <point x="130.88636363636363" y="0.0" type="line"/>
      <point x="509.0909090909091" y="0.0" type="line"/>
      <point x="509.0909090909091" y="999.4090909090909" type="line"/>
      <point x="444.47727272727275" y="999.4090909090909" type="line"/>
      <point x="1139.6818181818182" y="0.0" type="line"/>
      <point x="1542.3636363636365" y="0.0" type="line"/>
      <point x="1542.3636363636365" y="1480.0" type="line"/>
      <point x="1164.159090909091" y="1480.0" type="line"/>
      <point x="1164.159090909091" y="480.5909090909091" type="line"/>
      <point x="1228.7727272727273" y="480.5909090909091" type="line"/>
      <point x="533.5681818181818" y="1480.0" type="line"/>
      <point x="130.88636363636363" y="1480.0" type="line"/>
    </contour>
    <contour>
      <point x="1022.409090909091" y="1601.2045454545455" type="curve" smooth="yes"/>
      <point x="1122.3863636363635" y="1601.2045454545455"/>
      <point x="1189.2727272727273" y="1623.0681818181818"/>
      <point x="1248.7954545454545" y="1673.7954545454545" type="curve"/>
      <point x="1248.7954545454545" y="1883.7954545454545" type="line"/>
      <point x="1179.9772727272727" y="1837.9545454545455"/>
      <point x="1119.75" y="1816.3181818181818"/>
      <point x="1031.0454545454545" y="1816.3181818181818" type="curve" smooth="yes"/>
      <point x="899.9318181818182" y="1816.3181818181818"/>
      <point x="800.5681818181819" y="1892.1818181818182"/>
      <point x="651.0454545454545" y="1892.1818181818182" type="curve" smooth="yes"/>
      <point x="551.0681818181818" y="1892.1818181818182"/>
      <point x="484.1818181818182" y="1868.590909090909"/>
      <point x="424.6590909090909" y="1817.8636363636363" type="curve"/>
      <point x="424.6590909090909" y="1607.8636363636363" type="line"/>
      <point x="493.47727272727275" y="1653.7045454545455"/>
      <point x="553.7045454545455" y="1675.340909090909"/>
      <point x="642.4090909090909" y="1675.340909090909" type="curve" smooth="yes"/>
      <point x="773.5227272727273" y="1675.340909090909"/>
      <point x="872.8863636363636" y="1601.2045454545455"/>
    </contour>
  </outline>
</glyph>
<glyph name="Otilde" format="2">
  <advance width="1727.3636363636365"/>
  <unicode hex="00D5"/>
  <anchor x="863.6818181818182" y="1520.0" name="_top"/>
  <anchor x="863.6818181818182" y="0.0" name="bottom"/>
  <anchor x="863.6818181818182" y="740.0" name="center"/>
  <anchor x="1030.659090909091" y="0.0" name="ogonek"/>
  <anchor x="863.6818181818182" y="1520.0" name="top"/>
  <anchor x="54.34090909090909" y="1480.0" name="topleft"/>
  <anchor x="1075.3636363636365" y="1480.0" name="topright"/>
  <outline>
    <contour>
      <point x="863.6818181818182" y="-19.727272727272727" type="curve" smooth="yes"/>
      <point x="1340.159090909091" y="-19.727272727272727"/>
      <point x="1643.840909090909" y="249.0"/>
      <point x="1643.840909090909" y="740.0" type="curve" smooth="yes"/>
      <point x="1643.840909090909" y="1231.0"/>
      <point x="1342.068181818182" y="1499.7272727272727"/>
      <point x="863.6818181818182" y="1499.7272727272727" type="curve" smooth="yes"/>
      <point x="385.9090909090909" y="1499.7272727272727"/>
      <point x="83.52272727272728" y="1233.590909090909"/>
      <point x="83.52272727272728" y="740.0" type="curve" smooth="yes"/>
      <point x="83.52272727272728" y="246.4090909090909"/>
      <point x="386.5909090909091" y="-19.727272727272727"/>
    </contour>
    <contour>
      <point x="863.6818181818182" y="297.79545454545456" type="curve" smooth="yes"/>
      <point x="627.8636363636364" y="297.79545454545456"/>
      <point x="494.0681818181818" y="432.0681818181818"/>
      <point x="494.0681818181818" y="747.4545454545455" type="curve" smooth="yes"/>
      <point x="494.0681818181818" y="1047.9318181818182"/>
      <point x="631.75" y="1182.2045454545455"/>
      <point x="863.6818181818182" y="1182.2045454545455" type="curve" smooth="yes"/>
      <point x="1095.6136363636365" y="1182.2045454545455"/>
      <point x="1233.2954545454545" y="1044.0454545454545"/>
      <point x="1233.2954545454545" y="732.5454545454545" type="curve" smooth="yes"/>
      <point x="1233.2954545454545" y="435.95454545454544"/>
      <point x="1099.5" y="297.79545454545456"/>
    </contour>
    <contour>
      <point x="1049.3636363636365" y="1601.2045454545455" type="curve" smooth="yes"/>
      <point x="1149.340909090909" y="1601.2045454545455"/>
      <point x="1216.2272727272727" y="1623.0681818181818"/>
      <point x="1275.75" y="1673.7954545454545" type="curve"/>
      <point x="1275.75" y="1883.7954545454545" type="line"/>
      <point x="1206.931818181818" y="1837.9545454545455"/>
      <point x="1146.7045454545455" y="1816.3181818181818"/>
      <point x="1058.0" y="1816.3181818181818" type="curve" smooth="yes"/>
      <point x="926.8863636363636" y="1816.3181818181818"/>
      <point x="827.5227272727273" y="1892.1818181818182"/>
      <point x="678.0" y="1892.1818181818182" type="curve" smooth="yes"/>
      <point x="578.0227272727273" y="1892.1818181818182"/>
      <point x="511.1363636363636" y="1868.590909090909"/>
      <point x="451.6136363636364" y="1817.8636363636363" type="curve"/>
      <point x="451.6136363636364" y="1607.8636363636363" type="line"/>
      <point x="520.4318181818182" y="1653.7045454545455"/>
      <point x="580.6590909090909" y="1675.340909090909"/>
      <point x="669.3636363636364" y="1675.340909090909" type="curve" smooth="yes"/>
      <point x="800.4772727272727" y="1675.340909090909"/>
      <point x="899.840909090909" y="1601.2045454545455"/>
    </contour>
  </outline>
</glyph>
<glyph name="Odieresis" format="2">
  <advance width="1727.3636363636365"/>
  <unicode hex="00D6"/>
  <anchor x="863.6818181818182" y="1520.0" name="_top"/>
  <anchor x="863.6818181818182" y="0.0" name="bottom"/>
  <anchor x="863.6818181818182" y="740.0" name="center"/>
  <anchor x="1030.659090909091" y="0.0" name="ogonek"/>
  <anchor x="863.6818181818182" y="1520.0" name="top"/>
  <anchor x="54.34090909090909" y="1480.0" name="topleft"/>
  <anchor x="1075.3636363636365" y="1480.0" name="topright"/>
  <outline>
    <contour>
      <point x="863.6818181818182" y="-19.727272727272727" type="curve" smooth="yes"/>
      <point x="1340.159090909091" y="-19.727272727272727"/>
      <point x="1643.840909090909" y="249.0"/>
      <point x="1643.840909090909" y="740.0" type="curve" smooth="yes"/>
      <point x="1643.840909090909" y="1231.0"/>
      <point x="1342.068181818182" y="1499.7272727272727"/>
      <point x="863.6818181818182" y="1499.7272727272727" type="curve" smooth="yes"/>
      <point x="385.9090909090909" y="1499.7272727272727"/>
      <point x="83.52272727272728" y="1233.590909090909"/>
      <point x="83.52272727272728" y="740.0" type="curve" smooth="yes"/>
      <point x="83.52272727272728" y="246.4090909090909"/>
      <point x="386.5909090909091" y="-19.727272727272727"/>
    </contour>
    <contour>
      <point x="863.6818181818182" y="297.79545454545456" type="curve" smooth="yes"/>
      <point x="627.8636363636364" y="297.79545454545456"/>
      <point x="494.0681818181818" y="432.0681818181818"/>
      <point x="494.0681818181818" y="747.4545454545455" type="curve" smooth="yes"/>
      <point x="494.0681818181818" y="1047.9318181818182"/>
      <point x="631.75" y="1182.2045454545455"/>
      <point x="863.6818181818182" y="1182.2045454545455" type="curve" smooth="yes"/>
      <point x="1095.6136363636365" y="1182.2045454545455"/>
      <point x="1233.2954545454545" y="1044.0454545454545"/>
      <point x="1233.2954545454545" y="732.5454545454545" type="curve" smooth="yes"/>
      <point x="1233.2954545454545" y="435.95454545454544"/>
      <point x="1099.5" y="297.79545454545456"/>
    </contour>
    <contour>
      <point x="1142.1136363636365" y="1586.3636363636363" type="curve" smooth="yes"/>
      <point x="1279.159090909091" y="1586.3636363636363"/>
      <point x="1343.159090909091" y="1647.5"/>
      <point x="1343.159090909091" y="1750.2727272727273" type="curve" smooth="yes"/>
      <point x="1343.159090909091" y="1853.0454545454545"/>
      <point x="1279.159090909091" y="1914.4545454545455"/>
      <point x="1142.1136363636365" y="1914.4545454545455" type="curve" smooth="yes"/>
      <point x="1005.0681818181818" y="1914.4545454545455"/>
      <point x="941.0681818181819" y="1853.0454545454545"/>
      <point x="941.0681818181819" y="1750.2727272727273" type="curve" smooth="yes"/>
      <point x="941.0681818181819" y="1647.5"/>
      <point x="1005.0681818181818" y="1586.3636363636363"/>
    </contour>
    <contour>
      <point x="585.25" y="1586.3636363636363" type="curve" smooth="yes"/>
      <point x="722.2954545454545" y="1586.3636363636363"/>
      <point x="786.2954545454545" y="1647.5"/>
      <point x="786.2954545454545" y="1750.2727272727273" type="curve" smooth="yes"/>
      <point x="786.2954545454545" y="1853.0454545454545"/>
      <point x="722.2954545454545" y="1914.4545454545455"/>
      <point x="585.25" y="1914.4545454545455" type="curve" smooth="yes"/>
      <point x="448.20454545454544" y="1914.4545454545455"/>
      <point x="384.20454545454544" y="1853.0454545454545"/>
      <point x="384.20454545454544" y="1750.2727272727273" type="curve" smooth="yes"/>
      <point x="384.20454545454544" y="1647.5"/>
      <point x="448.20454545454544" y="1586.3636363636363"/>
    </contour>
  </outline>
</glyph>
<glyph name="multiply" format="2">
  <advance width="1083.2727272727273"/>
  <unicode hex="00D7"/>
  <outline>
    <contour>
      <point x="287.1818181818182" y="298.3181818181818" type="line"/>
      <point x="541.6363636363636" y="552.7727272727273" type="line"/>
      <point x="796.0909090909091" y="298.3181818181818" type="line"/>
      <point x="1003.3181818181818" y="505.54545454545456" type="line"/>
      <point x="748.8636363636364" y="760.0" type="line"/>
      <point x="1003.3181818181818" y="1014.4545454545455" type="line"/>
      <point x="796.0909090909091" y="1221.6818181818182" type="line"/>
      <point x="541.6363636363636" y="967.2272727272727" type="line"/>
      <point x="287.1818181818182" y="1221.6818181818182" type="line"/>
      <point x="79.95454545454545" y="1014.4545454545455" type="line"/>
      <point x="334.4090909090909" y="760.0" type="line"/>
      <point x="79.95454545454545" y="505.54545454545456" type="line"/>
    </contour>
  </outline>
</glyph>
<glyph name="Udieresis" format="2">
  <advance width="1625.25"/>
  <unicode hex="00DC"/>
  <anchor x="816.4318181818182" y="1520.0" name="_top"/>
  <anchor x="816.4318181818182" y="0.0" name="bottom"/>
  <anchor x="1057.5227272727273" y="0.40909090909090917" name="ogonek"/>
  <anchor x="816.4318181818182" y="1520.0" name="top"/>
  <anchor x="1120.2727272727273" y="1480.0" name="topright"/>
  <outline>
    <contour>
      <point x="816.4318181818182" y="-19.727272727272727" type="curve" smooth="yes"/>
      <point x="1294.931818181818" y="-19.727272727272727"/>
      <point x="1500.6363636363635" y="214.1818181818182"/>
      <point x="1500.6363636363635" y="654.5909090909091" type="curve" smooth="yes"/>
      <point x="1500.6363636363635" y="1480.0" type="line"/>
      <point x="1105.590909090909" y="1480.0" type="line"/>
      <point x="1105.590909090909" y="619.1136363636364" type="line" smooth="yes"/>
      <point x="1105.590909090909" y="398.0909090909091"/>
      <point x="1008.9545454545455" y="303.6363636363636"/>
      <point x="816.4318181818182" y="303.6363636363636" type="curve" smooth="yes"/>
      <point x="623.9090909090909" y="303.6363636363636"/>
      <point x="526.840909090909" y="398.0909090909091"/>
      <point x="526.840909090909" y="619.1136363636364" type="curve" smooth="yes"/>
      <point x="526.840909090909" y="1480.0" type="line"/>
      <point x="124.61363636363637" y="1480.0" type="line"/>
      <point x="124.61363636363637" y="654.5909090909091" type="line" smooth="yes"/>
      <point x="124.61363636363637" y="214.1818181818182"/>
      <point x="330.5909090909091" y="-19.727272727272727"/>
    </contour>
    <contour>
      <point x="1094.8636363636365" y="1586.3636363636363" type="curve" smooth="yes"/>
      <point x="1231.909090909091" y="1586.3636363636363"/>
      <point x="1295.909090909091" y="1647.5"/>
      <point x="1295.909090909091" y="1750.2727272727273" type="curve" smooth="yes"/>
      <point x="1295.909090909091" y="1853.0454545454545"/>
      <point x="1231.909090909091" y="1914.4545454545455"/>
      <point x="1094.8636363636365" y="1914.4545454545455" type="curve" smooth="yes"/>
      <point x="957.8181818181818" y="1914.4545454545455"/>
      <point x="893.8181818181818" y="1853.0454545454545"/>
      <point x="893.8181818181818" y="1750.2727272727273" type="curve" smooth="yes"/>
      <point x="893.8181818181818" y="1647.5"/>
      <point x="957.8181818181818" y="1586.3636363636363"/>
    </contour>
    <contour>
      <point x="538.0" y="1586.3636363636363" type="curve" smooth="yes"/>
      <point x="675.0454545454545" y="1586.3636363636363"/>
      <point x="739.0454545454545" y="1647.5"/>
      <point x="739.0454545454545" y="1750.2727272727273" type="curve" smooth="yes"/>
      <point x="739.0454545454545" y="1853.0454545454545"/>
      <point x="675.0454545454545" y="1914.4545454545455"/>
      <point x="538.0" y="1914.4545454545455" type="curve" smooth="yes"/>
      <point x="400.95454545454544" y="1914.4545454545455"/>
      <point x="336.95454545454544" y="1853.0454545454545"/>
      <point x="336.95454545454544" y="1750.2727272727273" type="curve" smooth="yes"/>
      <point x="336.95454545454544" y="1647.5"/>
      <point x="400.95454545454544" y="1586.3636363636363"/>
    </contour>
  </outline>
</glyph>
<glyph name="Thorn" format="2">
  <advance width="1433.0227272727273"/>
  <unicode hex="00DE"/>
  <outline>
    <contour>
      <point x="130.88636363636363" y="0.0" type="line"/>
      <point x="533.1136363636364" y="0.0" type="line"/>
      <point x="533.1136363636364" y="217.5681818181818" type="line"/>
      <point x="577.2727272727273" y="216.3409090909091"/>
      <point x="623.2272727272727" y="214.13636363636363"/>
      <point x="671.0" y="214.13636363636363" type="curve" smooth="yes"/>
      <point x="1116.4545454545455" y="214.13636363636363"/>
      <point x="1348.590909090909" y="398.70454545454544"/>
      <point x="1348.590909090909" y="760.3409090909091" type="curve" smooth="yes"/>
      <point x="1348.590909090909" y="1139.090909090909"/>
      <point x="1112.2727272727273" y="1306.2954545454545"/>
      <point x="637.3636363636364" y="1306.2954545454545" type="curve" smooth="yes"/>
      <point x="601.0454545454545" y="1306.2954545454545"/>
      <point x="562.8863636363636" y="1303.0681818181818"/>
      <point x="533.1136363636364" y="1301.159090909091" type="curve"/>
      <point x="533.1136363636364" y="1480.2045454545455" type="line"/>
      <point x="130.88636363636363" y="1480.2045454545455" type="line"/>
    </contour>
    <contour>
      <point x="671.2045454545455" y="502.0909090909091" type="curve" smooth="yes"/>
      <point x="618.7272727272727" y="502.0909090909091"/>
      <point x="580.2272727272727" y="504.5"/>
      <point x="533.1136363636364" y="509.4545454545455" type="curve"/>
      <point x="533.1136363636364" y="1008.0227272727273" type="line"/>
      <point x="575.5454545454545" y="1015.3863636363636"/>
      <point x="615.2045454545455" y="1018.3409090909091"/>
      <point x="668.0227272727273" y="1018.3409090909091" type="curve" smooth="yes"/>
      <point x="868.4318181818182" y="1018.3409090909091"/>
      <point x="960.0681818181818" y="941.2954545454545"/>
      <point x="960.0681818181818" y="759.1363636363636" type="curve" smooth="yes"/>
      <point x="960.0681818181818" y="572.5454545454545"/>
      <point x="869.9318181818182" y="502.0909090909091"/>
    </contour>
  </outline>
</glyph>
<glyph name="germandbls" format="2">
  <advance width="1752.318181818182"/>
  <unicode hex="00DF"/>
  <outline>
    <contour>
      <point x="1126.3181818181818" y="-21.454545454545453" type="curve" smooth="yes"/>
      <point x="1504.9545454545455" y="-21.454545454545453"/>
      <point x="1701.4545454545455" y="117.0"/>
      <point x="1701.4545454545455" y="344.47727272727275" type="curve" smooth="yes"/>
      <point x="1701.4545454545455" y="553.9318181818182"/>
      <point x="1584.1363636363635" y="637.1136363636364"/>
      <point x="1376.090909090909" y="669.3863636363636" type="curve" smooth="yes"/>
      <point x="1168.5681818181818" y="700.9772727272727" type="line" smooth="yes"/>
      <point x="1107.590909090909" y="711.0227272727273"/>
      <point x="1089.340909090909" y="730.0227272727273"/>
      <point x="1089.340909090909" y="761.25" type="curve" smooth="yes"/>
      <point x="1089.340909090909" y="803.9545454545455"/>
      <point x="1126.090909090909" y="843.8863636363636"/>
      <point x="1338.159090909091" y="843.8863636363636" type="curve" smooth="yes"/>
      <point x="1403.8181818181818" y="843.8863636363636"/>
      <point x="1460.2727272727273" y="841.1363636363636"/>
      <point x="1510.9545454545455" y="836.2954545454545" type="curve"/>
      <point x="1530.1363636363635" y="914.0681818181818"/>
      <point x="1544.590909090909" y="984.1818181818182"/>
      <point x="1544.590909090909" y="1069.0227272727273" type="curve" smooth="yes"/>
      <point x="1544.590909090909" y="1454.9318181818182"/>
      <point x="1295.840909090909" y="1636.0"/>
      <point x="927.0454545454545" y="1636.0" type="curve" smooth="yes"/>
      <point x="476.3636363636364" y="1636.0"/>
      <point x="214.8181818181818" y="1397.8863636363637"/>
      <point x="214.8181818181818" y="995.1818181818182" type="curve" smooth="yes"/>
      <point x="214.8181818181818" y="0.0" type="line"/>
      <point x="607.9772727272727" y="0.0" type="line"/>
      <point x="607.9772727272727" y="1004.2954545454545" type="line" smooth="yes"/>
      <point x="607.9772727272727" y="1253.3181818181818"/>
      <point x="721.3863636363636" y="1375.6818181818182"/>
      <point x="959.7272727272727" y="1375.6818181818182" type="curve" smooth="yes"/>
      <point x="1147.2045454545455" y="1375.6818181818182"/>
      <point x="1270.7272727272727" y="1296.5681818181818"/>
      <point x="1270.5227272727273" y="1113.4545454545455" type="curve" smooth="yes"/>
      <point x="1270.5227272727273" y="1047.4772727272727"/>
      <point x="1259.7727272727273" y="984.6363636363636"/>
      <point x="1241.8636363636365" y="923.2954545454545" type="curve"/>
      <point x="1453.9318181818182" y="1097.8181818181818" type="line"/>
      <point x="1409.818181818182" y="1102.159090909091"/>
      <point x="1316.2954545454545" y="1104.3636363636363"/>
      <point x="1273.8181818181818" y="1104.3636363636363" type="curve" smooth="yes"/>
      <point x="909.25" y="1104.3636363636363"/>
      <point x="722.0454545454545" y="970.6590909090909"/>
      <point x="722.0454545454545" y="747.9772727272727" type="curve" smooth="yes"/>
      <point x="722.0454545454545" y="568.1363636363636"/>
      <point x="814.5227272727273" y="459.6818181818182"/>
      <point x="1047.909090909091" y="424.29545454545456" type="curve" smooth="yes"/>
      <point x="1255.4318181818182" y="392.70454545454544" type="line" smooth="yes"/>
      <point x="1316.9545454545455" y="382.6590909090909"/>
      <point x="1334.159090909091" y="365.27272727272725"/>
      <point x="1334.159090909091" y="328.8409090909091" type="curve" smooth="yes"/>
      <point x="1334.159090909091" y="279.5454545454545"/>
      <point x="1289.4772727272727" y="249.6590909090909"/>
      <point x="1120.75" y="249.6590909090909" type="curve" smooth="yes"/>
      <point x="1005.409090909091" y="249.6590909090909"/>
      <point x="854.6363636363636" y="269.5909090909091"/>
      <point x="751.7272727272727" y="294.9545454545455" type="curve"/>
      <point x="751.7272727272727" y="22.272727272727273" type="line"/>
      <point x="866.8863636363636" y="-6.863636363636363"/>
      <point x="1014.2272727272727" y="-21.454545454545453"/>
    </contour>
    <contour>
      <point x="36.63636363636364" y="782.5454545454545" type="line"/>
      <point x="352.8409090909091" y="782.5454545454545" type="line"/>
      <point x="352.8409090909091" y="1097.2727272727273" type="line"/>
      <point x="36.63636363636364" y="1097.2727272727273" type="line"/>
    </contour>
  </outline>
</glyph>
<glyph name="atilde" format="2">
  <advance width="1230.340909090909"/>
  <unicode hex="00E3"/>
  <anchor x="611.6363636363636" y="1200.0" name="_top"/>
  <anchor x="614.2272727272727" y="0.0" name="bottom"/>
  <anchor x="1121.6363636363635" y="0.0" name="ogonek"/>
  <anchor x="611.6363636363636" y="1200.0" name="top"/>
  <outline>
    <contour>
      <point x="451.72727272727275" y="-21.18181818181818" type="curve" smooth="yes"/>
      <point x="573.2954545454545" y="-21.18181818181818"/>
      <point x="682.4772727272727" y="15.227272727272728"/>
      <point x="753.5681818181818" y="100.3409090909091" type="curve"/>
      <point x="771.0681818181818" y="100.3409090909091" type="line"/>
      <point x="797.3636363636364" y="0.0" type="line"/>
      <point x="1121.6363636363635" y="0.0" type="line"/>
      <point x="1121.6363636363635" y="612.4545454545455" type="line" smooth="yes"/>
      <point x="1121.6363636363635" y="990.4090909090909"/>
      <point x="952.0" y="1115.0"/>
      <point x="550.5227272727273" y="1115.0" type="curve" smooth="yes"/>
      <point x="432.9090909090909" y="1115.0"/>
      <point x="282.8863636363636" y="1099.2272727272727"/>
      <point x="161.13636363636363" y="1066.090909090909" type="curve"/>
      <point x="161.13636363636363" y="782.6136363636364" type="line"/>
      <point x="264.3636363636364" y="812.6136363636364"/>
      <point x="389.6818181818182" y="827.4772727272727"/>
      <point x="479.4090909090909" y="827.4772727272727" type="curve" smooth="yes"/>
      <point x="673.0681818181818" y="827.4772727272727"/>
      <point x="737.5454545454545" y="779.8409090909091"/>
      <point x="737.5454545454545" y="642.1136363636364" type="curve" smooth="yes"/>
      <point x="737.5454545454545" y="285.5" type="line"/>
      <point x="690.5681818181818" y="251.4090909090909"/>
      <point x="632.3863636363636" y="239.13636363636365"/>
      <point x="581.0454545454545" y="239.13636363636365" type="curve" smooth="yes"/>
      <point x="492.54545454545456" y="239.13636363636365"/>
      <point x="448.04545454545456" y="277.3181818181818"/>
      <point x="448.04545454545456" y="339.4318181818182" type="curve" smooth="yes"/>
      <point x="448.04545454545456" y="404.1136363636364"/>
      <point x="491.02272727272725" y="443.0681818181818"/>
      <point x="604.4772727272727" y="451.29545454545456" type="curve" smooth="yes"/>
      <point x="840.1590909090909" y="466.5909090909091" type="line"/>
      <point x="800.5" y="672.0681818181818" type="line"/>
      <point x="564.5909090909091" y="656.7727272727273" type="line" smooth="yes"/>
      <point x="210.77272727272728" y="636.5"/>
      <point x="60.54545454545455" y="514.5909090909091"/>
      <point x="60.54545454545455" y="304.6363636363636" type="curve" smooth="yes"/>
      <point x="60.54545454545455" y="115.63636363636363"/>
      <point x="197.0" y="-21.18181818181818"/>
    </contour>
    <contour>
      <point x="780.4090909090909" y="1261.25" type="curve" smooth="yes"/>
      <point x="872.3863636363636" y="1261.25"/>
      <point x="939.2727272727273" y="1286.1363636363635"/>
      <point x="998.7954545454545" y="1342.909090909091" type="curve"/>
      <point x="998.7954545454545" y="1575.7954545454545" type="line"/>
      <point x="929.9772727272727" y="1513.1136363636363"/>
      <point x="869.75" y="1487.159090909091"/>
      <point x="789.0454545454545" y="1487.159090909091" type="curve" smooth="yes"/>
      <point x="674.8409090909091" y="1487.159090909091"/>
      <point x="575.4772727272727" y="1584.1818181818182"/>
      <point x="442.8636363636364" y="1584.1818181818182" type="curve" smooth="yes"/>
      <point x="350.8863636363636" y="1584.1818181818182"/>
      <point x="284.0" y="1559.2954545454545"/>
      <point x="224.47727272727272" y="1502.5227272727273" type="curve"/>
      <point x="224.47727272727272" y="1269.6363636363635" type="line"/>
      <point x="293.29545454545456" y="1332.3181818181818"/>
      <point x="353.52272727272725" y="1358.2727272727273"/>
      <point x="434.22727272727275" y="1358.2727272727273" type="curve" smooth="yes"/>
      <point x="548.4318181818182" y="1358.2727272727273"/>
      <point x="647.7954545454545" y="1261.25"/>
    </contour>
  </outline>
</glyph>
